/* XPM */
static char *_4d6c161c7324c1599fb20db8ddcfbeaBc2liZMY05l1N4N2[] = {
/* columns rows colors chars-per-pixel */
"64 64 150 2 ",
"   c #7E627D",
".  c #7B607A",
"X  c #725974",
"o  c #6B546B",
"O  c #795F78",
"+  c #735972",
"@  c #6E566E",
"#  c #6A536A",
"$  c #59495C",
"%  c #7C607C",
"&  c #765C76",
"*  c #665166",
"=  c #7C617B",
"-  c #7A607A",
";  c #534556",
":  c #55415C",
">  c #59425E",
",  c #694974",
"<  c #61456A",
"1  c #63476B",
"2  c #68496F",
"3  c #513E56",
"4  c #5A416A",
"5  c #573F68",
"6  c #574069",
"7  c #5C4364",
"8  c #583F69",
"9  c #533D63",
"0  c #523D5C",
"q  c #574062",
"w  c #5E4368",
"e  c #5E4468",
"r  c #624570",
"t  c #4C3A5C",
"y  c #153434",
"u  c #66496E",
"i  c #3D324C",
"p  c #483756",
"a  c #42354D",
"s  c #473951",
"d  c #4B3A54",
"f  c #433945",
"g  c #49375C",
"h  c #433455",
"j  c #46394D",
"k  c #3B3245",
"l  c #674871",
"z  c #644671",
"x  c #6A4A77",
"c  c #5E436D",
"v  c #6A4A75",
"b  c #63466D",
"n  c #664774",
"m  c #704D7B",
"M  c #6E4C79",
"N  c #0F2028",
"B  c #6E4C77",
"V  c #65476E",
"C  c #60446A",
"Z  c #44345A",
"A  c #3E3152",
"S  c #0D1A25",
"D  c #392F48",
"F  c #604567",
"G  c #60446E",
"H  c #0F1D27",
"J  c #5F446E",
"K  c #5D4170",
"L  c #724E7C",
"P  c #6F4D7B",
"I  c #392F47",
"U  c #604468",
"Y  c #143032",
"T  c #674874",
"R  c #67486E",
"E  c #5B4963",
"W  c #674778",
"Q  c #473858",
"!  c #6B4977",
"~  c #664770",
"^  c #122C2F",
"/  c #6A4A71",
"(  c #4F405B",
")  c #755A7A",
"_  c #7D5D81",
"`  c #7A5C7E",
"'  c #614C65",
"]  c #4D3961",
"[  c #4A3760",
"{  c #37303C",
"}  c #3A333C",
"|  c #493A4E",
" . c #64466D",
".. c #644672",
"X. c #163B38",
"o. c #1A5438",
"O. c #413645",
"+. c #0F222A",
"@. c #1A5736",
"#. c #153232",
"$. c #173D38",
"%. c #332F37",
"&. c #342F3A",
"*. c #12272D",
"=. c #18423A",
"-. c #5FB34D",
";. c #1A4D3C",
":. c #1A5E33",
">. c #73537C",
",. c #1A483F",
"<. c #163936",
"1. c #72C761",
"2. c #664773",
"3. c #1F722F",
"4. c #318737",
"5. c #554857",
"6. c #564859",
"7. c #4E4252",
"8. c #459C40",
"9. c #2A7F34",
"0. c #6D5274",
"q. c #6B4A76",
"w. c #6F5278",
"e. c #6ABD53",
"r. c #1A672F",
"t. c #7FDA8A",
"y. c #77D477",
"u. c #91E9A6",
"i. c #775080",
"p. c #92EAA7",
"a. c #8CE6A0",
"s. c #67526B",
"d. c #83DE91",
"f. c #60466E",
"g. c #634671",
"h. c #A2F7BD",
"j. c #A0F6BB",
"k. c #684975",
"l. c #9FF4B9",
"z. c #745A74",
"x. c #6F5872",
"c. c #76CF6E",
"v. c #685167",
"b. c #6E586E",
"n. c #735A73",
"m. c #5A426A",
"M. c #5F446A",
"N. c #6C4B78",
"B. c #A3F7BF",
"V. c white",
/* pixels */
"  .   X o   O O O o + . .   @ +   O O   # $   %   # & . O O O * = =   O #   O O . + o   - . & o   O O . O # O ; : > > , < 1 2 3 ",
"4 5 5 6 7 8 4 4 9 0 q 4 9 6 q 6 5 8 5 w e : r 4 5 q 6 4 4 5 5 t 7 5 5 5 q 5 4 4 y y : 6 9 6 6 q 6 4 6 6 u 7 0 i p 9 9 5 4 5 9 p ",
"p a 0 t p 0 p a 9 p t a s 9 d t 0 9 0 9 s f q 0 9 d t 0 a g 0 s t i 3 0 p t t a y y p p h 0 t d t 0 0 9 0 j f k 3 t d 0 s s 0 d ",
"l < , , z z , 7 x c v 1 b x , b n m m M 1 > M v , , c , 7 , n r N N , , , r , 7 M r l n e , , l z M M M B < < b x , z n V b v C ",
"h i Z h Z Z h i h h Z i A h A Z Z Z h t d d 9 Z h A Z Z i A h h N N S S S S h i h h Z A D h h Z g h Z g 0 h A A Z h Z Z A D Z h ",
"F 7 7 s w C < 7 s 7 e < e q p b w w r z 0 j V G 0 0 b w e 0 t w S S H S S S w F d 0 J w w w s w w J G b 7 3 e w 5 s < J 7 7 p w ",
"J K r 4 z 8 K r 4 c K K 4 J e z 8 J , L 2 > M 8 J w K 8 r w w J S S S S J J 4 r w J 4 K K r 7 r J J r P L 7 J K G 7 r 8 J G 7 J ",
"h h A D h A Z Z I Z Z h h A i h h Z Z t d d 9 h i i h Z Z A i S S S S D A h Z Z D h Z Z h h D A A Z Z Z t a h h h I h h Z h D Z ",
"C d 0 U 7 7 3 0 e 7 w 7 s 7 7 7 e b < b 3 s C C 7 7 w 9 s 7 e Y Y Y S S 7 7 0 d 7 7 7 C p 3 e 7 4 b e b F p < j 5 > 7 5 s 5 > U ",
"r 8 G 8 G G 8 8 r 4 J b 5 G J J K P T x R E m W K J b w 7 J Y Y Y Y S S J J H 8 r J 8 r 7 w r J J P x z L 7 r 7 G G J J 7 G V 5 ",
"h D a h h h D a Z A h h I h A h p h Z t s j t h h A p A k A Y Y Y Y Y S S Z i I h Q p s a i A h h h p p t j Z k i A h p k A p p ",
"v R v < 0 ! ~ ~ l : 7 , V v > 7 , l l , 7 ^ ^ ^ , 0 u , F d Y Y Y Y ^ ^ v / , 7 ( ) _ ` E d < : v z 2 , , ' O : 0 F 7 , l d ' ` ",
"9 g ] t 3 ] 9 t g s g ] t [ t t ] ] ] 9 ^ ^ ^ ^ t p t ] 0 k a S Y Y ^ S ] [ 0 g { s 9 g k i t p ] ] ] ] 5 p p } s t t t ] a k t ",
"0 s 8 5 0 5 0 s 7 0 7 p 0 7 5 0 7 w 7 w ^ ^ ^ ^ ^ 7 9 7 a 3 S S Y Y Y Y 8 N N j : : 7 3 f > 7 9 7 w w 7 7 3 | | 5 7 0 5 d d > : ",
" .8 R G G J G 8 n 8 ..w 8 r G w r W , , ^ ^ ^ ^ r r 4 z w r S Y Y Y Y Y  .N N 5 z 4 K r 7 r r K 4 W , ! v 7 8 J z G J J J w l 6 ",
"a D h A h h h D A h h D h h A p Z A h g s j ^ Z A A Z h D i S S Y Y Y Y h Z h I A A h A i h A h Z h h h t a D D h h Z Z D i A h ",
"~ ~ < 3 / V R R 3 < 2 2 2 U 3 , V , v m 7 3 v 2 7 > , V , N N N Y Y Y S < l V l 0 E V , u V 3 u l V , v 2 > , u F 3 , z , < 3 V ",
"8 8 8 9 w 5 8 8 9 8 5 5 5 5 5 w 9 5 J x < > , 5 5 7 X.X.X.N N N H S S S 4 5 9 4 5 5 5 5 5 4 9 4 5 5 J T v q 6 6 4 q 8 9 5 4 9 7 ",
"h h A I A h h h I h Z h h i I h h h h g s j t h D i X.X.X.N N N N S S S S S h h I a p h h A k A h h h Z t i Z h A k h h h h k h ",
"~ 0 7 V V V 0 7 R b V V 3 < V V V v , v > d , v l V X.X.3 u S S S S S S S S 7 0 / < < , 0 7 u V b v , , u : l d < 1 b b d < u b ",
"8 0 5 5 5 5 0 5 8 9 5 8 9 5 5 5 5 n J z < 7 ! 8 5 5 5 9 0 4 S S S S S S S S 5 9 8 5 9 5 0 o.o.o.o.n r c , q 6 0 5 5 5 5 9 5 7 ] ",
"Z a a h A g i a g a h h O.p D h Z p p t s f t g p i p h i i S S +.+.S S S S a H s t d 3 a @.o.o.o.o.p p d j ( k i i h g a h g i ",
"M ~ v V F v , , ~ 7 C v n M 7 V M , , M 1 0 v v , 7 , M #.d S S +.+.S S S / , e ( ) _ _ e o.o.o.o.o.v v M u ) ( 7 < C v , ! , : ",
"Z Z Z h s g g Z Z a h Z Z Z s s g g p t 3 s 0 g Z $.$.#.#.#.S S S S S S S Z g s %.i g h &.o.o.o.o.o.g g : s i { i s s Z g Z h a ",
"5 3 R R U C 7 3 R 7 < 0 > z < e < , z 2 : j 2 V V $.$.$.$.*.S S N N Y Y Y w b d < U C 7 3 1 o.o.o.~ ~ ~ < > 3 0 V V e V 0 0 R 7 ",
"5 5 8 5 5 8 5 5 8 9 8 5 8 8 4 5 w K J z =.=.=.w 8 $.$.-.-.-.;.;.N N #.#.#.Y J 0 8 5 5 8 9 7 8 8 5 G G G u 9 7 5 8 5 5 8 7 5 4 9 ",
"a a h D p p h D D h p a a h i g g p h t ^ ^ ^ Z -.-.-.-.-.-.:.;.;.=.S S #.#.h k D h p h a h D p p p h p p a i a h i Z p a i i h ",
"v v / > B ~ , ! 7 R ! / v < 7 v ~ v L L ^ : L , F -.-.-.-.-.:.;.;.Y S S S S , M E b l v , ~ 7 / ~ ! m >.B e M , z > B , / , 7 z ",
"9 9 ] t 5 ] 9 9 t 9 9 ] 9 ] t 9 ] 9 5 J 7 : r ] =.:.:.:.:.:.:.;.Y Y Y Y S ] ] ,.,.,.] ] 9 9 t 5 ] 9 5 8 V 3 9 ] 5 t 9 ] 9 9 t 9 ",
"h A a a h h a h D s p p A A i Z h Z p Z j a t h =.=.=.=.S <.<.1.1.^ ^ ^ S S A h k ,.Z p A A k h h Z p Z t a h A i D h h A h k p ",
"M 0 R v 2.~ 7 < B R v v 0 v / ~ , L L L F 3 L L =.3.3.S o.1.1.1.1.1.1.^ ^ S U > v , ~ m 7 < v v , L L L v 7 B 0 ~ v ~ , > V v Y ",
"] g t t t ] t g 9 g t ] p t t 9 4.4.4.4.: s 7 3.3.3.3.3.1.1.1.1.1.1.1.,.Y S S t 9 t g t p t t t t t 9 9 7 p 9 p ] ] 9 t g ] Y Y ",
"| s s f k d j j | k j s j s k f 4.4.4.d } f 3.3.3.3.3.3.3.1.1.1.1.1.1.,.,.,.S f f 5.6.: 7.} a k | j j d j 7.E 5.$ : : E ; Y Y Y ",
"v ..! V F M , z z 7 < n ! , < V , 4.l z 3.3.3.3.3.3.3.3.3.8.8.8.o.o.,.,.,.9.9.S S 0._ >.: d u e q., , q.v F >.>.w.0.0.>.w.w.Y Y ",
"h h g h a h p h p i a h h h a h p h h h 3.3.3.3.3.3.3.8.8.8.8.8.e.e.e.,.,.9.9.9.9.<.<.i { o.h a Z s p p 0 a h A h h a Z h h Y Y ",
"< 0 v v V ~ < > v < , 7 < , , b , 7 F 3.r.3.3.3.3.8.8.8.t.t.t.t.t.t.t.t.e.9.9.9.9.<.<.<.: o.o.o.o.L M v ~ 7 E e M , b l E e v e ",
"0 t 5 ] 9 9 ] t 5 g 9 t t 9 ] ] 9 t r.r.r.3.3.y.y.y.y.t.t.t.t.t.t.t.t.t.t.e.e.e.e.9.<.<.<.9 o.o.o.o.5 5 e t t ] 9 ] 9 9 t 0 9 [ ",
"p s p D g t p a i p g s s p A t g s r.r.y.y.y.y.y.y.t.t.t.t.t.t.t.t.t.t.t.t.t.e.e.e.<.r.r.g o.o.o.o.g t 3 a s s Z i g t p a i g ",
"v ! ! F M , , v 7 l , M , , F m z M r.y.y.y.y.y.y.y.t.t.t.t.t.t.t.t.t.t.t.t.t.t.t.e.u.u.u.r.r.o.o.o.o.i.L F v , , e M l v v e ~ ",
"] t t h ] Z ] ] p ] ] t g g p g g ] g y.y.y.y.y.y.y.t.t.t.t.t.t.t.t.t.t.t.t.t.t.t.u.u.u.u.u.u.u.o.o.o.5 e g ] ] g s [ [ ] t h 9 ",
"g a a j p g a s a t Q g i s s g g i s y.y.y.y.y.p.t.t.t.t.t.t.t.t.t.t.t.t.t.t.t.t.t.u.u.u.u.u.u.u.t o.g t a p i h j p p i s j p ",
"B 8 , v , , 7 z M l q.v E v v v , 7 v y.y.y.p.p.p.t.t.t.t.t.t.t.t.t.t.t.t.t.t.t.t.t.u.u.u.u.u.u.u.u.>.L >.F v 7 , , , ! e , M z ",
"g a p Z g g h h ] Z Q Z h g g g g h y.y.y.y.p.p.p.t.t.t.t.t.t.t.t.t.t.t.t.t.t.t.t.a.u.u.u.u.u.u.u.u.t 9 e s Z h Z g t g a Z t g ",
"2 ; a t s 7 0 a : s.s.s.f p s 3 7 +.y.d.d.p.p.p.p.p.t.t.t.t.t.t.t.t.t.t.t.t.t.t.t.a.a.a.u.u.u.u.u.u.u.5 7 ; * 7.s p p 7 0 0 5 a ",
"f.d t J w r b 0 d v w.c j q w w r d.d.d.d.p.p.p.p.p.p.p.t.t.t.t.t.t.t.t.t.t.t.t.t.t.a.a.u.u.u.u.u.u.u.r , e 1 j 9 8 w r r J 8 0 ",
"a %.a p a g p k k a s k { h h s Z d.d.d.p.p.p.p.p.p.p.p.t.t.t.t.t.t.t.t.t.t.a.a.a.t.a.a.a.u.u.u.u.u.u.g t a k } a s s g s h g a ",
"u e M M z ! V 7 L b v e u v x g.d.d.d.p.p.p.p.p.p.p.p.p.p.p.p.p.p.p.p.p.t.t.t.a.a.a.a.a.a.a.u.u.u.u.u.m v < < < m v z v < < m < ",
"Z s [ Z t g Z p [ Z [ p Z t [ Z d.d.d.p.p.p.p.p.p.p.p.p.p.p.p.p.p.p.p.p.p.p.p.a.a.a.a.a.a.a.a.u.u.u.u.u.7 p p Z g g [ g p Z g g ",
"3 3 0 a 9 9 0 3 a 0 9 3 0 p j d.d.d.d.p.p.p.p.p.p.p.p.p.p.p.p.p.p.p.p.p.p.p.p.a.a.a.a.a.a.a.a.u.u.u.u.5 : s 3 0 t a 9 0 0 p a 0 ",
", n z w x r z , 7 z z n z , < d.d.d.d.p.p.p.p.p.p.p.p.p.p.p.p.p.p.p.p.p.p.p.p.a.a.a.a.a.a.a.a.u.u.u.u.>.L e , n l F , r , , F l ",
"Z Z Z i Z g g g i g Z Z Z p a d.d.d.d.p.p.p.p.p.p.p.p.p.p.p.h.h.h.h.p.p.p.p.p.a.a.a.a.a.a.a.a.u.u.u.u.] 7 p Z Z Z i Z Z t g i t ",
"9 s p 3 t 0 s s 3 0 9 9 a 3 p d.d.d.d.d.p.p.p.p.p.h.h.h.h.h.h.h.h.h.h.h.h.j.j.j.j.j.j.a.a.a.a.u.u.9 0 9 0 s 9 a p 3 9 0 a p t 0 ",
"x < z ! z z e V x b n , 7 n n d.d.d.d.d.p.p.p.p.p.h.h.h.h.h.h.h.h.h.h.h.h.j.j.j.j.j.a.a.a.a.a.u.u.i.L M L C , 7 k.k.T l e l , r ",
"Z i A h Z Z i h Z Z h h i h h d.d.d.d.d.d.p.p.p.p.h.h.h.h.h.h.h.h.h.h.h.h.j.j.j.j.j.a.l.a.a.a.S S g g g 9 a h k i A i a i i s i ",
"+ 5.d 9 d V e d E X z.x.d 3 0 c.d.d.d.d.d.d.p.h.h.h.h.h.h.h.h.h.h.h.h.h.h.j.j.l.l.l.l.l.a.a.a.S S x.x.x.v.s.+ b.n.* * n.b.b.+ * ",
"6 a s 7 q 8 4 p a 4 c 9 f 0 9 c.d.d.d.j.j.d.p.h.h.h.h.h.h.h.h.h.h.h.h.h.j.j.j.l.l.l.l.l.l.a.S S S w J 5 : 7 4 6 6 E m.m.m.m.c M.",
"j } p t s t t k | s t f k t p c.c.d.d.d.j.j.j.j.h.h.h.h.j.j.j.j.j.j.j.j.j.j.l.l.l.l.l.l.a.S S S t p h t d p h s t t p t 0 0 0 p ",
"l 1 v , l u , e N.b , < u M , V c.d.d.j.B.j.j.j.h.h.h.h.j.j.j.j.j.j.j.j.j.l.l.l.l.l.l.l.l.S S S V , F M b , < b M , r , L L L 2 ",
"h i Z A Z g A i Z A Z A A Z h Z c.c.d.j.B.B.B.B.h.h.h.h.h.j.j.j.j.j.j.l.l.l.l.l.l.l.l.l.l.S S Z g h i h h Z A A Z h Z Z Z Z t t ",
"e 7 7 s w e 7 7 j 7 w e 7 q s < w 7 d.B.B.B.B.B.B.B.j.h.h.j.j.j.j.j.j.l.l.l.l.l.l.l.l.l.l.S s 7 w 7 7 j 5 w 7 7 q s e e w < < : ",
"c c b 7 ..K J r 7 b c c J b w r J K r 7 4 < P K w C r w r M L E V W J w V J J r 7 c c r r K 7 r J 4 ..4 K c r K b 4 n 4 c T L , ",
"Z Z h D Z A Z Z D Z Z Z Z A D h h Z h i p t 9 h D A Z h Z Z 9 a 0 ] h D A h h Z i A Z Z Z h D h A g Z D h Z h g A D Z A Z Z t t ",
"e s 0 7 7 7 s 0 7 7 4 7 j q 7 4 7 a : 7 9 3 w w 7 7 8 8 C w U s d < w 7 5 7 0 p 7 7 7 w p 3 7 7 7 p 3 7 7 7 7 s q 7 7 7 w w e : ",
", e r r r r < r T w b n e T r r r < z z 7 e m P z r r z L v L E < L P z b r b < n r J T < z n r r w b ! J r n e z r r r M M L , "
};
