/* XPM */
static char *f19bc54bdbb5483b963fad3116b73e04LbTH5daqcF28sCsz[] = {
/* columns rows colors chars-per-pixel */
"64 64 148 2 ",
"   c #7E627D",
".  c #7B607A",
"X  c #725974",
"o  c #6B546B",
"O  c #795F78",
"+  c #735972",
"@  c #6E566E",
"#  c #6A536A",
"$  c #59495C",
"%  c #7C607C",
"&  c #765C76",
"*  c #665166",
"=  c #7C617B",
"-  c #7A607A",
";  c #534556",
":  c #55415C",
">  c #59425E",
",  c #694974",
"<  c #61456A",
"1  c #63476B",
"2  c #68496F",
"3  c #513E56",
"4  c #5A416A",
"5  c #573F68",
"6  c #574069",
"7  c #5C4364",
"8  c #583F69",
"9  c #533D63",
"0  c #523D5C",
"q  c #574062",
"w  c #5E4368",
"e  c #5E4468",
"r  c #624570",
"t  c #4C3A5C",
"y  c #66496E",
"u  c #3D324C",
"i  c #483756",
"p  c #42354D",
"a  c #473951",
"s  c #4B3A54",
"d  c #433945",
"f  c #49375C",
"g  c #1A6033",
"h  c #433455",
"j  c #46394D",
"k  c #3B3245",
"l  c #674871",
"z  c #644671",
"x  c #6A4A77",
"c  c #5E436D",
"v  c #6A4A75",
"b  c #63466D",
"n  c #664774",
"m  c #704D7B",
"M  c #6E4C79",
"N  c #6E4C77",
"B  c #65476E",
"V  c #60446A",
"C  c #44345A",
"Z  c #3E3152",
"A  c #392F48",
"S  c #143333",
"D  c #604567",
"F  c #60446E",
"G  c #10232B",
"H  c #5F446E",
"J  c #5D4170",
"K  c #724E7C",
"L  c #0F2028",
"P  c #6F4D7B",
"I  c #392F47",
"U  c #604468",
"Y  c #11262C",
"T  c #674874",
"R  c #5B4963",
"E  c #674778",
"W  c #0F1F27",
"Q  c #473858",
"!  c #67486E",
"~  c #6B4977",
"^  c #664770",
"/  c #132E31",
"(  c #67526B",
")  c #6A4A71",
"_  c #4F405B",
"`  c #755A7A",
"'  c #7D5D81",
"]  c #7A5C7E",
"[  c #614C65",
"{  c #4D3961",
"}  c #4A3760",
"|  c #37303C",
" . c #3A333C",
".. c #493A4E",
"X. c #64466D",
"o. c #644672",
"O. c #0D1A25",
"+. c #173A37",
"@. c #153535",
"#. c #413645",
"$. c #1A5637",
"%. c #1A5338",
"&. c #12282D",
"*. c #332F37",
"=. c #342F3A",
"-. c #0E1E27",
";. c #18413B",
":. c #183E39",
">. c #1F722F",
",. c #73537C",
"<. c #1A5836",
"1. c #664773",
"2. c #338A38",
"3. c #1A6A2E",
"4. c #142F31",
"5. c #52A846",
"6. c #60B44E",
"7. c #1A6C2D",
"8. c #4E4252",
"9. c #554857",
"0. c #6B4A76",
"q. c #6F5278",
"w. c #6D5274",
"e. c #1A4E3C",
"r. c #318737",
"t. c #7AD67E",
"y. c #1A483F",
"u. c #67BA51",
"i. c #775080",
"p. c #9AF0B0",
"a. c #8EE7A2",
"s. c #91E9A6",
"d. c #94ECA8",
"f. c #60466E",
"g. c #19423A",
"h. c #82DD90",
"j. c #9BF2B4",
"k. c #684975",
"l. c #745A74",
"z. c #6F5872",
"x. c #685167",
"c. c #6E586E",
"v. c #735A73",
"b. c #5A426A",
"n. c #5F446A",
"m. c #9CF2B3",
"M. c #6C4B78",
"N. c white",
/* pixels */
"  .   X o   O O O o + . .   @ +   O O   # $   %   # & . O O O * = =   O #   O O . + o   - . & o   O O . O # O ; : > > , < 1 2 3 ",
"4 5 5 6 7 8 4 4 9 0 q 4 9 6 q 6 5 8 5 w e : r 4 5 q 6 4 4 5 5 t 7 5 5 5 q 5 4 4 9 q : 6 9 6 6 q 6 4 6 6 y 7 0 u i 9 9 5 4 5 9 i ",
"i p 0 t i 0 i p 9 i t p a 9 s t 0 9 0 9 a d q 0 9 s t 0 p f 0 a g g g 0 i t t p t t i i h 0 t s t 0 0 9 0 j d k 3 t s 0 a a 0 s ",
"l < , , z z , 7 x c v 1 b x , b n m m M 1 > M v , , c , 7 , n g g g g , , r , 7 M r l n e , , l z M M M N < < b x , z n B b v V ",
"h u C h C C h u h h C u Z h Z C C C h t s s 9 C h Z C C u Z h g g g g h h C h u h h C Z A h h S S S C f 0 h Z Z C h C C Z A C h ",
"D 7 7 a w V < 7 a 7 e < e q i b w w r z 0 j B F 0 0 G G G 0 t g g g g i 7 V w D s 0 H w w w a S S S F b 7 3 e w 5 a < H 7 7 i w ",
"H J r 4 z 8 J r 4 c J J 4 H e z 8 H , K 2 > M 8 H w G G L w w H H H 8 H H H 4 r w H 4 J J r 7 S S S r P K 7 H J F 7 r 8 H F 7 H ",
"h h Z A h Z C C I C C h h Z u h h C C t s s 9 h u u G G G Z u C h C h A Z h C C A h C C h h A Z Z C C C t p h h h I h h C h A C ",
"V s 0 U 7 7 3 0 e 7 w 7 a 7 7 7 e b < Y Y a V V 7 7 w 9 a 7 e 7 w 0 i D 7 7 0 s 7 7 7 V i 3 e 7 4 b e b D i < j 5 > 7 5 a 5 > U ",
"r 8 F 8 F F 8 8 r 4 H b 5 F H H J P T Y Y R m E J H b w 7 H b W r 8 7 z H H w 8 r H 8 r 7 w r H H P x z K 7 r 7 F F H H 7 F B 5 ",
"h A p h h h A p C Z h h I h Z h i h C t a j t h h Z i Z L Z f h i h I h i C u I h Q i a p u Z h h h i i t j C k u Z h i k Z i i ",
"v ! v < 0 ~ ^ ^ l : 7 , B v > 7 , l l L 7 3 , 2 , 0 y , D / / Y O ( L ^ v ) , 7 _ ` ' ] R s < : v z 2 , , [ O : 0 D 7 , l s [ ] ",
"9 f { t 3 { 9 t f a f { t } t t { { { 9 : s 6 { t i t G / / / / t u k t { } 0 f | a 9 f k u t i { { { { 5 i i  .a t t t { p k t ",
"0 a 8 5 0 5 0 a 7 0 7 i 0 7 5 0 7 w 7 w 3 j e 7 7 7 9 7 / / / / 0 d 0 7 8 9 G j : : 7 3 d > 7 9 7 w w 7 7 3 ....5 7 0 5 s s > : ",
"X.8 ! F F H F 8 n 8 o.w 8 r F w r E , , < > , l r r 4 z w / / / n O.L H X.8 z 5 z 4 J r 7 r r J 4 E , ~ v 7 8 H z F H H H w l 6 ",
"p A h Z h h h A Z h h A h h Z i C Z h f a j 9 C Z Z C +.+.u Z i h L h Z h C h I Z Z h Z u h Z h C h h h t p A A h h C C A u Z h ",
"^ ^ < 3 ) B ! ! 3 < 2 2 2 U 3 , B , v m 7 3 v 2 L L +.+.+.+.: L L L L L L l B l 0 R B , y B 3 y l B , v 2 > , y D 3 , z , < 3 B ",
"8 8 8 9 w 5 8 8 9 8 5 5 5 5 5 w 9 5 H x < > , g g L +.+.+.+.L L L L L L L L 9 4 5 5 5 5 5 4 9 4 5 5 H T v q 6 6 4 q 8 9 5 4 9 7 ",
"h h Z I Z h h h I h C h h u I h h h h f a j g g g g Z +.+.+.L L L L L L L Z h h I p i h h Z k Z h h h C t u C h Z k h h h h k h ",
"^ 0 7 B B B 0 7 ! b B B 3 < B B B v , v > @.g g g g z e 3 y L L L L L L L z 7 0 ) < < , 0 7 y B b v , , y : l s < 1 b b s < y b ",
"8 0 5 5 5 5 0 5 8 9 5 8 9 5 5 5 5 n H z < @.@.g g g 5 9 0 L L L G L L L L L 5 9 8 5 9 5 0 5 5 5 5 n r c , q 6 0 5 5 5 5 9 5 7 { ",
"C p p h Z f u p f p h h #.i A h C i i t a @.@.@.i u i h O.L G G G G L $.$.$.$.k a t s 3 p u h u C C i i s j _ k u u h f p h f u ",
"M ^ v B D v , , ^ 7 V v n M 7 B M , %.%.%.0 @.v , 7 , M O.L L G G G $.$.$.$.$.$._ ` ' ' e 3 B 7 v , v v M y ` _ 7 < V v , ~ , : ",
"C C C h a f f C C p h C C C a a f f %.%.%.a 0 f C a C &.&.&.G G G G $.$.$.$.$.$.*.u f h =.k h a f f f f : a u | u a a C f C h p ",
"5 3 ! ! U V 7 3 ! 7 < 0 > z < e < , %.%.: j 2 B B b 7 &.&.&.&.G G G $.$.$.$.$.$.< U V 7 3 1 B D F ^ ^ ^ < > 3 0 B B e B 0 0 ! 7 ",
"5 5 8 5 5 8 5 5 8 9 8 5 8 8 4 5 w J H z e : , w 8 8 -.L &.L G ;.;.;.;.$.$.$.$.$.8 5 5 8 9 7 8 8 5 F F F y 9 7 5 8 5 5 8 7 5 4 9 ",
"p p h A i i h A A h i p p h u f f i h t j p 0 C :.:.:.L S S L ;.;.G G ;.L f h k A h i h p h A i i i h i i p u p h u C i p u u h ",
"v v ) > N ^ , ~ 7 ! ~ ) v < 7 v ^ v K K < : :.:.:.:.:.L >.>.>.>.G L G G G +., M R b &.v , ^ 7 ) ^ ~ m ,.N e M , z > N , ) , 7 z ",
"9 9 { t 5 { 9 9 t 9 9 { 9 { t 9 { 9 5 H 7 : :.-.:.L +.>.>.>.>.>.L +.+.+.@.@.+.5 0 9 { &.&.9 t 5 { 9 5 8 B 3 9 { 5 t 9 { 9 9 t 9 ",
"h Z p p h h p h A a i i Z Z u C h C i C j p t h -.:.+.>.>.>.>.>.<.<.<.<.g @.+.h k h C i &.Z k h h C i C t p h Z u A h h Z h k i ",
"M 0 ! v 1.^ 7 < N ! v v 0 v ) ^ , K K K D 3 K -.:.:.:.L :.:.<.<.<.<.<.<.<.g U 2.v 2.2.m 7 < v v , K K K v 7 N 0 ^ v ^ , > B v z ",
"{ f t t t { t f 9 f t { i t t 9 t 9 9 7 : a 3.3.3.3.3.3.4.4.<.<.<.<.%.%.<.g g ;.2.2.2.2.2.t t t t t 9 9 7 i 9 i { { 9 t f { 9 f ",
"..a a d k s j j ..k j a j a k d s a ..s  .3.5.5.6.6.6.6.6.6.6.6.7.7.7.%.%.%.g 2.2.2.2.2.2.2.2.k ..j j s j 8.R 9.$ : : R ; R R t ",
"v o.~ B D M , z z 7 < n ~ , < B , , l z : 5.5.6.6.6.6.6.6.6.6.6.7.7.7.7.7.%.^ 2.2.2.2.2.2.2.2.e 0., , 0.v D ,.,.q.w.w.,.q.q.q.( ",
"h h f h p h i h i u p h h h p h i h h h 5.5.6.6.6.6.6.6.6.6.6.6.6.5.5.5.5.7.e.e.| 2.2.2.2.2.2.2.C a i i 0 p h Z h h p C h h h u ",
"< 0 v v B ^ < > v < , 7 < , , b , 7 D r.5.5.6.t.t.t.r.r.t.5.5.5.5.5.5.5.5.5.5.7.e.2.2.2.2.2.2.2.r K M v ^ 7 R e M , b l R e v e ",
"0 t 5 { 9 9 { t 5 f 9 t t 9 { { y.y.r.r.u.u.t.t.t.t.t.t.t.5.5.5.5.5.5.5.5.5.5.5.>.} { 2.2.2.2.2.2.9 5 5 e t t { 9 { 9 9 t 0 9 } ",
"i a i A f t i p u i f a a i Z y.y.y.r.t.t.t.t.t.t.t.t.t.t.t.t.5.5.5.5.5.5.5.5.5.5.>.t i 2.2.2.2.t f f t 3 p a a C u f t i p u f ",
"v ~ ~ D M , , v 7 l , M , , y.y.y.y.u.t.t.t.t.t.t.t.t.t.t.t.t.5.5.5.5.5.5.5.5.5.5.5., v , , 2.v , , P i.K D v , , e M l v v e ^ ",
"{ t t h { C { { i { { t f f y.y.y.u.t.t.t.t.t.t.t.t.t.t.t.p.p.p.p.p.p.u.5.5.5.5.5.5.{ } { { i f C { { 5 e f { { f a } } { t h 9 ",
"f p p j i f p a p t Q f u a y.y.u.t.t.t.t.t.5.5.5.t.t.p.p.p.p.p.p.p.p.u.u.u.u.a.5.5.5.t p h j i t t f f t p i u h j i i u a j i ",
"N 8 , v , , 7 z M l 0.v R v v v u.t.t.t.t.5.5.5.p.p.p.p.p.p.p.p.p.p.p.p.p.p.p.a.a.a.a.M D ! v ~ ^ ,.,.K ,.D v 7 , , , ~ e , M z ",
"f p i C f f h h { C Q C h f f f <.t.t.t.5.5.5.5.p.p.p.p.p.p.p.p.p.p.p.p.p.p.p.p.s.s.a.-.h h f f t { t 9 e a C h C f t f p C t f ",
"2 ; p t a 7 0 p : ( ( ( d i a <.t.t.t.5.5.5.5.5.p.p.p.p.p.p.p.d.d.d.d.d.p.p.s.s.s.s.s.s.s.9 0 p 8 9 0 5 7 ; * 8.a i i 7 0 0 5 p ",
"f.s t H w r b 0 s v q.c j q w <.<.t.t.5.5.5.5.p.p.p.p.p.p.p.p.d.d.d.d.d.d.d.d.s.s.s.s.s.s.s.s.7 o.X.r r , e 1 j 9 8 w r r H 8 0 ",
"p *.p i p f i k k p a k | h h &.<.t.t.5.5.p.p.p.p.a.a.d.d.d.d.d.d.d.d.d.d.d.d.d.d.d.s.s.s.s.s.p i i i f t p k  .p a a f a h f p ",
"y e M M z ~ B 7 K b v e y v &.&.<.&.g.t.5.p.p.p.a.a.a.d.d.d.d.d.d.d.d.d.d.d.d.d.d.d.d.s.s.s.s.s.o.K K m v < < < m v z v < < m < ",
"C a } C t f C i } C } i C &.&.&.&.g.t.g.h.p.p.p.a.a.a.d.d.d.d.d.d.d.d.d.d.d.d.d.d.d.d.d.s.s.s.s.s.} t { 7 i i C f f } f i C f f ",
"3 3 0 p 9 9 0 3 p 0 9 3 0 &.&.&.&.g.g.h.h.p.p.p.a.a.d.d.d.d.d.d.d.d.d.d.d.d.d.d.d.d.d.d.d.s.s.s.s.9 0 5 : a 3 0 t p 9 0 0 i p 0 ",
", n z w x r z , 7 z z n z &.&.&.&.g.g.h.h.a.a.a.a.a.d.d.d.d.d.d.d.d.d.d.d.d.d.d.d.d.d.d.d.s.s.s.s.o.~ ,.K e , n l D , r , , D l ",
"C C C u C f f f u f C C C i &.&.&.&.h.h.h.a.a.a.a.a.d.d.d.d.d.d.d.d.d.d.d.d.d.d.d.d.d.d.d.d.s.s.s.f t { 7 i C C C u C C t f u t ",
"9 a i 3 t 0 a a 3 0 9 9 p 3 &.&.&.&.h.h.a.a.a.a.a.a.d.d.d.d.d.d.d.d.d.d.d.d.d.d.d.d.d.d.d.d.s.s.s.9 0 9 0 a 9 p i 3 9 0 p i t 0 ",
"x < z ~ z z e B x b n , 7 n n n z 7 h.j.j.j.j.j.j.j.d.d.d.d.d.d.d.d.d.d.d.d.d.d.d.d.d.d.d.d.s.s.s.i.K M K V , 7 k.k.T l e l , r ",
"C u Z h C C u h C C h h u h h C h u h.j.j.j.j.j.j.j.d.d.d.d.d.d.d.d.d.d.d.d.d.d.d.d.d.d.d.d.s.s.s.f f f 9 p h k u Z u p u u a u ",
"+ 9.s 9 s B e s R X l.z.s 3 0 0 b e h.j.j.j.j.j.j.j.d.d.d.d.d.d.d.d.d.d.d.d.d.d.d.d.d.d.d.d.s.s.,.z.z.z.x.( + c.v.* * v.c.c.+ * ",
"6 p a 7 q 8 4 i p 4 c 9 d 0 9 5 8 4 h.j.j.j.j.j.j.j.d.d.d.d.d.d.d.d.d.d.d.d.d.d.d.d.d.d.d.d.s.s.8 w H 5 : 7 4 6 6 R b.b.b.b.c n.",
"j  .i t a t t k ..a t d k t i s t m.m.m.j.j.j.j.j.j.j.d.d.d.d.d.d.d.d.d.d.d.d.d.d.d.d.d.d.d.s.s.t i h t s i h a t t i t 0 0 0 i ",
"l 1 v , l y , e M.b , < y M , B , < m.m.j.j.j.j.j.j.j.d.d.d.d.d.d.d.d.d.d.d.d.d.d.d.d.d.d.s., n B , D M b , < b M , r , K K K 2 ",
"h u C Z C f Z u C Z C Z Z C h C C h m.m.j.j.j.j.j.j.j.d.d.d.d.d.d.d.d.d.d.d.d.d.d.d.d.d.s.s.h C f h u h h C Z Z C h C C C C t t ",
"e 7 7 a w e 7 7 j 7 w e 7 q a < w m.m.m.j.j.j.j.j.j.j.j.d.d.d.d.d.d.d.d.d.d.d.d.d.d.d.d.a.7 a 7 w 7 7 j 5 w 7 7 q a e e w < < : ",
"c c b 7 o.J H r 7 b c c H b w r H m.m.m.m.j.j.j.j.j.j.j.d.d.d.d.d.d.d.d.d.d.d.d.d.d.d.d.a.J 7 r H 4 o.4 J c r J b 4 n 4 c T K , ",
"C C h A C Z C C A C C C C Z A h h C h u i t 9 h A Z C h C C 9 p 0 { h A Z h h C u Z C C C h A h Z f C A h C h f Z A C Z C C t t ",
"e a 0 7 7 7 a 0 7 7 4 7 j q 7 4 7 p : 7 9 3 w w 7 7 8 8 V w U a s < w 7 5 7 0 i 7 7 7 w i 3 7 7 7 i 3 7 7 7 7 a q 7 7 7 w w e : ",
", e r r r r < r T w b n e T r r r < z z 7 e m P z r r z K v K R < K P z b r b < n r H T < z n r r w b ~ H r n e z r r r M M K , "
};
