/* XPM */
static char *result[] = {
/* columns rows colors chars-per-pixel */
"64 64 207 2 ",
"   c #21211F",
".  c #2C241F",
"X  c #31261F",
"o  c #262320",
"O  c #2A2721",
"+  c #282822",
"@  c #2C2929",
"#  c #312620",
"$  c #3C2C27",
"%  c #3A2C27",
"&  c #3F332A",
"*  c #393138",
"=  c #492F23",
"-  c #493529",
";  c #42392C",
":  c #49372A",
">  c #533526",
",  c #5C3525",
"<  c #5C392B",
"1  c #533828",
"2  c #443634",
"3  c #623928",
"4  c #60372A",
"5  c #723E29",
"6  c #613C31",
"7  c #6B3D32",
"8  c #703F37",
"9  c #74402C",
"0  c #664A38",
"q  c #794F36",
"w  c #774938",
"e  c #69523B",
"r  c #715139",
"t  c #795036",
"y  c #382F46",
"u  c #3D324B",
"i  c #3D3152",
"p  c #4B3C45",
"a  c #45364B",
"s  c #48374C",
"d  c #4A3A4D",
"f  c #47384F",
"g  c #563C4C",
"h  c #433454",
"j  c #4B3755",
"k  c #4C3A54",
"l  c #443459",
"z  c #4D3B59",
"x  c #513D56",
"c  c #523D5A",
"v  c #5D3E50",
"b  c #543D64",
"n  c #563F69",
"m  c #583F69",
"M  c #58414D",
"N  c #5E4353",
"B  c #55425A",
"V  c #5B445C",
"C  c #574057",
"Z  c #654A4A",
"A  c #7C4848",
"S  c #7E554C",
"D  c #74574A",
"F  c #644456",
"G  c #63465C",
"H  c #69475C",
"J  c #674A58",
"K  c #734B5D",
"L  c #794E54",
"P  c #76535D",
"I  c #7A5358",
"U  c #6D505B",
"Y  c #564163",
"T  c #5B4264",
"R  c #574069",
"E  c #5D436A",
"W  c #6E4C64",
"Q  c #61456C",
"!  c #66486E",
"~  c #6A496E",
"^  c #734D62",
"/  c #714C6B",
"(  c #6B546B",
")  c #755361",
"_  c #795763",
"`  c #7D5969",
"'  c #7C5962",
"]  c #634671",
"[  c #6A4A74",
"{  c #6B4A79",
"}  c #724D7D",
"|  c #724E70",
" . c #795F79",
".. c #765773",
"X. c #7D617C",
"o. c #8E4A2E",
"O. c #954B2D",
"+. c #844D32",
"@. c #844B3B",
"#. c #954D30",
"$. c #88563F",
"%. c #A1502F",
"&. c #A35132",
"*. c #B65733",
"=. c #B95933",
"-. c #B55833",
";. c #B2633C",
":. c #C95F36",
">. c #CD6036",
",. c #C16038",
"<. c #CF613A",
"1. c #D56337",
"2. c #DC6638",
"3. c #DD6C3D",
"4. c #D1623D",
"5. c #E06738",
"6. c #E66A3A",
"7. c #EA6C3B",
"8. c #F06C3A",
"9. c #EB723E",
"0. c #8E5949",
"q. c #8A5647",
"w. c #965541",
"e. c #9A5742",
"r. c #995B43",
"t. c #975842",
"y. c #835251",
"u. c #855C54",
"i. c #895B5B",
"p. c #8A5556",
"a. c #925D5E",
"s. c #935856",
"d. c #814A47",
"f. c #AA5642",
"g. c #A15D45",
"h. c #B45C4B",
"j. c #B95E51",
"k. c #8F6947",
"l. c #83614B",
"z. c #8D6545",
"x. c #976745",
"c. c #9E6146",
"v. c #92614B",
"b. c #9E6549",
"n. c #956A4E",
"m. c #9E6849",
"M. c #856153",
"N. c #8A6359",
"B. c #896357",
"V. c #9B6152",
"C. c #986E50",
"Z. c #976555",
"A. c #9A7051",
"S. c #A16443",
"D. c #A26649",
"F. c #A26B4A",
"G. c #AF6A4E",
"H. c #B46D4D",
"J. c #A3744D",
"K. c #AC734B",
"L. c #A4784F",
"P. c #B97147",
"I. c #B2764C",
"U. c #BD7349",
"Y. c #AE6A5A",
"T. c #A96858",
"R. c #B36C52",
"E. c #B66E53",
"W. c #A77950",
"Q. c #A87950",
"!. c #BC7255",
"~. c #BB725A",
"^. c #875967",
"/. c #955B62",
"(. c #9B6269",
"). c #9A6465",
"_. c #846375",
"`. c #A66865",
"'. c #A5706D",
"]. c #CC6E42",
"[. c #D46541",
"{. c #D06F42",
"}. c #C17246",
"|. c #CC7244",
" X c #CE7A4B",
".X c #D17143",
"XX c #D87443",
"oX c #D27C4F",
"OX c #CC7952",
"+X c #C47656",
"@X c #D37D53",
"#X c #E47641",
"$X c #EB7640",
"%X c #E17944",
"&X c #ED7E44",
"*X c #F07F45",
"=X c #DD814E",
"-X c #DE8250",
";X c #EE8046",
":X c #E3844E",
">X c #EC854A",
",X c #ED894D",
"<X c #F08247",
"1X c #F18749",
"2X c #F38C4C",
"3X c #E28550",
"4X c #E88650",
/* pixels */
"X.X.X...( X. . .X.( ..X.X.X.` ).+X3X,X;X$X9.7.#X&X1X2X2X2X2X2X2X2X2X2X2X2X2X2X2X9.3.9.%X1X1X-X~.'._.X.X. .(  .B B B c [ ~ ~ Q x ",
"E n R R T n R R b b R R b Y W a.~.-X2X;X#X7.9.$X;X1X2X2X2X2X2X2X2X2X2X2X2X2X2X1X9.9.9.9.;X1X=X~.N.) R R ! Y c u z b b n m b b z ",
"j f z z k c k s V F F M C G I Z.~.=X1X;X$X7.9.$X;X1X2X2X2X2X2X2X2X2X2X2X2X2X1X;X9.9.3.9.;X1X=XU.Z.I H G F N M p C c k c j f c j ",
"] E { [ ] Q [ W ^.^.(./.).(.`.E.-X>X1X&X$X9.6.#X&X2X2X2X2X2X2X2X2X2X2X2X2X2X1X;X9.9.9.9.;X1X:X=X~.`.(.(.`.a.^.^...[ ] ] Q Q { E ",
"i u l i l l j Z p.V.G.H.G.G.E.OX-X,X,X;X#X9.7.$X;X1X2X2X2X2X2X2X2X2X2X2X2X2X1X;X9.9.9.9.;X1X,X-XOXE.R.R.E.G.r.y.F k l j i u l i ",
"Q E T d Q Q W i.F.OX-X:X=X=X=X:X,X2X1X;X$X7.9.$X;X1X2X2X2X2X2X2X2X2X2X2X2X2X1X;X9.6.9.9.;X,X2X,X4X3X3X3X:X@XOXR.i.N Q Q Q T k E ",
"E E Q E ~ W ^.`.+X:X2X2X2X2X2X2X2X2X1X;X$X7.9.9.&X1X2X2X2X2X2X2X2X2X2X2X2X2X1X;X9.9.9.9.;X1X2X2X2X2X2X2X2X2X:X+XT.' | Q Q Q T E ",
"l l l p F L s.G. X>X2X2X2X2X2X2X2X2X1X;X#X7.7.$X;X1X2X2X2X2X2X2X2X2X2X2X2X2X1X;X9.9.9.9.;X1X2X2X2X2X2X2X2X2X,XoXG.0.L F c l y l ",
"E j V P a.Y.!.=X3X2X2X2X2X2X2X2X2X2X2X&X$X9.9.9.*X1X2X2X2X2X2X2X2X2X2X2X2X2X2X;X9.9.9.9.;X1X2X2X2X2X2X2X2X2X2X:X@X+XY.a.Z V E T ",
"] T / /.Y.OX=X,X,X2X2X2X2X2X2X2X2X2X1X&X$X7.7.$X&X2X2X2X2X2X2X2X2X2X2X2X2X2X1X;X9.9.9.9.;X1X2X2X2X2X2X2X2X2X2X2X,X%XOXY././ ] m ",
"x g Z s.U.=X2X2X2X2X2X2X2X2X2X2X2X1X>X&X#X6.XX#X&X;X1X2X2X2X,X1X1X1X2X2X,X<X>X;XXX3.3.9.;X>X1X2X2X2X2X2X2X2X2X2X2X2X-X!.0.F F x ",
"/.Z.`.E.@X4X2X2X2X2X2X2X2X2X2X2X>X;X&X%XXX{..XXXXX&X&X&X<X&X;X*X;X<X<X2X;X;X;X%XXX3.|.XX3.;X;X1X2X2X2X2X2X2X2X2X2X2X4X@X~.V.Z.'.",
"~.E.!.OX=X,X2X2X2X2X2X2X2X2X2X2X*X$X#XXX|.}.}.|.XX%X$X$X$X$X$X$X9.&X9.9.9.&XXXXX X}.}.3..X%X&X;X2X2X2X2X2X2X2X2X2X2X2X=XOXP.H.R.",
"@X:X:X>X,X2X2X2X2X2X2X2X2X2X1X<X&X$X6.|.}.I.I.}..X#X$X7.7.7.7.7.9.6.6.7.9.9.3.3.}.I.I.U.|.3.9.9.<X2X2X2X2X2X2X2X2X2X2X,X:X:X=X=X",
"2X2X2X2X2X2X2X1X2X2X1X1X2X1X<X*X$X7.3.].P.K.K.U.].3.6.7.7.6.7.6.6.6.7.6.6.6.3.|.P.K.K.P.4.3.9.9.;X;X1X1X1X1X1X1X2X2X2X2X2X2X2X2X",
"2X2X2X2X2X2X2X1X1X<X&X*X*X*X*X$X9.7.6.{.U.K.K.U.{.6.6.7.7.7.7.7.7.7.7.8.8.7.5..XU.I.I.P.|.9.9.9.9.;X;X;X;X;X<X<X,X2X2X2X2X2X2X2X",
"2X2X2X2X2X2X2X1X*X&X$X#X$X$X$X7.8.7.#X].U.K.I.U..X6.7.8.7.7.7.8.8.7.8.8.8.7.6.|.U.K.I.U.|.6.7.7.9.9.&X9.#X$X&X;X>X1X2X2X2X2X2X2X",
"2X2X2X2X2X2X1X;X$X$X7.7.#X7.7.7.7.6.3.].P.K.K.P.].3.6.6.6.7.6.7.6.6.6.6.6.5.XX].P.K.K.P.].3.7.7.9.7.9.7.7.7.9.$X>X1X2X2X2X2X2X2X",
"2X2X2X2X2X1X1X&X$X7.6.6.6.6.6.5.1.>.,.;.S.x.x.S.;.,.:.:.:.:.:.:.:.:.:.>.:.:.:.;.S.x.x.S.;.:.1.1.2.5.6.6.6.6.7.$X&X;X1X1X1X1X2X2X",
"2X2X2X2X>X;X&X$X7.6.6.7.7.6.5.:.=.&.o.+.t r r t +.#.O.O.O.O.O.O.O.O.O.O.O.O.#.+.t r r t q o.#.*.>.5.7.7.7.6.7.7.&X&X&X*X;X;X;X;X",
"2X2X1X1X;X$X$X9.7.6.6.8.8.7.2.=.O.5 , - : ; : : 1 , , , , , , , , , , 4 , , , > : : : : > , 5 O.=.2.7.8.7.6.6.7.9.9.$X9.$X$X$X$X",
"2X2X1X;X&X9.7.6.6.6.6.6.7.6.:.&.5 = # o o + O O O # # # # # # # # X X X X X # O O + + + o # = 5 %.:.6.7.7.6.6.7.9.6.9.7.9.9.6.9.",
"2X1X>X&X$X7.6.6.6.6.6.6.2.:.*.o.3 $ o     o o o o o o o o o o o o o . o o o o o o o o o   o $ 3 O.*.:.2.5.6.6.6.6.6.7.6.6.6.6.6.",
";X;X&X$X9.6.6.6.6.6.2.:.=.&.o.5 < = % % % = $ & $ $ $ % % = $ % $ $ $ % % & $ $ $ $ & % $ $ - < 5 o.&.=.>.2.6.6.6.6.5.6.6.6.6.6.",
"$X$X$X9.7.7.6.6.7.6.1.*.O.5 3 , < 6 6 6 6 6 6 6 6 6 6 6 6 6 6 6 6 6 6 6 6 6 6 6 6 6 6 6 6 6 4 < , 3 5 O.*.1.6.8.6.6.6.6.5.6.6.6.",
"9.9.6.7.7.6.6.7.7.6.:.%.5 = $ = 6 w @.@.@.@.@.@.@.@.@.@.@.@.@.@.@.@.@.@.@.@.@.@.@.@.@.@.@.@.w 6 = $ = 5 %.:.6.7.7.6.6.6.6.6.6.6.",
"6.6.6.6.6.6.6.7.7.6.:.O., X o $ 6 @.w.e.e.t.e.e.w.w.w.w.e.r.w.w.w.w.w.t.w.w.w.w.e.e.w.e.e.w.@.6 $ o # , O.:.6.7.7.6.6.6.6.6.6.6.",
"6.6.6.6.6.6.6.8.8.6.:.O.> .   % 6 @.w.g.S.c.c.r.g.e.e.e.r.r.S.S.g.c.S.r.e.e.e.e.r.c.c.g.g.e.@.6 % o . > O.:.6.8.7.7.6.6.6.6.6.6.",
"6.6.6.6.6.6.6.7.7.7.:.O., .   % 6 @.e.g.D.D.m.c.e.e.e.r.D.F.F.F.F.F.m.r.r.e.e.g.b.D.F.D.g.w.@.6 %   O , O.:.6.7.8.5.6.6.6.6.6.6.",
"6.6.6.6.6.6.6.8.7.6.:.O., . o $ 6 @.e.c.F.F.F.m.r.e.e.r.b.m.J.J.J.J.F.m.r.e.r.r.b.m.F.D.S.w.@.6 % o O , O.:.6.7.7.8.6.6.6.6.6.6.",
"6.6.6.6.6.6.6.7.7.6.:.O., X o $ 6 @.e.D.F.F.J.m.r.r.e.r.m.J.J.J.J.J.J.m.c.t.e.r.m.J.F.F.D.r.@.6 = o X , O.:.6.8.7.6.6.6.6.6.6.6.",
"6.6.6.5.6.6.6.7.7.7.:.O., # o ; 0 $.c.F.J.J.F.m.r.r.e.c.m.J.J.L.W.J.J.m.r.e.e.c.m.J.J.J.F.c.q.0 % o X , O.:.6.7.8.6.6.6.6.6.5.8.",
"6.6.6.6.6.6.6.7.7.6.>.O.< X + & 0 q.m.J.L.J.J.m.c.t.t.r.m.J.J.L.L.J.J.m.r.t.t.r.m.J.J.L.F.F.z.0 & o # , O.>.6.7.7.7.6.6.6.6.6.6.",
"6.6.6.6.6.6.6.8.7.6.>.O., + + ; e z.J.K.L.J.F.m.r.t.t.c.m.J.J.L.L.L.J.m.c.t.t.c.m.F.J.L.L.J.z.e & + X , O.,.6.7.8.6.6.6.6.6.6.6.",
"6.6.6.6.6.6.7.7.7.6.,.O., X + ; e z.L.Q.Q.L.F.m.v.e.t.r.m.J.J.L.L.L.J.m.r.t.t.r.m.J.L.W.K.J.k.e ; + X , O.>.6.8.7.6.6.6.6.6.6.6.",
"6.6.6.6.6.6.6.7.7.6.>.O., X + ; e k.J.Q.Q.J.J.m.c.e.t.c.m.m.J.L.J.J.m.m.c.t.t.c.m.F.L.Q.Q.J.k.e ; O X , O.>.6.7.8.6.6.6.6.6.6.6.",
"6.6.6.6.6.6.7.7.7.6.>.O., X . ; e k.L.L.L.L.F.m.r.r.e.r.m.J.J.L.L.J.J.m.r.t.e.c.m.J.J.Q.W.J.k.e & + X , O.>.6.7.8.6.6.6.6.6.6.6.",
"6.6.6.6.6.6.6.8.7.7.,.O., X + & e k.L.Q.Q.J.J.b.c.$.e.c.m.F.J.J.L.L.m.b.v.e.t.r.m.m.L.L.W.L.k.e ; + X , O.>.7.7.8.6.6.6.6.6.6.6.",
"6.6.6.6.6.6.7.8.7.6.>.O., X + ; e k.L.L.L.L.J.m.c.t.t.c.m.J.J.L.L.J.J.x.c.t.t.c.m.J.J.W.W.L.k.e ; + O < O.:.5.7.7.6.6.6.6.6.6.6.",
"6.6.6.6.6.6.6.7.7.5.>.O.< X + ; e k.J.Q.L.J.J.m.r.t.t.r.b.J.L.L.W.J.J.m.r.t.t.r.b.J.L.W.W.J.k.e ; + # < O.:.6.7.8.6.6.6.6.6.6.6.",
"6.6.6.6.6.6.6.8.7.7.:.O., X + ; e z.L.L.Q.J.J.b.c.t.t.c.m.J.J.L.L.W.J.m.c.t.t.c.m.m.W.W.W.J.k.e & . X , O.:.7.7.7.6.7.5.7.6.6.6.",
"6.6.6.6.6.6.6.8.7.6.:.O., X + ; e k.J.Q.Q.L.J.m.c.0.t.r.m.m.L.L.J.J.m.m.r.t.t.r.m.J.J.W.W.L.k.e & . X , O.:.6.7.8.6.7.5.5.7.6.6.",
"6.6.6.6.6.6.6.8.7.6.,.O., X . ; e k.L.Q.L.J.F.m.v.&.e.r.m.J.J.L.J.J.J.m.c.t.t.c.m.J.J.W.Q.L.k.e ; + X , O.:.6.7.7.7.5.7.6.6.6.6.",
"6.6.6.6.6.6.6.6.7.6.>.O., X . & e k.L.L.Q.J.J.m.c.e.t.r.m.J.J.A.W.J.J.m.r.t.t.r.m.J.J.W.Q.A.k.e ; + X , O.:.6.7.8.5.7.5.6.6.6.6.",
"6.6.6.6.6.6.6.8.8.6.>.O.< X + ; e k.J.Q.Q.J.J.D.r.t.t.r.b.J.J.L.A.L.m.m.c.t.r.v.m.m.L.W.W.J.k.e ; + O < O.:.5.8.8.6.6.6.6.6.6.6.",
"6.6.6.6.6.6.6.8.7.6.>.O., O + ; e k.J.Q.L.L.J.m.c.t.t.x.m.J.J.L.L.L.J.m.r.t.&.v.m.J.J.W.W.J.k.e ; + X < O.:.7.8.6.6.6.6.6.6.6.6.",
"6.6.6.6.6.6.6.8.7.6.>.O., X + ; e k.J.Q.L.J.F.m.r.t.t.r.m.J.J.L.L.J.J.m.c.t.t.r.m.m.W.W.W.J.k.e ; . X , O.:.5.8.8.6.6.6.6.5.6.6.",
"6.8.6.6.6.6.6.8.8.6.>.O., X + & e k.J.Q.Q.J.J.m.c.t.t.c.m.m.J.L.L.J.J.b.r.t.t.c.m.J.J.W.W.L.k.e ; . X , O.:.8.8.8.6.6.8.6.8.6.6.",
"6.5.8.5.6.6.7.7.8.7.>.O., X + ; e k.W.W.W.J.m.m.c.t.t.c.m.J.J.L.W.J.m.m.c.e.e.c.b.J.L.W.W.J.k.e ; + . < O.1.6.8.7.7.6.6.6.7.6.7.",
"6.6.5.8.6.9.6.7.7.6.>.#., X + ; e k.J.W.W.J.J.m.r.t.t.r.b.J.J.J.L.J.J.m.r.t.t.r.m.F.L.W.W.J.k.e ; + X , O.>.6.7.7.7.6.6.6.6.6.6.",
"3.3.5.5.%X3.3.3.9.3.;.#.1 X + ; e k.J.Q.W.J.J.m.v.t.t.c.m.C.J.L.L.J.J.m.v.&.t.v.m.J.L.W.W.J.k.e ; + X 1 o.;.3.3.6.3.3.3.3.3.3.3.",
"4.|.4.4.,.U.3.3.3.,.;.+.1 X + ; e k.J.Q.W.L.J.b.r.t.t.r.m.J.J.W.W.J.J.m.c.0.t.r.m.m.J.W.L.L.k.e ; . X 1 +.;.|.3.3.}.4.|.,. X4.<.",
"I.I.;.U.U.U.U.U.U.P.S.t : . + ; e x.J.Q.W.L.J.m.c.e.t.r.m.J.J.W.A.J.J.m.c.t.t.c.m.J.J.L.W.L.k.e ; + . : t S.I.}.U.P.P.P.I.I.P.P.",
"K.I.K.K.K.K.I.I.I.K.x.r : . + ; e k.J.W.W.L.m.m.r.t.t.c.x.J.J.W.L.L.J.m.r.t.t.r.m.J.L.L.W.J.k.e ; + X ; r x.I.I.I.K.K.K.I.I.K.I.",
"K.I.I.I.K.I.I.I.I.K.k.r : + + ; e k.L.Q.W.L.F.m.c.t.t.r.m.F.J.J.L.J.F.m.c.t.t.c.m.F.L.K.W.J.k.e ; + + ; r k.L.I.I.K.I.I.K.K.K.K.",
"I.;.U.I.I.;.U.I.U.P.;.t : + + ; e z.J.Q.L.J.J.m.r.t.t.c.b.J.L.L.L.J.J.m.r.t.t.r.m.J.J.W.W.J.k.e ; . + : t ;.P.U.U.P.U.I.;.P.P.P.",
"].].].].].].].{.3.}.;.o.1 . + ; e k.L.Q.L.L.F.m.r.e.r.r.x.J.L.L.J.J.J.m.r.t.t.r.m.J.J.W.W.J.k.e ; @ O 1 q -.].{.3.4.3.,. X,.=X,.",
"3.3.3.3.3.7.[.6.9.3.;.#., X + & e k.L.L.Q.L.J.D.r.t.r.r.m.A.L.L.L.L.J.m.r.t.t.c.m.F.J.W.W.J.k.e ; o # > #.:.3.7.3.XX3.3.3.3.3.3.",
"6.6.6.6.6.6.6.6.9.6.>.#.< % @ ; Z l.n.A.C.C.n.v.0.0.q.t.v.n.A.A.C.C.n.v.0.q.q.0.v.n.C.A.A.n.l.e 2 @ % 4 #.>.6.7.9.6.6.6.6.6.9.6.",
"7.5.6.7.6.7.6.8.6.6.>.&.w 2 @ M Z D B.M.B.l.B.u.S A y.y.u.u.N.S M.N.u.S d.y.y.y.S u.N.N.N.B.D Z p * 2 7 &.<.6.8.9.6.6.6.6.6.9.6.",
"6.6.6.6.7.6.7.8.6.6.4.f.A v s c V P _ P _ P ^.K ^ K ^ K ) ^.^.P ' ` ) L ^ K K K P ) ) ' _ _ H H c j N A f.4.6.7.6.6.8.6.6.6.6.6.",
"6.6.6.6.6.6.6.6.6.7.:.f.A s y i h z z p C B T z s s j k x x B C V V z s k j k c s k c x c x a s i i g w f.4.6.6.6.6.6.6.6.6.6.6.",
"6.6.6.6.6.6.6.6.6.6.[.h.d.H T T T f T T B c T E T m T E Q Q Q d x Q Q m m m c x T T m Q k c T m m j F p.f.2.6.6.6.6.6.6.6.6.6.6.",
"6.6.6.6.6.6.6.6.6.6.[.j.s.| ] ] Q E ] ] E T } } ~ Q ] ] } [ } T Q [ { ~ Q Q Q Q [ Q E ] Q Q ] ] ] E / /.H.1.7.6.6.6.6.6.6.6.6.6."
};
