/* XPM */
static char *result[] = {
/* columns rows colors chars-per-pixel */
"64 64 227 2 ",
"   c #391F18",
".  c #2E2617",
"X  c #322319",
"o  c #3A241A",
"O  c #342B1A",
"+  c #3C2B1E",
"@  c #302317",
"#  c #2B381A",
"$  c #393B1B",
"%  c #3D2E21",
"&  c #2E3B29",
"*  c #343E2D",
"=  c #373829",
"-  c #382D3A",
";  c #363A34",
":  c #3A3F34",
">  c #36333C",
",  c #3B3B3C",
"<  c #363639",
"1  c #2E3531",
"2  c #433B1F",
"3  c #432A1D",
"4  c #442D20",
"5  c #433222",
"6  c #493A25",
"7  c #5A362D",
"8  c #563427",
"9  c #432C38",
"0  c #49323A",
"q  c #553639",
"w  c #532F26",
"e  c #653D33",
"r  c #613827",
"t  c #2C4516",
"y  c #2D431B",
"u  c #2F4817",
"i  c #32461C",
"p  c #344C1A",
"a  c #39461B",
"s  c #37511A",
"d  c #3B541C",
"f  c #3E591D",
"g  c #2F4023",
"h  c #344523",
"j  c #374923",
"k  c #36432A",
"l  c #3A452D",
"z  c #3E4B2B",
"x  c #394C24",
"c  c #3D5323",
"v  c #3F5129",
"b  c #3C4433",
"n  c #3D4138",
"m  c #43471E",
"M  c #425C1F",
"N  c #47581E",
"B  c #544C1D",
"V  c #6A461D",
"C  c #444B23",
"Z  c #53422B",
"A  c #5B492E",
"S  c #415523",
"D  c #445C22",
"F  c #4B5E22",
"G  c #43512B",
"H  c #4A592B",
"J  c #525C2C",
"K  c #434B34",
"L  c #43423C",
"P  c #464A3C",
"I  c #494D3B",
"U  c #5F4938",
"Y  c #4A5334",
"T  c #6D432F",
"R  c #664435",
"E  c #7A4C34",
"W  c #764834",
"Q  c #6A5937",
"!  c #7C563A",
"~  c #655822",
"^  c #466121",
"/  c #4B6422",
"(  c #4E6923",
")  c #4C622A",
"_  c #536D25",
"`  c #5C6C2E",
"'  c #566727",
"]  c #557127",
"[  c #597427",
"{  c #567328",
"}  c #5B7529",
"|  c #5D7A2A",
" . c #5F6A31",
".. c #626C2A",
"X. c #62752C",
"o. c #627D2B",
"O. c #697D2C",
"+. c #6A7930",
"@. c #6E6939",
"#. c #332F44",
"$. c #392F47",
"%. c #362F49",
"&. c #392F4C",
"*. c #353243",
"=. c #3B3345",
"-. c #3E3A44",
";. c #3D324C",
":. c #363049",
">. c #382F50",
",. c #3E3152",
"<. c #433E44",
"1. c #42354D",
"2. c #433B4B",
"3. c #493A4E",
"4. c #473444",
"5. c #583943",
"6. c #433454",
"7. c #483757",
"8. c #473852",
"9. c #4B3A54",
"0. c #45355A",
"q. c #49375C",
"w. c #473859",
"e. c #4C3A5B",
"r. c #523D55",
"t. c #523D5D",
"y. c #583D57",
"u. c #613B45",
"i. c #4A3760",
"p. c #4D3A61",
"a. c #533D63",
"s. c #573F68",
"d. c #583F69",
"f. c #4A414D",
"g. c #494544",
"h. c #514A4D",
"j. c #4E4454",
"k. c #524455",
"l. c #55425C",
"z. c #59425D",
"x. c #574958",
"c. c #5C5157",
"v. c #65455A",
"b. c #634C51",
"n. c #717248",
"m. c #574163",
"M. c #5C4364",
"N. c #5B4A63",
"B. c #5D426B",
"V. c #574069",
"C. c #604566",
"Z. c #62466C",
"A. c #65496D",
"S. c #66496C",
"D. c #66526A",
"F. c #6B546B",
"G. c #695469",
"H. c #644671",
"J. c #674872",
"K. c #6A4A75",
"L. c #6E4C79",
"P. c #714D7B",
"I. c #6E5376",
"U. c #735A73",
"Y. c #795F79",
"T. c #73557B",
"R. c #7D617C",
"E. c #87381D",
"W. c #825339",
"Q. c #875B3C",
"!. c #8A5626",
"~. c #A14323",
"^. c #9C662C",
"/. c #925E41",
"(. c #9B6A46",
"). c #9D7545",
"_. c #A5774C",
"`. c #AE7D50",
"'. c #B17F52",
"]. c #65832D",
"[. c #6A852E",
"{. c #6C892F",
"}. c #6D8A30",
"|. c #748531",
" X c #718D31",
".X c #7A8C32",
"XX c #759233",
"oX c #7B9434",
"OX c #7D9A36",
"+X c #7A953B",
"@X c #72842E",
"#X c #6E834C",
"$X c #818C34",
"%X c #829B37",
"&X c #839E38",
"*X c #8B9D38",
"=X c #869636",
"-X c #968C35",
";X c #86A139",
":X c #8CA43A",
">X c #8EA83C",
",X c #92A53B",
"<X c #94AA3D",
"1X c #9AAD3E",
"2X c #9DB03F",
"3X c #A1AF3F",
"4X c #B88955",
"5X c #B48B51",
"6X c #9EB240",
"7X c #89A341",
"8X c #A3B341",
"9X c #A8B742",
"0X c #AAB943",
"qX c #B3BE45",
"wX c #A2B557",
"eX c #99AD5F",
"rX c #C3955A",
"tX c #CFA45F",
"yX c #B5C146",
"uX c #BAC447",
"iX c #BDC648",
"pX c #BFC849",
"aX c #B1C174",
"sX c #765080",
"dX c #AAB58D",
"fX c #B8C588",
"gX c #C9D297",
/* pixels */
"R.R.R.U.F.(.sXsXsXD.U.R.Y.sXU.U.R.Y.Y.R.G.x.R.c.h.b P g.P P P L P P P h.c.Y.Y.Y.Y.U.D.R.Y.R.Y.G.R.Y.Y.Y.Y.G.Y.l.l.z.y.J.A.Z.Z.r.",
"B.s.s.V.d.d.sXi.V.m.m.V.V.V.m.N.s.B.s.B.M.l.l.g.z p x x j j j i j j h k g.l.V.V.s.m.l.V.s.s.V.M.s.M.V.V.A.m.t.*.e.a.a.s.B.s.s.9.",
"7.1.t.e.r.e.7.1.j.w.w.,.,.m.j.w.p.t.t.a.3., L Y ' ] ] _ ] ' ( / / / D f l <.8.;.t.e.7.7.;.t.e.9.e.a.a.t.l.3.1.4.r.t.7.a.8.8.t.8.",
"A.B.L.J.H.H.J.C.sXV.I.B.H.K.K.B.K.P.L.J.l.L G X.oX*X=X%X%XoXXX X X[.].] D l h.l.J.Z.J.J.B.K.J.J.J.L.L.L.K.M.Z.Z.K.K.Z.J.Z.Z.K.B.",
"6.&.0.6.0.0.6.&.,.0.0.;.,.,.0.q.0.0.6.1.L G _ .X1X9X1X1X1X<X>X:X;XOXXX].( S l < ;.,.0.6.&.0.6.0.0.0.0.0.t.6.;.,.6.6.0.0.6.&.0.6.",
"C.C.M.8.C.B.M.d.9.M.B.B.N.m.9.B.B.B.z.P G } =X8XqX0X6X1X1X1X<X>X;XOXOXXX].{ D l : l.B.B.C.M.8.M.C.B.Z.J.M.t.Z.M.d.9.Z.d.M.M.8.B.",
"Z.B.B.M.H.d.H.H.M.B.B.Z.B.B.B.H.V.j.h.Y _ .X8XyXuXqX9X8X1X1X<X,X;X;XOXOX}.| / c K g.l.d.Z.B.d.Z.B.d.J.L.K.m.B.B.Z.d.H.d.d.Z.M.Z.",
"0.0.,.&.6.,.0.0.:.0.0.0.0.,.;.,.;.; z X.$X6XqXiXuXuXqX9X1X1X<X<X;XOXOXOXXX].| ] S k *.,.0.6.$.0.6.0.0.0.t.6.0.0.6.$.0.6.q.6.$.0.",
"C.9.a.C.M.B.9.y.M.M.B.M.8.M.z.l.g.H ' .X8XqXiXpXiXiXuX3X2X<X>X>X;XOXOXXX{.].].{ ^ u b l.9.t.M.M.M.B.Z.Z.M.r.C.8.a.M.B.M.8.a.C.C.",
"H.d.C.d.B.Z.d.d.H.B.B.Z.M.B.j.0 G X.=X6XqXiXiXiXiXuX3X2X2X>X>X>X;XOX X{.].].| _ f u n l.M.B.Z.B.B.L.L.J.P.d.H.M.Z.C.Z.B.d.C.Z.d.",
"6.&.1.6.6.6.&.1.0.,.6.6.=.:.n z ' $X3XqXiXuXyXyXyX3X2X1X>X>XOXOXOXXX}.].].[ _ M p t ; -.;.;.,.,.0.0.8.e.e.1.w.*.,.6.6.6.=.;.w.0.",
"K.A.K.C.a.K.A.A.J.l.M.J.x.g.Y } oX1XyXiXuXqX9X9X0X3X1X>X:X;XOXOX X}.].].[ _ M p t y g.F.N.r.Z.l.J.J.S.J.J.S.Y.z.a.M.m.K.A.9.S.Y.",
"p.q.i.q.7.p.a.a.q.8.w.e.-.g / oX3XyXpXiXuX3X2X<X2X<X<X>XOXOXOXXX}.].].| { ( M f d c K 2.> 1.e.e.p.a.e.p.d.9.8.- 6.t.e.e.a.1.=.t.",
"t.9.C.d.t.d.t.8.B.t.m.3.-.h ( *XyXpXiXqX0X2X2X,X:X;X:X;XOXOXXX X].].| { { { o.].@X X .K < k.M.l.d.M.M.B.m.r.3.3.M.a.t.d.9.3.y.t.",
"Z.B.H.Z.B.Z.Z.B.J.d.H.m.3.b ' =XqXyXqX1X,X>X:X;XOXOXOXOXOXXX].].].| { ( ].].oX>X8X8X.XJ K l.B.B.d.H.K.K.K.d.d.Z.J.Z.B.H.B.B.J.d.",
"&.&.6.,.6.0.,.$.,.6.0.=.=., K  .$X1X1XXX| ].{. X X X XXX X X].].{ { { ].].XXOX>X6X9X,XO.J l < ;.w.6.6.0.t.&.1.&.,.,.0.0.;.&.,.0.",
"K.J.Z.y.A.A.A.A.r.S.J.J.C.k.P G [ .X$X..N N ..].].{.].].].].].{ ] ] [ ].{.+X%X;X>X,X*XoXX.G : l.J.J.K.K.J.m.K.Z.Z.r.J.J.J.S.r.Z.",
"s.s.d.a.d.s.d.d.a.d.d.s.l.3.P J ] } ..V V ~ o.[.{.].].].].].].] ( ( ] | {.XXOXOX.X[.+.O.` K <.l.a.s.d.K.J.m.M.s.M.m.d.a.d.B.a.d.",
"6.6.,.$.6.6.6.6.*.6.6.6., k / |.|._ B E.~.^..XOXOXXX].].].| ] ( ( ( ( { | {.XX X} M p s l , *.6.6.6.0.0.e.1.0.6.,.*.6.0.6.1.$.0.",
"H.y.C.Z.Z.Z.t.C.A.Z.M.h.K  ..X,X,XO...!.^.-X*X:X;XOXXX{.].| ( ( ( / ( ( { [ | ] / s t y k k.A.Z.Z.L.K.J.Z.l.J.9.Z.Z.Z.Z.r.C.K.C.",
"s.t.s.s.s.s.a.a.B.p.2.b J =X8XqX3X%X|.$X-X-X<X<X>X;XOX X].] ( ( ( ( ( ( _ ( ^ f f f p y * 9.s.d.s.H.H.Z.K.a.V.t.a.d.d.d.a.a.d.a.",
"0.1.6.1.6.6.1.6.w.;.1 j ..8XpXiX9X>X;XOX%X,X2X<X>X;XOX X].].] ( ( ( ( ( ( / f s s D c l ; *.6.;.w.0.0.7.r.1.l.*.1.;.6.w.1.6.w.&.",
"L.J.L.S.C.L.J.K.K.l.0 l [ 3XqX0X1X:XOX>X<X<X<X>XOXOX{.].].].] ( ( ( ( ( ( / ^ f d p P c.k.j.A.M.L.K.K.K.K.S.T.l.d.Z.C.K.K.J.K.y.",
"0.6.0.6.6.0.7.0.0.;., : ' $X,X,X;XOX7X6XaXwX<X:XOX X].].].] ( ( ( ( ( / ^ M M f p t ; -.- =.0.8.0.7.q.q.t.8.1.- ;.8.0.q.w.0.0.1.",
"a.y.J.Z.C.Z.M.t.A.d.C.<.I ' } {. X X7XfXgXfX7X;XOXXX].| [ ] ( ( ( ( ( ^ M s u u t y , k.9.S.Z.B.C.K.J.J.Z.z.t.y.Z.S.C.Z.y.y.Z.M.",
"M.s.d.s.a.s.d.y.B.a.d.y.9.K G ( ] { #XdXdXeX#X;XOXXX].| ] ( ( ( ( / ^ M s s s f d c K f.9.B.s.M.s.B.Z.Z.Z.t.s.s.d.s.d.d.d.d.B.a.",
"6.1.6.&.0.0.1.1.&.6.0.1.=.*.k c d f D n.#X#X]. XXXXX{.].[ ] ( ( ( ^ f s M ( ] [ | } H l ; ;.;.6.0.0.8.w.e.1.;.1.6.&.w.0.1.;.,.6.",
"K.K.K.y.L.K.H.K.z.J.K.K.J.B.g.l u s d c D / [ {.XX X].].].[ ( ^ ^ M s d _ ].oXOX&XoX| D K l.l.K.J.K.L.P.L.M.K.K.J.z.P.J.K.J.z.J.",
"p.a.a.w.a.p.p.a.t.a.a.a.p.a.4.& d | |.@X].].{.{. X{.].].] ^ f s s d M ] {.%X:X,X>X:XXXo.) b -.e.p.a.a.d.Z.t.a.a.a.e.a.p.a.a.w.a.",
"6.6.,.4.6.0.6.6.$.6.6.6.6.&.1 & F XX3X1X;X=XXX{.].].].] ( f s t u d ( ].OX>X<X1X1X1X>XoX| S h 0 6.6.w.0.w.1.6.,.6.$.6.6.6.6.=.6.",
"L.d.S.L.H.K.d.A.P.J.K.K.y.J.k.k M .X8X2X:X%XXX{.].] ( M d s s s s M ] {.*X1X1X2X3X0X3X:X+X| ) I h.S.P.P.L.M.P.y.J.J.K.J.y.H.P.Z.",
"e.7.7.e.p.e.9.7.t.q.e.a.w.q.2.* S o.OXOXoX{.].].| ^ s t t s ^ ( ( _ [ {.=X>X<X2X9XyX0X1X:X+X} c * 1.t.a.C.8.p.0.i.p.a.p.q.e.a.p.",
"9.8.8.4.$.9.3.3.9., 1.9.3.9.- ; z / ] ] _ ( / / ^ f s s s f ( | ].| ].].XX;X:X1X3X0X3X2X<X;X| f g , 2.9.3.f.N.l.N.l.l.N.k.N.N.e.",
"K.H.L.Z.C.K.K.J.J.M.Z.J.J.J.C.M.k.K x j s p u t s f M ^ ( ] | ].XX X X].]. X%X<X2X2X2X2X<XOX].f l j.Z.J.L.C.T.T.I.I.I.T.T.I.I.D.",
"6.6.6.1.1.6.0.6.6.1.1.6.6.0.1.6.;., & & & # t t s M ] [ | ].{.XXOX;XXX].[ [ }.:X<X2X<X>X:X;X{./ c b -.6.9.1.6.6.0.6.1.0.8.6.6.;.",
"C.y.L.K.J.J.A.y.K.C.K.m.C.K.K.Z.A.l.j.N.f.k y s M _ | {. XXXOXOX:X>X;X{.( M | oX>X<X>X;XOXOXXX].) S L x.S.M.M.M.J.K.Z.J.M.M.K.B.",
"p.e.s.p.a.p.p.e.s.i.a.p.e.p.p.p.m.e.p.s.2.b y f _ ].{.XX;X;X;X:X>X:XOX[./ d ^ ].oX;X:X;XOXOXXX{.] d g f.V.e.e.p.s.p.a.a.e.t.a.i.",
"8.8.0.&.e.7.9.6.&.8.7.6.8.6.6.e.q.8.1.;.1.; y ^ [ {.XX;X>X<X<X>X:XOXXX]._ ^ d ^ | oX;XOXXX}.].].] d g -.9.1.8.8.6.&.q.e.7.1.;.w.",
"K.K.K.C.L.H.K.L.M.J.K.P.K.J.C.P.H.L.J.M.l.b u ( ].oX;X:X<X2X<X:XOXXX{.].] / d d / ].XXOXOX}.{.].] c h x.I.M.K.J.J.C.L.J.K.K.M.K.",
"i.p.e.6.p.i.e.p.6.p.p.e.p.e.6.p.q.p.p.8.,.b p (  X;X>X<X<X<X:XOX X{.].o.[ ( M M f ^ | XXOXXXXX].] s g f.l.e.p.p.e.0.p.0.a.p.6.p.",
"7.6.8.1.8.0.6.6.2.0.e.e.=.0.1.w.w.;.0.2.1.: h ) ].oX*X*X*X*XOXoX{.].].[ ] ( ( ^ d u (  X;XOXXX{.] d g -.9.1.w.;.6.1.8.w.1.8.4.w.",
"P.C.A.K.K.K.C.A.L.J.J.L.M.K.K.K.J.M.J.L.C.z.c.Y ) ] o.].].[.].{.].].[ ] ( ( ( / s u / {.OX;XOX{.{ d k h.K.C.P.M.K.K.K.K.d.K.P.J.",
"0.6.6.0.q.w.6.6.p.0.e.0.1.0.w.e.q.6.0.e.6.t.r.: p f ( [ ] [ ].].].| ] _ ( ( ^ M d M [ XX;X%X}.].( c * 1.z.7.0.6.0.0.e.0.6.0.q.0.",
"D.r.1.t.8.d.y.1.l.D.D.D.3.9.8.e.M.t.l.a.4.0 q = t f _ [ [ [ [ [ { { _ ( ( ( M M / o..X;X:X%X{._ S b g.t.z.k.G.f.9.9.9.d.y.t.a.8.",
"A.7.t.B.M.H.H.t.8.K.L.C.3.a.C.B.H.H.H.B.3.e 7 5 $ N _ | [ ' ( N ^ ^ N / F M p s [ *X2X2X>X;XO.M l f.B.Z.J.Z.C.8.t.B.B.H.H.B.B.a.",
"4.- 1.6.1.w.8.$.4.1.0.*.- 6.6.6.0.6.1.4.q e T 7 2 m m m m m m a $ a $ a a $ # s O.3X3X3X<X:X].M g -.w.q.e.4.=.> 6.8.1.0.6.1.8.1.",
"Z.B.L.L.H.K.A.C.P.Z.L.C.A.L.K.Z.K.C.y.u.e E W.T 8 3 O O O O X X . . . @ @ . . p O.3X3X3X2X<X}.M k x.L.P.L.C.Z.Z.L.K.J.K.Z.C.P.Z.",
"0.0.i.q.q.e.0.6.i.q.7.0.0.e.q.0.6.4.q e T E E 7 4 6 Z Z 6 Z 6 6 5 + + o o O # u _ $X1X1X2X<X.XM k =.e.p.d.8.6.0.e.q.i.e.0.0.i.0.",
"l.t.e.1.a.a.t.7.1.t.s.t.t.e.1.7.3.q e E W.E r 3 3 6 @.! Q Q Q A 8 6 5 4 4 + O i S [ .X,X6X7X}.D * -.m.a.m.8.l.t.e.1.a.t.t.8.1.t.",
"J.J.J.M.K.H.H.K.C.H.J.J.Z.B.r.y.5.R E /./.E w     Z @.n.Q Q Q Q Z 5 4 + + % = * j D |.,X<X.X` v <.l.J.T.P.M.J.J.J.C.K.H.J.K.C.H.",
"0.q.0.;.0.0.q.q.&.0.q.0.0.,.9 0 e W.(.`.(.E w   X 6 Q Q A Z A 8 % . @ @ X X - > * p O.,X*X' j < ;.6.i.p.m.8.i.0.0.;.0.0.q.q.&.p.",
"a.2.7.r.t.t.8.8.y.t.a.e.4.4.q e W.(.5X4X`.W.w   @ 6 Q R 5 2 = m C $ 2 $ $ = = 1 ; * ..|.+.G n :.0.t.t.a.t.8.p.2.9.r.a.t.1.8.t.t.",
"L.B.J.J.J.H.C.J.K.B.K.Z.r.q R /.).5X4XrX5XQ.w   @ 5 Z 6 + . $ a F ) ' ' _ ) S l , g.P H G g.f.p.s.L.P.L.sXM.L.M.H.K.J.J.B.J.K.H.",
"0.=.,.0.0.0.&.1.q.6.6.4.q e ! (.4X4XrX4X_.! 7 % . + 5 2 $ $ i s / [ ].[.}.| M y 1 :.> * & *.>.>.,.6.w.w.m.2.;.;.;.;.1.1.=.1.8.&.",
"U.l.9.l.9.Z.C.9.M.I.v.b.e Q.(.`.rXtXrX).W 5.4.= # O O 2 S / M M f / o.oXOX{./ h n j.f.j.f.N.m.l.N.N.D.I.D.G.U.F.U.D.D.U.F.F.U.D.",
"d.1.8.M.a.d.d.e.4.y.5.7 T Q.(._.5X5X5X! q 0 g.K C m m J X.X._ s u f | %X;XOXo.) K -.-.w.q.i.w.j.q.e.p.p.e.m.B.V.V.M.B.B.B.B.B.B.",
"4., 9.e.9.e.7.9 0 q w w r e W E W.Q.! R 9 = l X..X$X|.|. X].^ u t d | ;X>X>X:X$X` l < :.&.6.,.;.6.&.&.w.8.9.6.8.p.9.7.e.t.e.a.9.",
"J.Z.L.J.J.J.J.M.y.q 7 w 7 7 r 7 7 7 q k.1., K +.*X,X=XoX}.{ c g y c }  X+X*X,X*X+.l -.f.e.m.p.l.t.a.t.H.B.K.S.Z.L.L.J.J.P.P.L.J.",
",.,.0.6.0.0.6.1.3.4.q 9 9 9 9 4.9 9 - ;.*.-.b ) ..O.| { _ G b 1 ; b S ( ] [ O.X.J n *.*.:.;.&.,.,.&.$.6.6.0.6.&.,.6.0.q.0.0.e.9.",
"M.M.M.8.M.B.M.a.3.y.a.y.7.1.1.0.7.9.8.;.w.;.9.n h i i i y b f.-.;.f.b y i i a h b -.w.e.e.w.;.w.e.e.t.3.a.d.B.B.V.8.B.M.B.Z.Z.z.",
"H.B.Z.M.J.d.H.H.M.Z.B.d.a.p.7.a.e.e.p.w.e.e.s.-., ; , ; n f.l.e.p.l.-.; , ; ; , -.e.p.p.e.p.9.p.e.s.B.m.Z.Z.H.d.H.M.J.d.Z.J.P.J.",
"0.0.0.$.6.6.0.0.$.6.0.0.6.>.%.>.>.>.:.:.;.,.6.:.$.#.#.:.:.:.,.:.6.,.&.> #.$.$.&.*.:.,.>.,.>.*.;.>.,.0.$.6.6.6.0.6.$.0.6.0.0.e.e.",
"B.8.t.a.d.m.8.t.M.d.d.M.8.8.8.w.w.;.8.w.8.6.e.e.e.e.e.e.e.e.e.;.;.j.e.e.e.e.6.,.w.w.w.e.;.6.7.7.e.7.e.M.d.d.d.8.t.m.d.m.B.B.C.t.",
"J.C.H.J.H.H.C.J.J.B.Z.J.a.a.p.t.l.e.p.l.w.e.m.V.a.e.p.e.m.m.B.e.e.V.V.p.e.p.e.e.m.p.e.p.l.e.a.e.a.M.Z.J.Z.Z.J.C.J.J.H.Z.P.L.P.K."
};
