/* XPM */
static char *result[] = {
/* columns rows colors chars-per-pixel */
"64 64 232 2 ",
"   c #1C1B24",
".  c #1F1E28",
"X  c #231E25",
"o  c #211F2A",
"O  c #221F33",
"+  c #1F2126",
"@  c #222226",
"#  c #24232C",
"$  c #2A252B",
"%  c #26292B",
"&  c #2C2A2D",
"*  c #2A2225",
"=  c #352A2B",
"-  c #3B2B2B",
";  c #332728",
":  c #2D332E",
">  c #3E312C",
",  c #242234",
"<  c #2A2533",
"1  c #262933",
"2  c #2B2A33",
"3  c #26253A",
"4  c #2B263A",
"5  c #252A3B",
"6  c #2C2B3C",
"7  c #332D33",
"8  c #31273B",
"9  c #332B3C",
"0  c #3A2C3B",
"q  c #2D3132",
"w  c #2D313B",
"e  c #25323D",
"r  c #323433",
"t  c #33323C",
"y  c #3B343A",
"u  c #3C3D3C",
"i  c #393638",
"p  c #46352F",
"a  c #42353D",
"s  c #4E3C39",
"d  c #463836",
"f  c #4C3638",
"g  c #3F443A",
"h  c #42483A",
"j  c #5C4339",
"k  c #574235",
"l  c #4A513F",
"z  c #664B3B",
"x  c #71523F",
"c  c #2B2D42",
"v  c #282E46",
"b  c #352B42",
"n  c #3A2E44",
"m  c #3B2F4A",
"M  c #332945",
"N  c #27364A",
"B  c #343342",
"V  c #3C3244",
"C  c #363942",
"Z  c #3C3B44",
"A  c #3D324C",
"S  c #35384D",
"D  c #3D2F52",
"F  c #2A3855",
"G  c #3E3152",
"H  c #3A3D50",
"J  c #2F3D61",
"K  c #412F4C",
"L  c #423444",
"P  c #42354D",
"I  c #46394D",
"U  c #493A4E",
"Y  c #473B45",
"T  c #543B4C",
"R  c #583C49",
"E  c #433455",
"W  c #4A3754",
"Q  c #463951",
"!  c #4B3A54",
"~  c #453459",
"^  c #49375C",
"/  c #4C3A5B",
"(  c #473858",
")  c #523C56",
"_  c #523D5C",
"`  c #5D3F55",
"'  c #4A3760",
"]  c #4D3961",
"[  c #533D63",
"{  c #593F64",
"}  c #563F68",
"|  c #583F6A",
" . c #3E4045",
".. c #29445A",
"X. c #344152",
"o. c #2E4868",
"O. c #2D5576",
"+. c #335B77",
"@. c #32506E",
"#. c #4B4B44",
"$. c #4A434D",
"%. c #4C4C4A",
"&. c #434544",
"*. c #57484A",
"=. c #535B44",
"-. c #52554B",
";. c #575A4A",
":. c #4D4352",
">. c #414752",
",. c #55425C",
"<. c #59425E",
"1. c #574957",
"2. c #475258",
"3. c #5C5C52",
"4. c #565759",
"5. c #4C5241",
"6. c #654A48",
"7. c #724D49",
"8. c #6C524A",
"9. c #775746",
"0. c #684559",
"q. c #635B5B",
"w. c #695955",
"e. c #7A5757",
"r. c #714A59",
"t. c #5D624C",
"y. c #636D4D",
"u. c #60644F",
"i. c #696E55",
"p. c #666655",
"a. c #7B6454",
"s. c #7B675C",
"d. c #6C7356",
"f. c #6E7359",
"g. c #72765D",
"h. c #747B5A",
"j. c #797F5F",
"k. c #564062",
"l. c #5C4365",
"z. c #5B4963",
"x. c #574069",
"c. c #5D426B",
"v. c #545C68",
"b. c #604567",
"n. c #62466C",
"m. c #66496E",
"M. c #6B496E",
"N. c #644B67",
"B. c #665266",
"V. c #67526A",
"C. c #6B546B",
"Z. c #6D566C",
"A. c #644671",
"S. c #674872",
"D. c #6A4A75",
"F. c #6E4B79",
"G. c #684770",
"H. c #714D7C",
"J. c #734B72",
"K. c #6E5375",
"L. c #725A73",
"P. c #72527C",
"I. c #795F79",
"U. c #755A7A",
"Y. c #7B5266",
"T. c #5B6365",
"R. c #596B73",
"E. c #696362",
"W. c #786B65",
"Q. c #797D62",
"!. c #787568",
"~. c #7D617C",
"^. c #845B53",
"/. c #8B664B",
"(. c #916B4D",
"). c #886959",
"_. c #936957",
"`. c #8F7258",
"'. c #987257",
"]. c #A87957",
"[. c #B87C54",
"{. c #816D64",
"}. c #8A7466",
"|. c #987966",
" X c #887C74",
".X c #9B6F64",
"XX c #A17A63",
"oX c #7E8463",
"OX c #A9825E",
"+X c #BC845B",
"@X c #808565",
"#X c #8A8E6E",
"$X c #87876B",
"%X c #9D816A",
"&X c #998274",
"*X c #8C9070",
"=X c #AC8365",
"-X c #A7856A",
";X c #B48B6A",
":X c #B78965",
">X c #A78B73",
",X c #B48F74",
"<X c #A99277",
"1X c #B9977A",
"2X c #BE906A",
"3X c #C2855B",
"4X c #C6966C",
"5X c #C59875",
"6X c #D49E74",
"7X c #D5A279",
"8X c #DAA77A",
"9X c #346583",
"0X c #467285",
"qX c #6F7B85",
"wX c #765080",
"eX c #738387",
"rX c #73868B",
"tX c #A79484",
"yX c #B89C84",
"uX c #BCA591",
"iX c #C7A587",
"pX c #D6AC87",
"aX c #DFB084",
"sX c #CCB198",
"dX c #D8B799",
"fX c #C1AA96",
"gX c #E4B68B",
"hX c #E6B587",
"jX c #E5BB94",
"kX c #EAC49F",
"lX c #F2C396",
"zX c #EDC8A4",
/* pixels */
"~.~.~.L.Z.~.~.I.~.C.L.~.I.~.Z.L.~.I.I.~.C.1.~.~.~.C.I.~.I.I.I.B.I.I.~.I.V.~.I.I.~.L.V.~.I.~.L.Z.~.I.I.I.I.V.I.1._ <.,.D.m.n.m.! ",
"c.} } x.k.c.x.x.[ _ x.x.[ x.k.x.} c.[ c.c.,.c.c.x.k.x.x.| [ [ _ c.| } } l.} c.c.[ k.,.x.[ x.x.k.c.l.x.x.S.,._ V W } [ } l.} } / ",
"W P _ / ! / W E / ! / I Q [ ! ! _ [ _ [ ! I k.[ [ ! ! _ P / ) W / P _ / ! / / A / / ! W P [ _ ! / [ _ [ _ W A Y / _ ! _ W Q _ W ",
"S.c.F.S.A.A.S.b.F.c.D.n.A.F.S.A.A.H.F.H.N.<.F.S.S.S.A.S.n.S.S.c.S.l.S.F.D.c.F.l.F.A.A.A.c.S.D.A.n.F.H.D.K.l.n.n.D.S.A.S.n.n.D.c.",
"G A ~ G ~ ~ G A ~ E ~ A G E ~ ~ ~ ~ ~ / ! W [ ~ ~ G ~ E m G E ~ E n E K E ~ E m E ~ ~ G A ~ G ~ ~ ~ ~ ~ _ E G A ~ ~ ~ ~ A A E ~ ",
"b.l.l.U b.c.l.c.Q l.c.c.l.k.W b.c.c.b.A._ U m.c._ / l._ _ W W _ _ / W K W ) / _ U _ c.c.l.c.W l.c.b.n.n.l._ c.l.k.W b.c.c.z.W l.",
"n.c.c.x.A.c.c.A.l.c.c.c.c.c.c.n.c.c.S.H.M.z.F.| c.[ / E P P E E m n b b K K n K / [ x.n.c.c.l.A.c.c.A.F.H.l.c.c.c.l.A.} c.c.l.c.",
"~ ~ ~ m E G ~ ~ n ~ ~ ~ ~ G A ~ ~ ~ ~ ^ W U [ E m b b 3 4 3 < 3 O O O o O O O 3 4 M G G ~ ~ V ~ ~ ~ ~ ~ / I ~ ~ G A ~ ~ ~ E m ~ ",
"c.W [ l.l.c.! _ l.c.c.c.U l.l.l.c.b.n.n._ U n.{ W n b 3 4 3 3 O O O O , , , 3 3 8 m W { W _ l.l.c.c.n.n.l._ l.W l.z.c.l.W l.l.l.",
"A.l.n.c.c.c.l.c.A.c.c.n.} c.c.n.c.H.A.F.m.l.F.| P 6 4 4 3 3 , O O O O O O , 3 3 3 4 m _ [ c.c.c.c.F.F.S.H.k.A.l.c.c.c.c.l.c.n.c.",
"E V A E E ~ A A E G E E A E G E ~ Q ~ ( W L / M 3 O 3 3 6 3 , O O O , O , 3 c 5 3 O 4 m V V G E ~ E E ( / U ~ V D G E E A A ( E ",
"S.m.D.b.<.D.A.m.S.,.l.D.m.S.<.c.D.D.m.D.l.:.n.) b O 3 3 c 5 3 3 3 O 3 O O 3 3 5 3 4 L _ ,._ b._ S.S.m.D.m.N.U.1.k.l.l.D.n.:.V.wX",
"] ' ] ^ / ] [ ] ^ Q ( ] ^ ' / / ] ] ] } _ ) [ m 4 O < 4 6 c 5 4 3 3 , O 3 3 c 5 , O 8 b 9 P / / ] ] ] ] | ! W t Q / ^ ' ] A V / ",
"_ W l.l.[ l._ U c._ l.W _ l.l._ x.c.l.c.) L | W 8 O 5 b B V c c 3 O O , 3 c B B 3 < 8 L a { l.[ l.c.c.l.z.) W U l.l._ c.,.U <.,.",
"n.c.A.A.c.c.n.l.A.| A.c.c.A.n.c.A.D.F.S.n.<.A./ 8 < 6 Z :.$.Z 6 3 O O , B Y U Y 9 < 9 ~ _ A.A.c.c.S.S.S.S.c.c.c.A.c.c.n.c.c.S.x.",
"m A G D E ~ D A D E E A G G D ~ ~ G G ( U I _ M O 7 Y w.{.W.q.U b 6 9 Y w.W.{.w.Y 8 4 4 M E D G ~ E ~ ( / A A m ~ D E ~ A A G E ",
"S.S.n.) S.A.m.m._ b.S.S.m.c._ D.n.D.D.H.l.) M./ 9 a e.|.1XyX&Xs.*.$.1.e.&X1X1X%X8.Y L / | n.) m.D.A.D.D.D.<.D.m.b.) A.A.D.b._ m.",
"} } c.[ c.[ } c.[ x.l.} } l.} c.[ x.c.S.b.<.n.! Y *.).,XiXiX1X>X}.W.}.|.1XiXiX,X).6.Y W ) l.[ c.[ } c.S.S.k.x.x.c.k.c.} } l._ | ",
"E E G V G E E G n E E E G G V G G E E ^ W I ) R 6.a.|.%X%X>X1XiXiXiXiXiX1X1X%X|.}.s.7.T W D n G E ~ ~ ~ ( P ~ E A V G G E E V ~ ",
"S._ l.m.A.m._ l.M.n.m.n.) n.n.m.m.F.S.F.` ) 0.e.).|.|.}.s.}.<XuXdXdXsXiXtX$XW.).|.XX).e.0._ m.n.n.D.D.D.S.,.S.! c.m.A.m.! c.M.n.",
"} [ } | } } [ [ c.[ } } _ } } | | G.c.A.n.` 0.^.].-X|.}.W.W. XtXsXsXfXtXtXE.B.W.>X;X.X^.` _ { } } A.A.c.F._ } / } } } } _ x.c.] ",
"~ L E P A ^ P P ~ A E ~ P E A E ~ ~ ^ / W L T 7.].:X-X|.E.4.E. XuXfXtX XW.p.p.W.;X;X'.9.R n K E W ~ ~ / ! U ,.V A G P ^ P E ( A ",
"F.S.F.n.l.F.S.S.D.l.b.F.G.F.b.b.F.D.G.H.b.T ` r._.=X;X%Xw.*.8.Q.uXsXyX Xw.;.w..X,X;X_.7.*.) n.b.F.S.D.D.D.N.U.,.l.b.b.F.D.D.D.,.",
"~ ~ ~ ~ Q ^ ^ ^ E P ~ ~ ~ ~ Q ~ ^ ( ~ / W L K Y 8.'.;X2X`.a.a.%XsXdXiX>X).a.`.-X:X].7.f 7 9 E P ~ ( ^ ^ k.Q A t A ~ Q ~ ~ ~ ~ P ",
"<._ m.n.l.n.l.) m.l.n._ <.m.n.l.m.G.A.m.! V V y s ^.].4X4X,X5XiXkXzXjXsX1X2X5X5X].^.s y 7 W _ l.n.S.S.S.b.<.,.,.m.n.l.n.,._ M.l.",
"| [ c.| } } c.[ | [ | } } | } } c.c.n.| P V t 2 - s (.4X7XaXgXkXzXzXzXjXhXaX8X2X(.s d < 2 n ~ [ | c.c.n.A.,.[ x.c.| } c.| [ c.[ ",
"P A E m E W E V A E ~ P P E A ~ ~ E E K 9 $ 2 # * p z '.4X8XhXgXjXjXjXgXhX8X4X].x p & # # 4 4 m ~ ~ ~ ~ / P A P E m ~ ~ P V A E ",
"D.D.D.<.F.G.D.F.<.M.D.D.D.m.l.F.G.m.m.[ n < 1 # o ; p x ].4X6X6X7X7X7X6X7X4X].9.p $ # # # 4 0 _ l.n.J.P.F.l.D.D.m.<.F.D.S.D.l.A.",
"[ [ [ / [ ] [ [ ( } [ [ ] [ / [ ^ ~ E V 2 $ , # # # = k /.].+X3X3X[.[.3X3X[./.s - # # # # # 2 b m E ] c.n._ ] [ [ ( [ ] [ [ ( } ",
"E G G V E E D E V ~ ~ ~ G A n E m n 9 6 2 1 # # # # # p x (.].[.[.[.[.[.].(.z p 2 # # # # 1 2 2 7 n G E W P ~ A E A E E E E V ~ ",
"F.l.m.F.S.S.l.m.D.D.D.D.,.S.F.b.) P V t 6 2 # # # # 1 7 s 9.`.XX+X+X:XOX`.9.s = $ # # # # 1 t t 9 L [ m.F.l.J._ m.D.A.D.<.G.F.m.",
"/ ( ^ / ] / ( / _ ^ / / ( / / ~ M 8 6 7 t 2 % # < # $ 1 - #.i.$X<X<X>X$Xi.#.i & 1 1 & # < 2 t 6 2 4 P / l.( ] ^ ^ ] [ / ^ ^ [ ^ ",
"! U W L V W U W U V I W U W L y 9 $ < & 1 1 @ @ # 1 q 1 : e X.R.oXrXeXR...g e % 1 1 $ @ # 1 1 & # < 9 L I U z.1.z.,.,.z.,.z.z./ ",
"S.S.S.m.l.F.S.S.A.z.c.S.A.F.n._ P 4 # X # @ + + % q q q : g ..+.9X0X0X+...: 1 : q 2 # # . # X X o < W c.S.N.P.P.P.K.K.U.K.K.K.V.",
"E G ~ E I ~ ( E ~ P P E G E P K 9 O             % q : r : e N ..9X9XO.o.N e : : : : # +         X o 9 D / P E K G E P ~ E E G A ",
"b.z.F.S.m.m.b.<.F.b.D.l.l.F.D.{ W p - * * X   X @ : : : : % e ..O.9XO...e 1 : : : : % @ X X X * ; a ` n.G.l.{ b.F.S.n.S.l.l.D.n.",
"[ _ [ ] [ [ ] ^ [ ' ] / [ [ ' W R f z z k k > ; & @ % % % % 5 N @.O.O.F e % % % % % % & > k k k j j R _ c.) ^ / } ] [ [ / / [ ' ",
"~ P ~ A ( / W Q A W ^ W W E D ) R 7.(.'.(.9.j h & @ @ @ # # 5 N @.O.o.F 1 + + + @ @ * p z 9.(.`./.^.R W ) K W W E A ^ / ! Q A ^ ",
"H.S.D.l.F.S.S.D.l.D.D.F.S.S.b.M.r.^.[.5X4X:X/.j = @ + # # # 1 N o.o.o.N 5 # + + @ @ ; k (.:X4X4X[..XY.J.J.b.F.D.S.l.F.S.F.D.l.S.",
"^ ] ^ Q ] ' ] ] Q ] ] ^ / / W _ 0._.5XgXhX8XOX9.- X . # # , < c J J F v 1 , % 1 @ % = z OX8XgXaX5X.X0./ | / ' ' ^ ( ] ~ ] / ( ] ",
"^ P Q P ^ ^ P Q I ( ^ ( A Q L W ` ^.5XjXlXaX=X9.- X # < 1 $ 1 5 F F M c 2 1 < $ 1 $ - 7.;XgXlXgX5X.X0.W ! P ^ A Q P ( ( P ~ U ( ",
"H.l.A.F.D.G.l.A.F.A.D.F.l.F.F.M.Y.^.1XpXjXpXXX9.p o , 2 1 < # 5 M F v O 1 # 1 1 # $ p z -XpXjXpX5X.X^.M.F.l.H.l.S.F.D.S.l.S.D.S.",
"^ E ~ ~ ^ ^ E E ^ ~ ( ( P ~ ~ ! R 7..X,X1X;X'.6.- * 1 6 2 1 & 6 G H H c 1 1 2 e < ; ; s `.,X1X<X.Xe.1.W l.W ~ E ~ ~ ] ^ P ~ / ~ ",
"V.:.P ) W l._ P ,.V.C.C.I ! W U T R w.).s.a.6.f $ @ 2 t t 2 w  .v.R.v.>.w 2 w B 4 X * p 6.a.).s.7.1.T ) _ ,.V.$.W ! W l._ _ x.Q ",
"S.W _ c.l.A.n._ ! D.D.c.P [ n._ W a a d h a = $ + # t Z C t S 2.qXrXqXT.B e Z  .t $ X * 7 d a d a a W { S.z.n.Q [ c.c.A.A.c.c._ ",
"A r P ~ P ^ Q V V E W V y Q P m 8 < 1 @ o . .   + & C  .C C Z 4.qXtXrXT. .t  . .y 1       . . # o < b P ! P V y U P E W Q E ^ P ",
"N.b.H.F.S.S.A.l.H.n.F.b.m.H.F.{ ~ 0 < # .       @ r u &.&.u &.%.v.T.T.2.g u  .&.u q @       . o # n _ G.D.b.n.b.F.S.A.F.m.b.H.b.",
"( ~ ' ~ ' ^ W ~ ] ~ ^ E ~ ^ ^ ~ D 8 4 # . . # @ i &.-.3.3.-.-.-.2.2.;.;.-.-.3.3.-.#.i % + . . # 4 M K ^ k.W ~ ~ ' ^ ^ ^ ~ ~ ' ~ ",
"_ / _ P [ [ _ _ P / x._ _ ( P [ ^ P 9 < < o 2 i #.p.f.Q.Q.g.d.t.=.=.=.t.d.g.Q.Q.g.3.#.i < $ o 4 n P / _ _ ! _ _ / P [ [ _ ! P _ ",
"D.S.S.l.F.A.A.S.l.m.S.S.m.m.b.D.A.c._ L n n ! :.3.h.@X*X*X$Xj.d.q.3.3.i.oX$X#X#X$XQ.p.:.L K n Q / | D.H.P.l.S.S.D.b.S.A.A.S.b.S.",
"~ ^ ~ A ~ ~ ^ ^ A ~ ^ ~ ~ ~ P ~ ~ ~ E m P W / :.3.f.@X*X#X@Xh.u.3.1.-.t.f.oX#X#XoXg.3.:.( E V G E ~ / / x.Q ~ ~ ~ P ~ ~ ^ ~ A ^ ",
"[ Q ! ! _ / Q W ,._ [ / P _ ! [ _ P ! ! ) W _ 1.3.d.Q.oX@Xh.i.;.%.:.1.3.d.g.oX@XoXf.3.1.U Q ! / / _ [ [ _ Q [ I ! ! [ _ P / ) [ ",
"S.b.A.S.S.S.l.S.F.A.S.S.l.S.S.S.A.l.S.F.l.n.P.C.q.i.d.oXd.d.p.q.B.K.M.q.p.d.f.h.d.y.q.B.z.S.D.S.G.wXH.F.wXl.D.l.D.S.A.m.l.D.D.n.",
"~ A G E ~ ~ A G ~ G ~ E A G ~ ~ ~ A E ~ G W [ $.%.=.y.y.y.t.-.#.:./ ( $.=.t.y.y.t.t.%.$.A A ~ ~ ^ ^ ^ ^ [ I G V G A P S A A Q A ",
"L.1.! k.! n.l.! z.L.L.L.:._ _ _ b.l.l.c.Q ! l.<.%.l =.=.=.l l h 1.L.C.4.h 5.l t.=.5.-.4.C.L.K.N.P.K.L.L.V.B.L.Z.L.B.B.~.Z.L.L.B.",
"c.A W x.x.x.c.! A c.A._ L / [ } } c.c.} ! k.l.W Z g g h g g i V <.l.[ P i g h h h g Y ! [ x.l.l.c.c.c.[ ,.x.c.x.x.l.x.c.c.l.c.c.",
"U y ! / ! / ! V U ! _ Z L / ! W [ Q E _ P U ) P 7 & : t r 2 7 4 P / W n $ & = r t 2 7 n V / / ! ) / P / ! / E Q / ( W / [ / _ ! ",
"S.c.F.D.S.S.D.c.F.c.D.n.m.F.S.n.S.b.m.S.l.l.{ W 9 < # $ # @ 8 0 ,.D.b.E 4 # # 1 $ 4 9 P ! G.G.A.A.S.l.F.n.S.b.m.F.F.S.S.H.H.F.D.",
"G A E G ~ ~ G A ~ G ~ A G ~ ~ ~ ~ E G E D P P 4 < # # # # # $ 8 Q _ D M , . # # # # < < 9 m E ~ ~ ~ A E ~ ~ G G ~ G ~ ( ~ ~ ^ / ",
"l.l.l.! l.c.l.x.U k.c.c.l.k.! c.l.b._ U [ P n < # # # # # # < 8 P l._ 9 < # # # # o $ < n Q P | c.l.l.W [ l.c.c.,.W c.c.c.b.N.,.",
"A.c.n.l.S.c.c.A.l.n.c.n.c.n.c.S.| A.A.| { W b X # o . X o $ 8 n { A.{ K < o X . o X o O 8 E _ A.c.c.A.l.c.n.c.c.c.c.A.c.A.A.H.S.",
"~ ~ G m G G ' ~ m ~ ~ ~ ~ G m ~ E ^ E m E K 8 o . o o . o o 8 9 W / D 9 < o o o X X o O 3 M n E ~ ~ ~ m E ~ ~ ~ G m ~ G ~ ~ / / ",
"l.! k.k.l.l.( ,.x.l.l.l.Q k.k.l.{ I _ l.) K K 8 8 O 4 4 8 8 K L W b.{ W K 8 < O < < < 8 8 P _ l.l.! / l.l.c.l.U k.l.l.l.l.c.n._ ",
"S.c.A.A.A.n.c.A.S.c.A.S.l.A.A.n.A.b.A.G.{ _ W K 0 b 9 n K K { ) l.H.D.b./ K n 8 K 8 8 K K _ c.n.A.c.n.D.c.A.A.c.A.A.A.n.H.F.H.D."
};
