/* XPM */
static char *result[] = {
/* columns rows colors chars-per-pixel */
"64 64 209 2 ",
"   c #14131B",
".  c #18161E",
"X  c #1D191F",
"o  c #221C1F",
"O  c #1A1721",
"+  c #1D1C25",
"@  c #1F1D2D",
"#  c #1F1E31",
"$  c #231D24",
"%  c #211E2B",
"&  c #281F2F",
"*  c #211F32",
"=  c #281F30",
"-  c #1F2028",
";  c #232327",
":  c #2D2225",
">  c #24232D",
",  c #2A252C",
"<  c #2A2C2C",
"1  c #262828",
"2  c #342A2B",
"3  c #3B2A2A",
"4  c #332627",
"5  c #2E322B",
"6  c #3E312B",
"7  c #232133",
"8  c #2A2533",
"9  c #2B2A34",
"0  c #2C243A",
"q  c #2E2D38",
"w  c #322D35",
"e  c #3B2B34",
"r  c #30273C",
"t  c #332C3C",
"y  c #392E3D",
"u  c #2F3031",
"i  c #2F303A",
"p  c #3C3132",
"a  c #393B36",
"s  c #33333D",
"d  c #3B323B",
"f  c #3B3B3B",
"g  c #343533",
"h  c #46352F",
"j  c #443432",
"k  c #463935",
"l  c #41333B",
"z  c #4B3C3A",
"x  c #553F34",
"c  c #543E39",
"v  c #503736",
"b  c #3E4534",
"n  c #3F4439",
"m  c #404834",
"M  c #41423E",
"N  c #454B3D",
"B  c #494F3F",
"V  c #4D563E",
"C  c #505B3E",
"Z  c #544137",
"A  c #614A3A",
"S  c #64483C",
"D  c #312743",
"F  c #352B43",
"G  c #3A2E44",
"H  c #3B2E49",
"J  c #372C49",
"K  c #363440",
"L  c #3C3244",
"P  c #373941",
"I  c #393A43",
"U  c #3D324C",
"Y  c #3B2D50",
"T  c #3E3152",
"R  c #423444",
"E  c #423946",
"W  c #43354D",
"Q  c #46394C",
"!  c #493A4E",
"~  c #4C3945",
"^  c #553B4F",
"/  c #433455",
"(  c #4A3654",
")  c #473951",
"_  c #4B3A54",
"`  c #443459",
"'  c #49375C",
"]  c #473858",
"[  c #4C3A5B",
"{  c #513C56",
"}  c #523D5C",
"|  c #593D5D",
" . c #5B3D54",
".. c #613E4C",
"X. c #4A3760",
"o. c #4D3961",
"O. c #533D63",
"+. c #593F63",
"@. c #563F68",
"#. c #583F6A",
"$. c #4A4545",
"%. c #534443",
"&. c #5B4345",
"*. c #594848",
"=. c #4E5541",
"-. c #545D43",
";. c #53554B",
":. c #5A5F4B",
">. c #515546",
",. c #4C4252",
"<. c #4E4555",
"1. c #55425C",
"2. c #59425E",
"3. c #56495A",
"4. c #5C4A5E",
"5. c #584555",
"6. c #5E5E52",
"7. c #5E525B",
"8. c #61424C",
"9. c #6B4E4C",
"0. c #684B47",
"q. c #744F4D",
"w. c #6E544B",
"e. c #6F5144",
"r. c #7C5C44",
"t. c #705241",
"y. c #654452",
"u. c #6B4956",
"i. c #694758",
"p. c #734B5C",
"a. c #615E57",
"s. c #635A5C",
"d. c #765753",
"f. c #566143",
"g. c #5A6446",
"h. c #5D654B",
"j. c #5F684A",
"k. c #636C4D",
"l. c #60674E",
"z. c #67714F",
"x. c #656B51",
"c. c #686D54",
"v. c #6B7452",
"b. c #6F7855",
"n. c #717957",
"m. c #737A58",
"M. c #796057",
"N. c #564162",
"B. c #5C4364",
"V. c #5A4963",
"C. c #574069",
"Z. c #5D426B",
"A. c #614566",
"S. c #624C67",
"D. c #62466C",
"F. c #66496E",
"G. c #6B496D",
"H. c #6C4665",
"J. c #655365",
"K. c #66526A",
"L. c #6B546B",
"P. c #6E596D",
"I. c #695865",
"U. c #644671",
"Y. c #674872",
"T. c #6A4A75",
"R. c #6E4C79",
"E. c #714A74",
"W. c #724D7C",
"Q. c #6E5374",
"!. c #6F5278",
"~. c #6F5872",
"^. c #725A73",
"/. c #72537B",
"(. c #795F79",
"). c #755A7A",
"_. c #7D617C",
"`. c #815B4D",
"'. c #855C52",
"]. c #8A664B",
"[. c #8B6A4C",
"{. c #866E5E",
"}. c #8C6656",
"|. c #946B54",
" X c #90645B",
".X c #9B705F",
"XX c #A27858",
"oX c #825668",
"OX c #8C7463",
"+X c #9C7563",
"@X c #9D7961",
"#X c #A8796C",
"$X c #B1865D",
"%X c #AB836A",
"&X c #B38566",
"*X c #BE9677",
"=X c #C3956A",
"-X c #C29B7D",
";X c #C99B79",
":X c #D09F73",
">X c #C29E80",
",X c #DCAC82",
"<X c #CBA786",
"1X c #E1AF84",
"2X c #E3B58C",
"3X c #E1B183",
"4X c #E6B991",
"5X c #EFC194",
"6X c #F0C297",
/* pixels */
"_._._.^.L._.(.(._.K.^._._._.P.^._.(.(._.L.4._._._.K._._.(.(.(.J._._._.(.K.(.(.(._.~.K._._._.^.K.oX_._._.(.K.(.3.1.2.2.Y.F.D.F.{ ",
"Z.@.@.C.B.@.Z.@.O.1.C.C.N.O.C.C.@.Z.O.Z.B.1.Z.C.C.B.C.C.B.@.O.[ Z.@.@.Z.N.Z.Z.Z.O.N.1.C.O.@.C.B.Z.Z.C.C.F.N.} U ( +.O.@.Z.@.O._ ",
"( W } [ _ } _ W o.( [ W / O._ _ O.} } O._ E N.} o._ ( } W ' [ _ [ W [ } _ [ [ U [ [ ( [ T } [ _ o.o.N.<.1.! R E [ } _ [ / ) } _ ",
"Y.Z.R.Y.U.U.Y.Z.R.Z.T.D.F.R.Y.D.U.W.R.W.D.2.R.R.T.T.Z.R.A.T.U.Z.Y.B.Y.Y.Y.D.T.B.R.D.Y.U.Z.T.T.Y.U.R.R.R.T.Z.D.F.Y.Y.U.T.F.F.Y.Z.",
"T U ` T ` ` T U ` ` ` U T ` / ` ` ` ` ' _ ( O.` ` T ` ` U / / ` / H / ` ` ` / U / T ` T U ` T ` ` ` ] ' [ / U T ` ` ` ` T H ` ` ",
"A.B.B.) A.Z.Z.B.) B.Z.A.B.N._ D.Z.A.D.F.} Q F.D.} [ Z.} } W / { [ [ } W } +.} } Q } Z.D.B.Z.( B.Z.Z.Z.U.B.1.Z.B.N.( D.Z.D.2.) Z.",
"D.Z.Z.Z.U.Z.Z.U.B.Z.Z.Z.Z.Z.B.U.@.Z.Y.W.G.B.T.#.Z.N.} T W H H H G G / ` ( ` H / [ +.@.U.Z.D.B.U.Z.Z.U.R.!.B.Z.Z.Z.B.U.C.Z.D.B.Z.",
"` ` T U ` T ` ` L ` ` ` ` T J ` ` ` ` ' _ _ O./ U F D 0 0 = = * * = = = 0 0 = 0 0 J T T ` ` G ` T ` ` X.[ / ` ` T U ` T ` / H ` ",
"A.( } B.B.Z._ } B.Z.Z.B.! N.B.B.B.D.A.D.} ! D.+.X.Y D D 7 7 7 7 * * = = D # # 7 D Y X.O._ } B.B.Z.D.D.A.B.} Z.! N.B.Z.Z._ N.B.B.",
"U.B.D.Z.Z.Z.B.Z.U.C.Z.U.+.U.U.D.U.W.U.R.F.N.W.#./ D 7 # # 7 # # * * * * # 7 # 7 7 D T o.O.Z.Z.Z.Z.R.R.Y.W.N.D.C.D.Z.Z.Z.N.D.D.Z.",
"` U / T / ` U U ` T / / U / Y / / ` ` [ _ W { J = * # # 7 7 7 7 * # * * 7 # 7 # # = 0 J L U / / / ` / [ [ Q ] L T T / ` L U ` ] ",
"Y.D.T.A.N.Y.F.Y.Y.1.B.Y.F.Y.N.B.Y.Y.Y.T.B.<.D.} J * # 7 7 7 # 7 7 # # D # 7 7 7 * 0 L 1.1._ A.} Y.Y.Y.Y.Y.S.).1.1.B.B.Y.Y.[ S.(.",
"o.' o.[ [ X.o.[ ' _ ' ' ' X.[ [ X.O.X.O.} { o.W 0 * * * 7 7 7 7 * D 7 # 7 # 7 # * * r F y W ' [ o.o.[ o.B.[ ) d ) [ [ o.o.W L [ ",
"} ( Z.B.+.B.1._ B.} N._ } B.N.} +.Z.Z.B.{ Q +.( D * * * 7 7 7 7 # # 7 7 7 7 7 # 7 7 r G L 1.B.} B.Z.B.Z.N.} ! ! B.N.} @.{ ! 2.1.",
"Z.Z.U.Z.Z.Z.U.Z.U.#.U.Z.Z.U.U.Z.U.T.R.Y.D.| T.[ D * * * # # # 7 # 7 7 7 # # 7 7 * 7 D ` } U.D.Z.Z.U.Y.R.T.B.Z.Z.U.U.Z.U.Z.Z.U.Z.",
"U H ` T ` ` H H T / ` H T / T / ` T / ' Q Q o.J * # * * # # D 7 # 7 7 7 0 # 7 7 * * 0 0 F / T ` ` / / ` [ U U U T Y ` ` U U T T ",
"Y.Y.A.} F.U.F.F._ D.Y.F.F.A.} Y.F.Y.T.R.B.{ F.{ t % * 7 7 * 7 * * 7 7 * 7 7 7 # # = r ( B.D.} U.Y.Y.Y.T.Y.B.F.Y.A.} Y.U.Y.D.{ F.",
"@.Z.@.+.Z.O.@.Z.+.Z.C.@.@.Z.@.Z.O.B.U.Y.A.B.D.( G 8 7 * * 7 * 7 D 7 # 7 # # 7 7 7 0 y ( } Z.} #.@.@.Z.Y.Y.N.B.@.B.N.#.O.#.Z.+.B.",
"/ / T L T / / / G / ` / T U U T / ` / ' ! W { W d w 0 7 7 * 7 * # # 7 * 7 7 7 7 7 t l R W / G T / ` ` ` [ U ` / T L T ` T / F / ",
"U.} B.F.U.F.} B.Y.A.U.F.{ D.D.F.U.T.Y.T.2.^ H.i.y.~ q # # * * * # # # 7 # # 7 7 9 E 8.p.5.| G.D.F.T.T.Y.F.1.U.{ Z.F.F.D.1.A.Y.D.",
"Z.} O.@.@.@.O.+.Z.O.@.#.O.@.@.#.Z.Y.Z.U.F.| H.u.d.*.y # # # # - # # @ # # @ @ 7 t ~ w.d.y.} +.O.@.U.U.Z.R.+.@.} @.C.@.@.[ C.Z.o.",
"/ U / / U ' U W ` W / / W / U / ` ` ` [ W ~ ^ 8.9.*.d % # - 7 7 # 7 > 7 7 - # 7 w ~ 9.9.^ G / W [ ` / [ [ E } L U T T [ W / ] U ",
"R.Y.R.F.B.R.Y.Y.U.N.F.T.Y.T.A.A.R.Y.Y.W.A. .H.y.&.l i 7 9 q 9 9 9 q 9 9 i 9 9 9 9 l &.u.5.{ F.B.T.Y.Y.T.T.F.).<.N.A.A.R.Y.Y.Y.2.",
"` ` ` / _ ` ' ' ` W ) ` ` ` ) / ` [ ' [ _ R ) y p p i i s s P P s s s s s s q s w e e l w G / ( ` [ ' ' 1./ W s W ] / ` [ ` ` W ",
"N.} F.D.B.A.B._ F.B.D.} 1.F.D.B.F.U.U.F.{ R W G y s s s P P I I P P P P P I I P P q s y y _ +.A.Z.T.Y.F.A.1.{ 1.F.A.B.D.1.} Y.B.",
"#.+.Z.#.@.@.Z.@.Z.O.#.@.@.Z.#.@.Z.U.#.D.{ H G 9 q s s I P P I I I I I P I I I I P s q 9 t U ' @.#.Z.D.U.U.1.C.C.Z.#.@.Z.+.@.Z.O.",
"W W / H ] [ / U U / / W / / U ` ( ` ` ( G w 9 9 9 q s I P P P P I P I P P P I P P i 9 9 > 0 F W / / ` / [ W W W / U ` [ W U H ` ",
"T.T.Y.N.E.Y.Y.Y.2.Y.T.T.Y.F.B.R.U.T.T.D.W t 8 > < 9 i s s s s s P P P P s P s s q 9 < 7 8 t W +.F.Y.W./.E.B.T.T.U.N.T.Y.T.Y.2.Y.",
"O.O.O.[ O.o.O.O.[ @.O.o.O.o.[ O.o.o.[ ) F 9 8 > > > < > 9 9 i i i q i q 9 9 9 < < > > > 8 8 r U ` [ O.Z.F.[ O.o.O.[ @.o.O.O.' O.",
"/ T / L / / T / L / [ / T T U / / H F F 9 8 > > > > 7 > > > > 9 < 7 < 9 7 > 7 > > > > > > 7 9 t F H / ` [ W / T T L / / / W L ` ",
"T.N.F.T.Y.Y.B.A.T.Y.Y.T.1.Y.T.D.+.} R K t 9 > > < < 7 > > - > > > > > > > > > < > , 7 < > 9 t s L ( Z.Y.T.B.T.2.Y.T.Y.Y.2.Y.T.Y.",
"o.[ [ ' o.[ [ [ O.[ [ o.( [ o.( H F t q i 9 > > 8 9 9 8 9 > > > > > > > > 7 7 < 9 9 9 , > 7 q t w r W [ B.( o.' [ o.o.o.' [ O.X.",
"_ _ ! W R _ ! _ _ R W _ ! _ R G y 9 7 9 8 < - - > 9 9 9 9 9 9 , 7 9 9 , < 9 8 9 9 8 8 > - > 9 9 > 9 y W Q ! V.1.V.1.1.V.3.3.V.[ ",
"Y.U.Y.F.Z.Y.Y.Y.Y.N.A.U.U.Y.A.} / 0 > ; - - + - > 9 9 9 9 9 9 9 9 9 9 9 9 9 9 9 q 8 7 - + - > - - 7 W N.Y.A.)././.Q.!././.Q.!.K.",
"` T ` ) W / / / / U ) / / ` W H r % + O + O . + > 9 9 9 9 9 9 q 9 9 9 9 q 9 q 9 9 < > + O . + O O % r H ( W / / / W / / / / ` U ",
"A.2.T.T.F.Y.D.2.T.D.T.N.A.T.T.+.) , + O       + ; 9 9 9 9 9 9 9 9 q 9 9 9 9 9 9 0 < ; +       . O , ( D.F.B.+.A.T.T.D.Y.A.B.T.A.",
"O.[ O.o.O.o.o.' @.' O.[ } O.o.' R e : $ o . . + > 7 q 9 9 9 9 9 9 9 q 9 9 9 q 9 9 < > + . . . o : e R ( Z.[ [ o.@.o.o.O.[ [ @.X.",
") ) ' H [ [ ( ) U ] [ ) ( / H ( ~ v x v h 6 4 : > 9 9 9 9 9 q 9 q 9 9 9 9 9 9 9 9 9 > > 5 6 h Z x c ~ ( ( ( / ( / U [ [ ( ) U ] ",
"W.Y.Y.B.R.Y.Y.R.B.Y.Y.R.T.U.A.G...`.].|.[.r.A k < 9 9 9 9 q q 9 9 9 q 9 q 9 9 q 9 9 < 6 A r.[.|.].'.p.E.E.H.R.T.Y.B.W.Y.T.T.B.Y.",
"' o.o./ o.' o.o.) o.o.X.o.' ( { ..'.#X=X=X$X].A p > 9 9 9 9 9 9 q 9 9 9 9 9 9 9 9 , 2 Z [.$X=X=X#X|.q. .+.( X.X.' ] o.' o.o./ o.",
"[ W ) W ( ' / ) W [ ' [ U ) W ( ..'.;X,X1X:XXXe.e , 8 q 9 9 9 9 9 9 9 9 9 q 9 9 8 9 2 S .X:X:X:X=X.X8.^ _ W [ U ) W [ [ U ) W [ ",
"R.B.U.R.Y.Y.B.U.W.U.Y.R.B.Y.T.H.'. X>X4X4X1X#X`.j , > 9 9 9 9 q 9 9 9 9 9 9 9 9 < 7 3 S &X3X6X5X>X#XoXG.W.B.T.B.Y.T.Y.Y.B.Y.R.Y.",
"' / ` ` ' ' ) ` X.` ' ` ) ` ` { ..'.>X4X6X2X=X`.j $ > 9 > 7 < > 9 , > > 7 < < 7 8 : 3 S %X4X6X4X;X#Xi.{ N._ ` / ` ` o.` / ` ' ` ",
"K.<.W { _ N.} W 3.K.K.K.Q _ ( { ..'.#X>X<X-XXXS 3 $ $ 7 > < > 7 > 7 > > > < 7 > > $ 3 S @X*X<X-X%X'.y.| { 3.J.,._ _ [ B.1.} C.Q ",
"F._ [ D.B.U.D.} _ Y.R.V.W +.#.| 5.y.M.{.OX{.w.Z : + ; > > > > > > > > > > > > > ; % : j w.{.OXOXd.u.5.| Y.V.U.) 1.Z.Z.U.D.Z.Z.+.",
"U d W / W ' / L d / [ L d / ( W G d Z *.%.%.k 2 ; + + ; - ; ; > - > ; ; % ; > ; + $ $ : j B %.%.%.R R ) ( W L d ) W / [ / W ` W ",
"F.B.W.T.U.T.U.A.W.D.T.A.D.T.T.+.! y w w w 9 , ; X X + - + + - + - - - - + - + $ + O X + , 9 w w 2 y { A.Y.A.A.A.R.Y.Y.Y.F.A.R.D.",
"` ) X.` X.' ` ) o.` ' ` ' [ X.W J 8 7 7 ; - + + + + ; ; ; > 1 1 ; ; ; ; > ; ; ; > - + X + ; > ; = 0 J ` N.( ` ` X.X.X.' ` / X.` ",
"1.[ } U O.O.} } W [ O.1.} [ W [ W r 8 > % % % ; 1 5 5 5 5 5 5 5 5 5 5 5 5 5 5 5 5 < 1 ; ; % % % 8 r W [ } _ } } [ W +.O.} _ W } ",
"T.U.Y.B.R.U.U.Y.B.F.T.Y.U.F.A.F.} ( F 8 8 , 8 w g b b b b b b b b b b b b b m m b b a u 9 7 8 w t W #.W.W.B.T.Y.Y.B.Y.U.U.Y.Z.Y.",
"` ' ' U ` ` ' ' U ` ' ` ' ` T ` / T G 8 0 0 y K M C -.f.f.C =.V =.=.=.V C f.f.f.f.C $.f t 0 8 0 D / ` [ N.) ` ' ` U ` ` X.` U [ ",
"O.Q _ [ } [ ) ( 1.} O.[ W [ _ } [ W / H G y W $.>.h.z.z.z.k.j.-.;.;.;.f.g.j.z.z.k.h.;.$.L t y U ( [ [ | } _ O.W _ { O.} W _ [ 1.",
"R.Z.U.Y.U.U.Z.F.R.Z.U.T.B.Y.Y.T.U.B.U.D.O.N.T.J.l.c.b.m.b.v.k.h.7.J.I.6.x.z.b.m.b.c.6.J.B.B.Z.Z.Z.W.W.W.W.A.Y.Z.T.T.T.U.Z.T.R.Z.",
"/ U T / ` ` U T ] ` / ` U T ` ` / U / ` T ( O.<.;.l.b.m.m.c.k.;.<.3.) ;.h.z.b.m.b.x.;.,.I T ` ` ' ' ` ' N.W T L U U T W L U ) U ",
"^.3._ 1.} D.B._ V.^.(.~.,.} [ } D.B.B.A.Q _ D.7.6.j.z.v.v.c.l.;.7.^.P.x.h.x.v.b.v.x.l.I.P.^.Q.J.).^.!.^.J.J.^.P.^.J.J.^.~.~.^.J.",
"C.W ) C.+.@.Z._ U Z.Z.} R [ +.@.@.Z.Z.@._ N.A.3.3.-.h.k.j.f.;.$.4.C.C.1.>.f.j.j.h.f.;.3.N.C.Z.B.#.#.Z.B.+.C.Z.C.C.C.C.Z.Z.Z.Z.V.",
"W f _ [ _ [ ( L ! _ [ L E ( _ _ O.) ) [ W ! } _ $.N =.-.V B M d Q 1._ Q M N V -.=.=.M E U } [ ( [ [ W [ _ [ / ) [ _ ] [ } [ } _ ",
"F.Z.R.R.Y.Y.Y.Z.R.Z.R.A.F.R.R.U.Y.A.D.R.Z.A.Y.N.L f b n f a d R 1.Y.D._ d g b b n k I } N.Y.Y.T.U.Y.B.R.D.Y.A.D.R.R.U.T.W.W.W.F.",
"/ U / T ` ' T U ` ` ` U T ` T ` ' T T ` T ( [ G 9 , 9 5 < < , r ) [ T D 7 < < 9 < 9 8 D G ` / ` [ T U ` ` ` T T ` T ' ' ` ` ' [ ",
"B.B.B._ B.C.Z.Z.Q B.Z.B.B.N._ Z.B.B.} ( +._ { H > + % ; $ % = 8 Q Z.} t % + + - % % = F ( } W B.Z.B.B.W +.Z.B.Z.N.) Z.B.Z.D.D.3.",
"U.Z.D.B.T.Z.Z.U.B.U.Z.Z.Z.D.Z.U.#.U.U.B.#.{ ( = + O   O O O = y +.U.o.W 7 O . O     O = H { N.U.Z.Z.U.B.D.Z.Z.U.Z.Z.U.#.Z.T.W.Y.",
"` ` ` J T T X.T U ` ` ` ` T U ` / ` / H / W r O             % = ( X.Y = +             O * D F T ` ` ` H / ` ` ` / H ` ` ` ` [ [ ",
"B._ } N.B.B._ } N.N.Z.B.Q N.N.B.+.( +.+.} R = O             & = R #.} R %             $ = G } +.B._ [ B.B.Z.Z.! N.N.B.+.Z.Z.A.} ",
"Y.Z.U.Y.U.D.Z.D.T.D.Z.T.Z.T.U.Z.D.A.U.U.O.W 0             . & r { E.Z.W %             O = W Z.Z.U.D.D.Y.Z.D.U.A.U.U.D.D.W.R.W.T."
};
