/* XPM */
static char *xpm_[] = {
/* columns rows colors chars-per-pixel */
"64 64 163 2 ",
"   c #332F37",
".  c #342F3A",
"X  c #37303C",
"o  c #3A333C",
"O  c #392F47",
"+  c #392F48",
"@  c #3B3245",
"#  c #3D324C",
"$  c #3E3152",
"%  c #413645",
"&  c #433945",
"*  c #42354D",
"=  c #46394D",
"-  c #493A4E",
";  c #433455",
":  c #483756",
">  c #473951",
",  c #4B3A54",
"<  c #44345A",
"1  c #49375C",
"2  c #473858",
"3  c #4C3A5C",
"4  c #513E56",
"5  c #523D5C",
"6  c #4A3760",
"7  c #4D3961",
"8  c #533D63",
"9  c #573F68",
"0  c #583F69",
"q  c #4E4252",
"w  c #4F405B",
"e  c #534556",
"r  c #554857",
"t  c #55415C",
"y  c #59425E",
"u  c #564859",
"i  c #59495C",
"p  c #574062",
"a  c #5C4364",
"s  c #5B4963",
"d  c #574069",
"f  c #5A416A",
"g  c #5A426A",
"h  c #584169",
"j  c #5E4368",
"k  c #5E4369",
"l  c #5E4468",
"z  c #5F4468",
"x  c #5F4469",
"c  c #5F446A",
"v  c #5D436C",
"b  c #5E436C",
"n  c #5E436D",
"m  c #5F446D",
"M  c #5F446E",
"N  c #5D426B",
"B  c #5D4170",
"V  c #604567",
"C  c #604567",
"Z  c #614C65",
"A  c #604468",
"S  c #604568",
"D  c #604569",
"F  c #60446A",
"G  c #60456A",
"H  c #61456A",
"J  c #61456B",
"K  c #63476B",
"L  c #62456C",
"P  c #62466C",
"I  c #63466C",
"U  c #63466D",
"Y  c #60446E",
"T  c #61456F",
"R  c #62456F",
"E  c #60466E",
"W  c #64466D",
"Q  c #65476D",
"!  c #64466E",
"~  c #65476E",
"^  c #64476F",
"/  c #62466C",
"(  c #66486D",
")  c #64486F",
"_  c #67486E",
"`  c #66496E",
"'  c #68496F",
"]  c #665166",
"[  c #665166",
"{  c #685167",
"}  c #67526B",
"|  c #695369",
" . c #6A536A",
".. c #6B546B",
"X. c #6C556C",
"o. c #6E566E",
"O. c #6B546E",
"+. c #6E586E",
"@. c #624570",
"#. c #634671",
"$. c #644671",
"%. c #664770",
"&. c #644672",
"*. c #654772",
"=. c #664773",
"-. c #664774",
";. c #634671",
":. c #674871",
">. c #674872",
",. c #674874",
"<. c #674872",
"1. c #6A4A71",
"2. c #694974",
"3. c #684875",
"4. c #684975",
"5. c #694976",
"6. c #6A4976",
"7. c #6A4977",
"8. c #6B4977",
"9. c #6A4A76",
"0. c #6B4A76",
"q. c #6A4A77",
"w. c #6B4A77",
"e. c #6E4C77",
"r. c #6A4A75",
"t. c #674778",
"y. c #6C4A78",
"u. c #6C4B78",
"i. c #6E4C79",
"p. c #6F4C7A",
"a. c #6F4D7B",
"s. c #6E4C79",
"d. c #704D7B",
"f. c #724E7C",
"g. c #6D5274",
"h. c #6F5872",
"j. c #6F5278",
"k. c #735972",
"l. c #735A73",
"z. c #745A74",
"x. c #765C76",
"c. c #725974",
"v. c #73537C",
"b. c #755A7A",
"n. c #795D78",
"m. c #785F78",
"M. c #795F78",
"N. c #795F79",
"B. c #785E78",
"V. c #7A5F79",
"C. c #7B5F7A",
"Z. c #7A5C7E",
"A. c #7B607A",
"S. c #7A607A",
"D. c #7C607B",
"F. c #7C617B",
"G. c #7C607C",
"H. c #7D617C",
"J. c #7E617D",
"K. c #7E627D",
"L. c #775080",
"P. c #795282",
"I. c #7D5D81",
/* pixels */
"K.A.K.c...K.M.M.M...k.A.A.K.o.k.K.M.M.K. .i K.G.K. .x.A.M.M.M.[ F.F.K.M. .K.M.M.A.k...K.S.A.x...K.M.M.A.M. .M.e t y y 2.H K ' 4 ",
"f 9 9 d a 0 f f 8 5 p f 8 d p d 9 0 9 j l t @.f 9 p d f f 9 9 3 a 9 9 9 p 9 f f 8 p t d 8 d d p d f d d ` a 5 # : 8 8 9 f 9 8 : ",
": * 5 3 : 5 : * 8 : 3 * > 8 , 3 5 8 5 8 > & p 5 8 , 3 5 * 1 5 > 3 # 4 5 : 3 3 * 3 3 : : ; 5 3 , 3 5 5 8 5 = & @ 4 3 , 5 > > 5 , ",
":.H 2.2.$.$.2.a q.n r.K U q.2.U -.d.d.s.K y i.r.2.2.n 2.a 2.-.@.2.l 2.2.2.@.2.a s.@.:.-.l 2.2.:.$.i.i.i.e.H H U q.2.$.-.~ U r.F ",
"; # < ; < < ; # ; ; < # $ ; $ < < < ; 3 , , 8 < ; $ < < # $ ; ; ; # < ; ; < ; # ; ; < $ + ; ; < 1 ; < 1 5 ; $ $ < ; < < $ + < ; ",
"V a a > j F H a > a l H l p : U j j @.$.5 = ~ Y 5 5 U j l 5 3 j F A a : a F j V , 5 M j j j > j j M Y U a 4 l j 9 > H M a a : j ",
"M B @.f $.0 B @.f n B B f M l $.0 M 2.f.' y s.0 M j B 0 @.j j M M M 0 M M M f @.j M f B B @.a @.M M @.a.f.a M B Y a @.0 M Y a M ",
"; ; $ + ; $ < < O < < ; ; $ # ; ; < < 3 , , 8 ; # # ; < < $ # < ; < ; + $ ; < < + ; < < ; ; + $ $ < < < 3 * ; ; ; O ; ; < ; + < ",
"F , 5 A a a 4 5 l a j a > a a a l U H U 4 > F F a a j 8 > a l a j 5 : V a a 5 , a a a F : 4 l a f U l U V : H = 9 y a 9 > 9 y A ",
"@.0 Y 0 Y Y 0 0 @.f M U 9 Y M M B a.,.q._ s d.t.B M U j a M U d @.0 a $.M M j 0 @.M 0 @.a j @.M M a.q.$.f.a @.a Y Y M M a Y ~ 9 ",
"; + * ; ; ; + * < $ ; ; O ; $ ; : ; < 3 > = 3 ; ; $ : $ @ $ 1 ; : ; O ; : < # O ; 2 : > * # $ ; ; ; : : 3 = < @ # $ ; : @ $ : : ",
"r._ r.H 5 8.%.%.:.t a 2.~ r.y a 2.:.:.2.a 4 2.' 2.5 ` 2.V , h.Z.M.} , %.r.1.2.a w b.I.Z.s , H t r.$.' 2.2.Z M.t 5 V a 2.:., Z Z.",
"8 1 7 3 4 7 8 3 1 > 1 7 3 6 3 3 7 7 7 8 t , d 7 3 : 3 7 5 @ * 8 3 # @ 3 7 6 5 1 X > 8 1 @ # 3 : 7 7 7 7 9 : : o > 3 3 3 7 * @ 3 ",
"5 > 0 9 5 9 5 > a 5 a : 5 a 9 5 a j a j 4 = l a a a 8 a * 4 5 a 5 & 5 a 0 8 a = t t a 4 & y a 8 a j j a a 4 - - 9 a 5 9 , , y t ",
"W 0 _ Y Y M Y 0 -.0 &.j 0 @.Y j @.t.2.2.H y 2.:.@.@.f $.j @.Y f -.9 $.M W 0 $.9 $.f B @.a @.@.B f t.2.8.r.a 0 M $.Y M M M j :.d ",
"* + ; $ ; ; ; + $ ; ; + ; ; $ : < $ ; 1 > = 8 < $ $ < ; + # $ : ; @ ; $ ; < ; O $ $ ; $ # ; $ ; < ; ; ; 3 * + + ; ; < < + # $ ; ",
"%.%.H 4 1.~ _ _ 4 H ' ' ' A 4 2.~ 2.r.d.a 4 r.' a y 2.~ 2.a t H ' ' ~ t H :.~ :.5 s ~ 2.` ~ 4 ` :.~ 2.r.' y 2.` V 4 2.$.2.H 4 ~ ",
"0 0 0 8 j 9 0 0 8 0 9 9 9 9 9 j 8 9 M q.H y 2.9 9 a 0 8 f 8 9 9 9 9 9 8 f 9 8 f 9 9 9 9 9 f 8 f 9 9 M ,.r.p d d f p 0 8 9 f 8 a ",
"; ; $ O $ ; ; ; O ; < ; ; # O ; ; ; ; 1 > = 3 ; + # $ ; ; # # < ; ; $ O # $ ; ; O * : ; ; $ @ $ ; ; ; < 3 # < ; $ @ ; ; ; ; @ ; ",
"%.5 a ~ ~ ~ 5 a _ U ~ ~ 4 H ~ ~ ~ r.2.r.y , 2.r.:.~ $.l 4 ` ~ H 2.a t 2.` $.a 5 1.H H 2.5 a ` ~ U r.2.2.` t :., H K U U , H ` U ",
"0 5 9 9 9 9 5 9 0 8 9 0 8 9 9 9 9 -.M $.H a 8.0 9 9 9 8 5 f 9 8 9 9 8 9 0 0 9 8 0 9 8 9 5 9 9 9 9 -.@.n 2.p d 5 9 9 9 9 8 9 a 7 ",
"< * * ; $ 1 # * 1 * ; ; % : + ; < : : 3 > & 3 1 : # : ; # # 3 , w = @ ; # : * @ > 3 , 4 * # ; # < < : : , = w @ # # ; 1 * ; 1 # ",
"s.%.r.~ V r.2.2.%.a F r.-.s.a ~ s.2.2.s.K 5 r.r.2.a 2.i.` , g.I.I.` = 2.a 1.2.l w b.I.I.l 4 ~ a r.2.r.r.i.` b.w a H F r.2.8.2.t ",
"< < < ; > 1 1 < < * ; < < < > > 1 1 : 3 4 > 5 1 < > < < > o @ 1 ; . X : * < 1 >   # 1 ; . @ ; > 1 1 1 1 t > # X # > > < 1 < ; * ",
"9 4 _ _ A F a 4 _ a H 5 y $.H l H 2.$.' t = ' ~ ~ U a ~ , s H a H - H ~ H j U , H A F a 4 K ~ V Y %.%.%.H y 4 5 ~ ~ l ~ 5 5 _ a ",
"9 9 0 9 9 0 9 9 0 8 0 9 0 0 f 9 j B M $.l t 2.j 0 0 9 f 8 l f 9 f p 0 9 f 9 M 5 0 9 9 0 8 a 0 0 9 Y Y Y ` 8 a 9 0 9 9 0 a 9 f 8 ",
"* * ; + : : ; + + ; : * * ; # 1 1 : ; 3 = * 5 < $ $ < : # # $ : ; # > # ; 1 ; @ + ; : ; * ; + : : : ; : : * # * ; # < : * # # ; ",
"r.r.1.y e.%.2.8.a _ 8.1.r.H a r.%.r.f.f.H t f.2.C H r.:.r.C l ,.r.r.2.s _ r.2.s.s U :.r.2.%.a 1.%.8.d.v.e.l s.2.$.y e.2.1.2.a $.",
"8 8 7 3 9 7 8 8 3 8 8 7 8 7 3 8 7 8 9 M a t @.7 5 3 8 6 8 7 5 8 8 8 8 3 5 7 7 9 5 8 7 7 8 8 3 9 7 8 9 0 ~ 4 8 7 9 3 8 7 8 8 3 8 ",
"; $ * * ; ; * ; + > : : $ $ # < ; < : < = * 3 ; * # ; ; ; $ # < ; ; + * ; ; $ ; @ ; < : $ $ @ ; ; < : < 3 * ; $ # + ; ; $ ; @ : ",
"s.5 _ r.=.%.a H e._ r.r.5 r.1.%.2.f.f.f.V 4 f.f.i.2.2.:.t r.r.#.s.F a e.%.%.A y r.2.%.d.a H r.r.2.f.f.f.r.a e.5 %.r.%.2.y ~ r.$.",
"7 1 3 3 3 7 3 1 8 1 3 7 : 3 3 8 3 8 8 a t > a 8 3 6 3 3 : 3 5 3 8 1 1 3 7 5 1 3 8 3 1 3 : 3 3 3 3 3 8 8 a : 8 : 7 7 8 3 1 7 8 1 ",
"- > > & @ , = = - @ = > = > @ & , > - , o & u u r - e e r e u & & * * = @ , = & & r u t q o * @ - = = , = q s r i t t s e s s 3 ",
"r.&.8.~ V s.2.$.$.a H -.8.2.H ~ 2.2.:.$.t K b.v.v.O.v.v.v.e.I.K H 8.8.8.a 1.%.F , g.I.v.t , ` l 0.2.2.0.r.V v.v.j.g.g.v.j.j.j.} ",
"; ; 1 ; * ; : ; : # * ; ; ; * ; : ; ; ; @ = 5 : ; * ; : : ; 3 & > 3 ; : = ; 1 * X @ : # X @ ; * < > : : 5 * ; $ ; ; * < ; ; ; # ",
"H 5 r.r.~ %.H y r.H 2.a H 2.2.U 2.a V r.a a r.r.2.2.U 1.f.r.8.5 a 1.r.r._ H 2.5 2.U :.U t r.r.` @.f.i.r.%.a s l s.2.U :.s l r.l ",
"5 3 9 7 8 8 7 3 9 1 8 3 3 8 7 7 8 3 8 8 1 a n 8 8 7 7 8 9 8 b 4 a j 9 7 8 8 7 3 8 6 7 7 3 8 7 8 8 8 9 9 l 3 3 7 8 7 8 8 3 5 8 6 ",
": > : + 1 3 : * # : 1 > > : $ 3 1 > * # : > 5 1 * ; 3 1 3 3 5 * > 5 1 # ; 3 3 * # : 3 : * 1 # : 3 1 1 3 4 * > > < # 1 3 : * # 1 ",
"r.8.8.C i.2.2.r.a :.2.s.2.2.V d.$.s.2.l U V f.2.K H d.$.8.f.v.a H f.2.V %.8.%.d.l ` 2.r.2.2.a r.2.2.a.L.f.V r.2.2.l i.:.r.r.l %.",
"7 3 3 ; 7 < 7 7 : 7 7 3 1 1 : 1 1 7 1 > 1 a M 3 1 1 6 1 7 8 F 4 a 9 1 1 1 1 1 8 : 3 7 6 7 7 : 1 < 7 7 9 l 1 7 7 1 > 6 6 7 3 ; 8 ",
"1 * * = : 1 * > * 3 2 1 # > > 1 1 # > * 1 = 5 1 > * 3 3 1 : 5 * = 5 1 * > 1 ; * * > 3 3 * ; = : 3 3 1 1 3 * : # ; = : : # > = : ",
"e.0 2.r.2.2.a $.i.:.0.r.s r.r.r.2.a r.i.H H f.f.d.%.%.d.P.d.v.5 H f.f.e.8.%.H V d.r.$.s.V _ r.8.%.v.v.f.v.V r.a 2.2.2.8.l 2.s.$.",
"1 * : < 1 1 ; ; 7 < 2 < ; 1 1 1 1 ; < 3 ; 4 f 6 < 1 3 3 8 3 0 4 y 5 6 1 1 3 ; ; 1 1 1 1 ; ; 1 1 3 7 3 8 l > < ; < 1 3 1 * < 3 1 ",
"' e * 3 > a 5 * t } } } & : > 4 a 4 5 8 * = a 9 9 ; 5 8 8 8 A = , 9 9 8 = 9 5 5 9 4 > 9 5 8 5 * 0 8 5 9 a e [ q > : : a 5 5 9 * ",
"E , 3 M j @.U 5 , r.j.n = p j j @.U U j 4 a $.U @.9 Y &.W b e.5 V ~ @.Y a @.&.$.0 0 9 ~ j @.M a &.W @.@.2.l K = 8 0 j @.@.M 0 5 ",
"*   * : * 1 : @ @ * > @ X ; ; > < ; ; 1 # = 4 1 1 * > : 1 : 5 & > 3 < : * ; 1 * : > * ; # 1 : * : : : 1 3 * @ o * > > 1 > ; 1 * ",
"` l s.s.$.8.~ a f.U r.l ` r.q.#.2.K ~ r.a l i.i.8.8.W s.f.f.f.5 V f.r.s.r.@.s.5 e.$.8.%.a s.r.2.&.f.f.d.r.H H H d.r.$.r.H H d.H ",
"< > 6 < 3 1 < : 6 < 6 : < 3 6 < 3 : < 1 < 5 f 7 6 1 3 7 6 3 9 , 5 a 7 1 7 3 1 ; 1 1 1 < : 1 < 7 3 6 3 7 a : : < 1 1 6 1 : < 1 1 ",
"4 4 5 * 8 8 5 4 * 5 8 4 5 : = 8 8 4 : * 4 : a 8 > > 8 5 8 8 9 & > a 5 * 3 8 8 4 = : 8 5 4 5 * 5 8 8 5 9 t > 4 5 3 * 8 5 5 : * 5 ",
"2.-.$.j q.@.$.2.a $.$.-.$.2.H r.@.-.2.V U H f.:.` ~ 2.@.8.f.v.C ' i.-.V ' :.@.q.H ~ @.2.-.:.l 0.&.&.8.v.f.l 2.-.:.V 2.@.2.2.V :.",
"< < < # < 1 1 1 # 1 < < < : * < ; 6 < # 1 5 f < ; > < < 3 3 8 > a 8 < ; : < < 3 ; : 3 < < < # < < 1 3 7 a : < < < # < < 3 1 # 3 ",
"8 > : 4 3 5 > > 4 5 8 8 * 4 : 8 5 = 3 4 4 > 8 5 3 : 8 8 5 5 9 = > 5 5 3 3 5 : > 4 3 5 8 > 1 4 3 5 8 5 8 5 > 8 * : 4 8 5 * : 3 5 ",
"q.H $.8.$.$.l ~ q.U -.2.a -.-.-.$.a 8.2.j H L.L.2.$.$.s.P.s.P.s ` L.a.q.&.,.E l 2.:.@.q.l $.2.$.&.L.f.s.f.F 2.a 4.4.,.:.l :.2.@.",
"< # $ ; < < # ; < < ; ; # ; ; < ; # ; < $ : 7 ; ; < : 1 1 < 5 > 4 3 < $ < 2 $ # < < ; < # $ < < 1 1 1 1 8 * ; @ # $ # * # # > # ",
"k.r , 8 , ~ l , s c.z.h., 4 5 5 U l a A > , H H Y , a H F j ~ , Z b.b.j.c z.h.h.h.g.Z z.k.c.o.` v.h.h.h.{ } k.+.l.[ [ l.+.+.k.[ ",
"d * > a p 0 f : * f n 8 & 5 8 9 0 f 0 9 > a M 0 9 8 9 9 0 9 U 5 s n f f s f f f p p t M d f f s 0 j M 9 t a f d d s g g g g n c ",
"= o : 3 > 3 3 @ - > 3 & @ 3 : , 3 > > 3 = = 5 5 5 , : 5 5 5 5 = , t 3 3 : 3 3 * 3 1 , : * 3 3 > 3 : ; 3 , : ; > 3 3 : 3 5 5 5 : ",
":.K r.2.:.` 2.l u.U 2.H ` s.2.~ 2.H ~ 2.j H f.r.8.8.U r.d.d.d.a H i.q.q.r.U r.a s.@.:.:.H r.2.-.~ 2.V s.U 2.H U i.2.@.2.f.f.f.' ",
"; # < $ < 1 $ # < $ < $ $ < ; < < ; $ < ; 3 8 1 ; ; 1 1 < < 5 * 3 8 < ; ; 1 ; # < ; < $ # ; ; < 1 ; # ; ; < $ $ < ; < < < < 3 3 ",
"l a a > j l a a = a j l a p > H j a t > 8 4 H V 5 3 F 0 j Y H , e U a > 8 F a V , 5 j l l a > a j a a = 9 j a a p > l l j H H t ",
"n n U a &.B M @.a U n n M U j @.M B @.a f H a.B j F @.j @.s.f.s ~ t.M j ~ M M @.a n n @.@.B a @.M f &.f B n @.B U f -.f n ,.f.2.",
"< < ; + < $ < < + < < < < $ + ; ; < ; # : 3 8 ; + $ < ; < < 8 * 5 7 ; + $ ; ; < # $ < < < ; + ; $ 1 < + ; < ; 1 $ + < $ < < 3 3 ",
"l > 5 a a a > 5 a a f a = p a f a * t a 8 4 j j a a 0 0 F j A > , H j a 9 a 5 : a a a j : 4 a a a : 4 a a a a > p a a a j j l t ",
"2.l @.@.@.@.H @.,.j U -.l ,.@.@.@.H $.$.a l d.a.$.@.@.$.f.r.f.s H f.a.$.U @.U H -.@.M ,.H $.-.@.@.j U 8.M @.-.l $.@.@.@.s.i.f.2."
};
