/* XPM */
static char *_9054a9cad58454a8a16c0af9a668e28dl7hMw6s3vrmJN8f[] = {
/* columns rows colors chars-per-pixel */
"64 64 147 2 ",
"   c #7E627D",
".  c #7B607A",
"X  c #725974",
"o  c #6B546B",
"O  c #795F78",
"+  c #735972",
"@  c #6E566E",
"#  c #122C2F",
"$  c #6A536A",
"%  c #59495C",
"&  c #7C607C",
"*  c #0F1F28",
"=  c #153434",
"-  c #665166",
";  c #7C617B",
":  c #7A607A",
">  c #765C76",
",  c #534556",
"<  c #55415C",
"1  c #59425E",
"2  c #694974",
"3  c #61456A",
"4  c #63476B",
"5  c #68496F",
"6  c #513E56",
"7  c #5A416A",
"8  c #573F68",
"9  c #574069",
"0  c #5C4364",
"q  c #583F69",
"w  c #533D63",
"e  c #523D5C",
"r  c #574062",
"t  c #5E4368",
"y  c #5E4468",
"u  c #624570",
"i  c #4C3A5C",
"p  c #0D1A25",
"a  c #66496E",
"s  c #3D324C",
"d  c #483756",
"f  c #42354D",
"g  c #473951",
"h  c #4B3A54",
"j  c #433945",
"k  c #49375C",
"l  c #12282D",
"z  c #46394D",
"x  c #3B3245",
"c  c #674871",
"v  c #644671",
"b  c #6A4A77",
"n  c #5E436D",
"m  c #6A4A75",
"M  c #63466D",
"N  c #664774",
"B  c #704D7B",
"V  c #6E4C79",
"C  c #163C37",
"Z  c #6E4C77",
"A  c #65476E",
"S  c #60446A",
"D  c #433455",
"F  c #44345A",
"G  c #3E3152",
"H  c #392F48",
"J  c #604567",
"K  c #60446E",
"L  c #5F446E",
"P  c #5D4170",
"I  c #724E7C",
"U  c #6F4D7B",
"Y  c #392F47",
"T  c #604468",
"R  c #132D30",
"E  c #674874",
"W  c #67486E",
"Q  c #5B4963",
"!  c #674778",
"~  c #6B4977",
"^  c #664770",
"/  c #614C65",
"(  c #7A5C7E",
")  c #4D3961",
"_  c #4A3760",
"`  c #3A333C",
"'  c #493A4E",
"]  c #64466D",
"[  c #644672",
"{  c #143032",
"}  c #6A4A71",
"|  c #0F1D27",
" . c #163835",
".. c #0E1D26",
"X. c #0F222A",
"o. c #18413B",
"O. c #17403A",
"+. c #1A5836",
"@. c #413645",
"#. c #4F405B",
"$. c #755A7A",
"%. c #7D5D81",
"&. c #332F37",
"*. c #342F3A",
"=. c #37303C",
"-. c #1A5E33",
";. c #1A672F",
":. c #1A5537",
">. c #1A6B2D",
",. c #73537C",
"<. c #664773",
"1. c #19443C",
"2. c #348B39",
"3. c #1A4F3B",
"4. c #4E4252",
"5. c #554857",
"6. c #247932",
"7. c #4AA244",
"8. c #6B4A76",
"9. c #6F5278",
"0. c #6D5274",
"q. c #67526B",
"w. c #76D070",
"e. c #368C39",
"r. c #85E096",
"t. c #2A7F34",
"y. c #72C761",
"u. c #11272D",
"i. c #775080",
"p. c #7FDA8A",
"a. c #473858",
"s. c #94ECA8",
"d. c #60466E",
"f. c #A0F6BB",
"g. c #9CF2B3",
"h. c #90E9A2",
"j. c #684975",
"k. c #745A74",
"l. c #6F5872",
"z. c #685167",
"x. c #6E586E",
"c. c #735A73",
"v. c #5A426A",
"b. c #5F446A",
"n. c #6C4B78",
"m. c #76CF6E",
"M. c white",
/* pixels */
"  .   X o   O O O o + . .   @ + # # #   $ %   & * * * . = = = - ; ;   O $   O O . + o   : . > o   O O . O $ O , < 1 1 2 3 4 5 6 ",
"7 8 8 9 0 q 7 7 w e r 7 w 9 r 9 8 # # t y < u 7 * * * 7 7 = = i 0 8 8 8 r 8 7 7 w p p 9 p 9 9 r 9 7 9 9 a 0 e s d w w 8 7 8 w d ",
"d f e i d e d f w d i f g w h i e w e w g j r e w h i e f k e g i s 6 l p p p p p p p p p e i h i e e w e z j x 6 i h e g g e h ",
"c 3 2 2 v v 2 0 b n m 4 M b 2 M N B B V 4 1 V m 2 2 n 2 0 2 N u 2 y l l C C p p p p p p p p p c v V V V Z 3 3 M b 2 v N A M m S ",
"D s F D F F D s D D F s G D G F F F D i h h w F D G F F s G D D D p p C C C C p p p p p p p D F k D F k e D G G F D F F G H F D ",
"J 0 0 g t S 3 0 g 0 y 3 y r d M t t u v e z A K e e M t y e i t S p C C C C C p p p p p p p g t t L K M 0 6 y t 8 g 3 L 0 0 d t ",
"L P u 7 v q P u 7 n P P 7 L y v q L 2 I 5 1 V q L t P q u = = = L p C C C C C p p p p p P u 0 u L L u U I 0 L P K 0 u q L K 0 L ",
"D D G H D G F F Y F F D D G s D D F F i h h w D s s D F F = = = D * * C C C C p p p p p D D H G G F F F i f D D D Y D D F D H F ",
"S h e T 0 0 6 e y 0 t 0 g 0 0 0 y M 3 M 6 g S S 0 R R R p = = = t * * p p p p p p p 0 S d 6 y 0 7 M y M J d 3 z 8 1 0 8 g 8 1 T ",
"u q K q K K q q u 7 L M 8 K L L P U E b W Q B ! P R R R p p M p p p p p p p p p p = = u 0 t u L L U b v I 0 u 0 K K L L 0 K A 8 ",
"D H f D D D H f F G D D Y D G D d C C C C C i D D R R R p p p p p p * p p p p Y = = = = f s G D D D d d i z F x s G D d x G d d ",
"m W m 3 e ~ ^ ^ c < 0 2 A m 1 0 2 C C C C C 2 5 2 e a = p p p p p p p p p p p = = = = = Q h 3 < m v 5 2 2 / O < e J 0 2 c h / ( ",
"w k ) i 6 ) w i k g k ) i _ i i ) C C C C C 9 ) i d = = = p p p p p p p p p p = = = = = x s i d ) ) ) ) 8 d d ` g i i i ) f x i ",
"e g q 8 e 8 e g 0 e 0 d e 0 8 e 0 C C C C C y 0 0 0 w = p p p p p p p p p p 0 z = = = = j 1 0 w 0 t t 0 0 6 ' ' 8 0 e 8 h h 1 < ",
"] q W K K L K q N q [ t q u K t u C C C C C 2 c u u 7 v p p p p l l l p p q v 8 v 7 P u 0 u u P 7 ! 2 ~ m 0 q L v K L L L t c 9 ",
"f H D G D D D H G D D H D D G d F G D k g z w F G G { { H p p p l l l p p F D Y G G D G s D G D F D D D i f H H D D F F H s G D ",
"^ ^ 3 6 } A W W 6 3 5 5 5 T 6 2 A 2 m B 0 | m 5 0 1 { { 2  . ...X.X.X.p 3 c A c e Q A 2 a A 6 a c A 2 m 5 1 2 a J 6 2 v 2 3 6 A ",
"q q q w t 8 q q w q C C o.8 8 t w 8 L b 3 1 2 8 8 0 q w  . . . .X.X.X.w 7 8 w 7 8 8 8 8 8 7 w 7 8 8 L E m r 9 9 7 r q w 8 7 w 0 ",
"D D G Y G D D D Y C C O.O.s Y D D D D k g z i D H s G  . . . . .X.X.X.Y s G D D Y f d D D G x G D D D F i s F D G x D D D D x D ",
"^ e 0 A A A e 0 W C C C C 3 A A A m 2 m 1 h 2 m * * *  . . . . .....< 2 a v 0 e } 3 3 2 e 0 a A M m 2 2 a < c h 3 4 M M h 3 a M ",
"q e 8 8 8 8 e 8 q C C C C 8 8 8 8 N L v 3 0 ~ q * * * p  . . . .....= = q q 8 +.+.8 w 8 e 8 8 8 8 N u n 2 r 9 e 8 8 8 8 w 8 0 ) ",
"F f f D G k s f k f D D @.d H D F d d i g j i k * * d p p p p * * ..= = * d f +.+.+.h 6 f s D s F F d d h z #.x s s D k f D k s ",
"V ^ m A J m 2 2 ^ 0 S m N V 0 A V 2 2 V 4 e m m 2 p p p p p p o.o.o.z * * * 2 y +.$.%.%.y 6 A 0 m 2 m m V a $.#.0 3 S m 2 ~ 2 < ",
"F F F D g k k F F f D F F F g g k k d i 6 g e k p p p p p +.+.+.+.+.o.d f F k g &.s k D *.x D g k k k k < g s =.s g g F k F D f ",
"8 6 W W T S 0 6 W 0 3 e 1 v 3 y 3 2 v 5 < z 5 A p p p p +.+.+.+.+.+.+.A 3 t M h 3 T S 0 6 4 A J K ^ ^ ^ 3 1 6 e A A y A e e W 0 ",
"8 8 q 8 8 q 8 8 q w q 8 q q 7 8 t P L v y < p p p p p -.p +.+.+.+.+.+.* * * L e q 8 8 q w 0 q q 8 K K K a w 0 8 q 8 8 q 0 8 7 w ",
"f f D H d d D H H D d f f D s k k d D i z f -.-.-.-.-.-.-.;.;.o.:.+.g s D k D x H D d D f D H d d d D d d f s f D s F d f s s D ",
"m m } 1 Z ^ 2 ~ 0 W ~ } m 3 0 m ^ m I I 3 -.-.-.-.-.-.-.-.;.>.>.C :.:.:.* m 2 = = M c m 2 ^ 0 } ^ ~ B ,.Z y V 2 v 1 Z 2 } 2 0 v ",
"w w ) i 8 ) w w i w w ) w ) i w ) w 8 L 0 -.-.-.-.-.-.-.;.;.;.>.>.;.;.:.o.o.o.o.o.= = ) w w i 8 ) w 8 q A 6 w ) 8 i w ) w w i w ",
"D G f f D D f D H g d d G G s F D F d F -.-.-.-.-.-.-.;.;.;.;.;.;.;.;.:.o.o.o.o.o.o.o.= = G x D D F d F i f D G s H D D G D x d ",
"V e W m <.^ 0 3 Z W m m e m } ^ 2 I I I p -.p p 1.1.;.;.;.;.;.;.;.;.>.;.o.o.o.o.o.o.o.>.>.>.>.>.2 I I I m 0 Z e ^ m ^ 2 1 A m v ",
") k i i i ) i k w k i ) d i i w i w w 0 p p p w 1.2.2.2.2.2.2.;.>.>.>.>.>.* o.o.o.o.o.>.>.>.>.>.>.i w w 0 d w d ) ) w i k ) w k ",
"' g g j x h z z ' x z g z g x j h g ' h ` j p p 3.2.2.2.2.2.2.2.2.>.>.>.>.>.>.>.2.2.o.< >.>.>.>.>.>.z h z 4.Q 5.% < < Q , Q Q i ",
"m [ ~ A J V 2 v v 0 3 N ~ 2 3 A 2 2 c 6.6.>.>.3.3.2.2.2.2.2.2.7.7.7.>.>.>.2.2.2.2.2.2.,.>.>.>.>.>.>.>.8.m J ,.,.9.0.0.,.9.9.9.q.",
"D D k D f D d D d s f D D D f D d D 6.6.6.>.>.3.2.2.2.2.2.7.7.7.7.7.7.7.>.>.2.2.2.2.2.2.=.>.>.>.>.>.>.d e f D G D D f F D D D s ",
"3 e m m A ^ 3 1 m 3 2 0 3 2 2 M 6.6.6.w.6.>.e.e.e.e.7.7.7.7.7.7.7.7.7.7.7.7.>.2.2.2.2.2.2.* >.>.>.>.V m ^ 0 Q y V 2 M c Q y m y ",
"e i 8 ) w w ) i 8 k w i i w ) ) 6.6.w.w.w.e.e.e.7.7.r.r.r.7.7.7.7.7.7.7.7.7.C C 2.2.2.2.2.* ) >.>.>.>.8 y i i ) w ) w w i e w _ ",
"d g d H k i d f s d k g g d G i w.w.w.w.w.w.e.r.r.r.r.r.r.r.r.7.7.7.7.7.7.7.7.C 2.2.2.2.2.* * d i >.k i 6 f g g F s k i d f s k ",
"m ~ ~ J V 2 2 m 0 c 2 V 2 2 J w.w.w.w.w.w.w.r.r.r.r.r.r.r.r.r.r.r.t.t.7.7.7.7.y.C C u.2.2.2.* * 2 2 U i.I J m 2 2 y V c m m y ^ ",
") i i D ) F ) ) d ) ) i k k d w.w.w.w.w.r.r.r.r.r.r.r.r.r.r.r.r.r.r.t.t.p.p.p.y.y.y.y.* * * * * y.) ) 8 y k ) ) k g _ _ ) i D w ",
"k f f z d k f g f i a.k s g w.w.w.w.w.w.r.r.r.r.r.r.r.r.r.r.r.r.r.r.p.p.p.p.p.p.p.p.y.y.* * * y.y.y.k k i f d s D z d d s g z d ",
"Z q 2 m 2 2 0 v V c 8.m Q m w.w.w.w.w.r.r.r.r.r.r.r.r.r.r.r.r.p.p.p.p.p.p.p.p.p.p.p.p.y.y.* * y.y.y.y.I ,.J m 0 2 2 2 ~ y 2 V v ",
"k f d F k k D D ) F a.F D k w.w.w.w.r.r.r.r.r.r.r.r.r.r.r.r.r.p.p.p.p.p.p.p.p.p.p.p.p.y.y.y.* y.y.y.y.y.y g F D F k i k f F i k ",
"5 , f i g 0 e f < q.q.q.j d w.s.s.s.r.r.r.r.r.r.r.r.r.r.r.r.r.p.p.p.p.p.p.p.p.p.p.p.p.y.y.y.y.y.y.y.y.y.0 , - 4.g d d 0 e e 8 f ",
"d.h i L t u M e h m 9.n z r p s.s.s.r.r.r.r.r.r.r.r.r.r.r.r.r.p.p.p.p.p.p.p.p.p.p.p.p.p.y.y.y.y.y.y.y.y.2 y 4 z w q t u u L q e ",
"f &.f d f k d x x f g x =.D s.s.s.r.r.r.r.r.r.r.r.r.r.r.r.r.r.p.p.p.p.p.p.p.p.p.p.p.p.p.p.y.y.f y.y.y.y.i f x ` f g g k g D k f ",
"a y V V v ~ A 0 I M m y a m s.s.s.r.r.r.r.r.r.r.f.f.r.r.r.r.r.p.p.p.p.p.p.p.p.p.p.p.p.p.p.y.y.2 y.y.y.y.y.3 3 3 B m v m 3 3 B 3 ",
"F g _ F i k F d _ F _ d F i s.s.s.r.r.r.r.r.f.f.f.f.r.r.r.r.r.p.p.p.p.p.p.p.p.p.p.p.p.p.p.y.y.y.i y.y.y.0 d d F k k _ k d F k k ",
"6 6 e f w w e 6 f e w 6 e d s.s.s.;.r.r.r.r.f.f.f.f.r.r.r.r.p.p.p.p.p.p.p.p.p.p.p.p.p.p.y.y.y.y.w w y.y.< g 6 e i f w e e d f e ",
"2 N v t b u v 2 0 v v N v 2 s.s.s.;.r.r.r.r.f.f.f.f.r.r.r.g.f.f.f.p.p.p.p.p.p.p.p.p.p.p.y.y.y.y.[ [ ~ ,.I y 2 N c J 2 u 2 2 J c ",
"F F F s F k k k s k F F F d f p ;.;.h.f.f.f.f.f.g.g.g.g.g.g.f.f.f.f.f.f.p.p.p.p.p.p.f.y.y.y.y.y.F k i ) 0 d F F F s F F i k s i ",
"w g d 6 i e g g 6 e w w f 6 d p ;.;.h.f.f.f.f.f.g.g.g.g.g.g.f.f.f.f.f.f.p.p.p.p.p.f.f.y.y.y.y.y.e w e w e g w f d 6 w e f d i e ",
"b 3 v ~ v v y A b M N 2 0 N N = ;.;.h.f.f.f.f.f.g.g.g.g.g.g.g.f.f.f.f.f.p.p.p.p.p.f.f.f.f.y.y.y.[ i.I V I S 2 0 j.j.E c y c 2 u ",
"F s G D F F s D F F D D s D D = ;.;.h.f.f.f.g.g.g.g.g.g.g.g.g.f.f.f.f.f.p.p.p.p.f.f.f.f.f.y.y.F k k k k w f D x s G s f s s g s ",
"+ 5.h w h A y h Q X k.l.h 6 e e = h.f.f.f.f.g.g.g.g.g.g.g.g.g.f.f.f.f.p.p.p.p.p.f.f.f.f.f.y.r.a ,.l.l.l.z.q.+ x.c.- - c.x.x.+ - ",
"9 f g 0 r q 7 d f 7 n w j e w 8 = = h.f.f.g.g.g.g.g.g.g.g.g.g.g.g.g.g.p.p.p.p.f.f.f.f.f.y.r.7 Q q t L 8 < 0 7 9 9 Q v.v.v.v.n b.",
"z ` d i g i i x ' g i j x i d h = = h.f.f.g.g.g.g.g.g.g.g.g.g.g.g.g.g.p.f.f.f.f.f.f.f.f.r.r.i g i d D i h d D g i i d i e e e d ",
"c 4 m 2 c a 2 y n.M 2 3 a V 2 A 2 = h.f.f.f.g.g.g.g.g.g.g.g.g.g.g.g.f.f.f.f.f.f.f.f.f.f. . .2 N A 2 J V M 2 3 M V 2 u 2 I I I 5 ",
"D s F G F k G s F G F G G F D F F = h.h.h.f.g.g.g.g.g.g.g.g.g.g.g.g.f.f.f.f.f.f.f.f.f.m. .D D F k D s D D F G G F D F F F F i i ",
"y 0 0 g t y 0 0 z 0 t y 0 r g 3 t 0 < g w 6 3 J e i S q t K 3 h , M 0 g w S 0 J h e t y y 0 g 0 t 0 0 z 8 t 0 0 r g y y t 3 3 < ",
"n n M 0 [ P L u 0 M n n L M t u L P u 0 7 3 U P t S u t u V I Q A ! L t A L L u 0 n n u u P 0 u L 7 [ 7 P n u P M 7 N 7 n E I 2 ",
"F F D H F G F F H F F F F G H D D F D s d i w D H G F D F F w f e ) D H G D D F s G F F F D H D G k F H D F D k G H F G F F i i ",
"y g e 0 0 0 g e 0 0 7 0 z r 0 7 0 f < 0 w 6 t t 0 0 q q S t T g h 3 t 0 8 0 e d 0 0 0 t d 6 0 0 0 d 6 0 0 0 0 g r 0 0 0 t t y < ",
"2 y u u u u 3 u E t M N y E u u u 3 v v 0 y B U v u u v I m I Q 3 I U v M u M 3 N u L E 3 v N u u t M ~ L u N y v u u u V V I 2 "
};
