/* XPM */
static char *_e50be00c978486cffda70e2f67b8800KPEy38De9WMt3LkN[] = {
/* columns rows colors chars-per-pixel */
"64 64 148 2 ",
"   c #7E627D",
".  c #7B607A",
"X  c #725974",
"o  c #6B546B",
"O  c #795F78",
"+  c #735972",
"@  c #6E566E",
"#  c #6A536A",
"$  c #59495C",
"%  c #7C607C",
"&  c #765C76",
"*  c #665166",
"=  c #7C617B",
"-  c #7A607A",
";  c #534556",
":  c #55415C",
">  c #59425E",
",  c #694974",
"<  c #61456A",
"1  c #63476B",
"2  c #68496F",
"3  c #513E56",
"4  c #5A416A",
"5  c #573F68",
"6  c #574069",
"7  c #5C4364",
"8  c #583F69",
"9  c #533D63",
"0  c #523D5C",
"q  c #574062",
"w  c #5E4368",
"e  c #5E4468",
"r  c #624570",
"t  c #4C3A5C",
"y  c #66496E",
"u  c #3D324C",
"i  c #483756",
"p  c #42354D",
"a  c #473951",
"s  c #4B3A54",
"d  c #433945",
"f  c #49375C",
"g  c #433455",
"h  c #46394D",
"j  c #3B3245",
"k  c #674871",
"l  c #644671",
"z  c #6A4A77",
"x  c #5E436D",
"c  c #6A4A75",
"v  c #63466D",
"b  c #664774",
"n  c #704D7B",
"m  c #6E4C79",
"M  c #6E4C77",
"N  c #65476E",
"B  c #60446A",
"V  c #44345A",
"C  c #3E3152",
"Z  c #153735",
"A  c #392F48",
"S  c #604567",
"D  c #60446E",
"F  c #604468",
"G  c #5F446E",
"H  c #5D4170",
"J  c #724E7C",
"K  c #0F1F28",
"L  c #0D1A25",
"P  c #6F4D7B",
"I  c #392F47",
"U  c #674874",
"Y  c #67486E",
"T  c #5B4963",
"R  c #674778",
"E  c #10252B",
"W  c #6B4977",
"Q  c #664770",
"!  c #6F5872",
"~  c #7A5C7E",
"^  c #614C65",
"/  c #4D3961",
"(  c #4A3760",
")  c #0F1F27",
"_  c #3A333C",
"`  c #143032",
"'  c #493A4E",
"]  c #64466D",
"[  c #644672",
"{  c #1A483F",
"}  c #6A4A71",
"|  c #0E1E27",
" . c #18413B",
".. c #1A5A35",
"X. c #173D38",
"o. c #1A5238",
"O. c #413645",
"+. c #1A4D3C",
"@. c #4F405B",
"#. c #755A7A",
"$. c #7D5D81",
"%. c #342F3A",
"&. c #37303C",
"*. c #1A6232",
"=. c #122C2F",
"-. c #73537C",
";. c #1A5E33",
":. c #459C40",
">. c #318737",
",. c #664773",
"<. c #554857",
"1. c #564859",
"2. c #4E4252",
"3. c #63B74F",
"4. c #6D5274",
"5. c #6B4A76",
"6. c #6F5278",
"7. c #67526B",
"8. c #2A7F34",
"9. c #2B8035",
"0. c #1A6B2D",
"q. c #85E096",
"w. c #5BAF4B",
"e. c #775080",
"r. c #83DE91",
"t. c #91E9A6",
"y. c #473858",
"u. c #11262C",
"i. c #499F42",
"p. c #77D477",
"a. c #5FB34D",
"s. c #60466E",
"d. c #332F37",
"f. c #8EE7A2",
"g. c #9EF3B8",
"h. c #11292E",
"j. c #684975",
"k. c #745A74",
"l. c #A4F8C0",
"z. c #685167",
"x. c #6E586E",
"c. c #735A73",
"v. c #5A426A",
"b. c #5F446A",
"n. c #6C4B78",
"m. c #A0F6BB",
"M. c #1A473E",
"N. c white",
/* pixels */
"  .   X o   O O O o + . .   @ +   O O   # $   %   # & . O O O * = =   O #   O O . + o   - . & o   O O . O # O ; : > > , < 1 2 3 ",
"4 5 5 6 7 8 4 4 9 0 q 4 9 6 q 6 5 8 5 w e : r 4 5 q 6 4 4 5 5 t 7 5 5 5 q 5 4 4 9 q : 6 9 6 6 q 6 4 6 6 y 7 0 u i 9 9 5 4 5 9 i ",
"i p 0 t i 0 i p 9 i t p a 9 s t 0 9 0 9 a d q 0 9 s t 0 p f 0 a t u 3 0 i t t p t t i i g 0 t s t 0 0 9 0 h d j 3 t s 0 a a 0 s ",
"k < , , l l , 7 z x c 1 v z , v b n n m 1 > m c , , x , 7 , b r , e , , , r , 7 m r k b e , , k l m m m M < < v z , l b N v c B ",
"g u V g V V g u g g V u C g C V V V Z Z s s 9 V g C V V u C g g g u V g g V g u g g V C A g g V f g V f 0 g C C V g V V C A V g ",
"S 7 7 a w B < 7 a 7 e < e q i v w w Z Z 0 h N D 0 0 v w e 0 t w B F 7 i 7 B w S s 0 G w w w a w w G D v 7 3 e w 5 a < G 7 7 i w ",
"G H r 4 l 8 H r 4 x H H 4 G e l 8 G , J 2 > m 8 G w H K r w w G G G 8 G G G 4 L w G 4 H H r 7 r G G r P J 7 G H D 7 r 8 G D 7 G ",
"g g C A g C V V I V V g g C u g g V V t s s 9 g u u g V V C u V g V g A L L L L L L L V g g A C C V V V t p g g g I g g V g A V ",
"B s 0 F 7 7 3 0 e 7 w 7 a 7 7 7 e v < v 3 a B B 7 7 w 9 a 7 e 7 w 0 L L L L L L L L L L i 3 e 7 4 v e v S i < h 5 > 7 5 a 5 > F ",
"r 8 D 8 D D 8 8 r 4 G v 5 D G G H P U z Y T n R H G v w 7 K v 6 E E E L L L L L L L L L L w r G G P z l J 7 r 7 D D G G 7 D N 5 ",
"g A p g g g A p V C g g I g C g i g V t a h t g g C i C j C f g E E E L L L L L L L L L L u C g g g i i t h V j u C g i j C i i ",
"c Y c < 0 W Q Q k : 7 , N c > 7 , k k , 7 3 , 2 , 0 y , S L ! ~ E E E L L L L L L L L L L s < : c l 2 , , ^ O : 0 S 7 , k s ^ ~ ",
"9 f / t 3 / 9 t f a f / t ( t t / / / 9 : s 6 / t K K / L L L L L L ) E L L L L L L L L L u t i / / / / 5 i i _ a t t t / p j t ",
"0 a 8 5 0 5 0 a 7 0 7 i 0 7 5 0 7 w 7 w 3 h e 7 7 K K 7 L L L L ` L ) E E L L L L K L L d > 7 9 7 w w 7 7 3 ' ' 5 7 0 5 s s > : ",
"] 8 Y D D G D 8 b 8 [ w 8 r D w r R , , < > , k r r 4 l L L ` ` ` ` L E E L L L L L L L 7 r r H 4 R , W c 7 8 G l D G G G w k 6 ",
"p A g C g g g A C g g A g g C i V C g f a h 9 V C C V L { { { ` ` L L L L L L L L L L C u g C g V g g g t p A A g g V V A u C g ",
"Q Q < 3 } N Y Y 3 < 2 2 2 F 3 , N , c n 7 3 c 2 7 > , K { { { { L L L L L L L L L L N , y N 3 y k N , c 2 > , y S 3 , l , < 3 N ",
"8 8 8 9 w 5 8 8 9 8 5 5 5 5 5 w 9 5 G z < > , 5 5 7 K K { { { { L | | L L L L L L 5 5 5 5 4 9 4 5 5 G U c q 6 6 4 q 8 9 5 4 9 7 ",
"g g C I C g g g I g V g g u I g g g g f a h t g A u L K L { { | | | | L L L L L L p i g g C j C g g g V t u V g C j g g g g j g ",
"Q 0 7 N N N 0 7 Y v N N 3 < N N N c , c > s  . . . .L K L L | ....X.X.X.L L L 0 } < < , 0 7 y N v c , , y : k s < 1 v v s < y v ",
"8 0 5 5 5 5 0 5 8 9 5 8 9 5 5 5 5 b G l <  . . . . . .o.o.L ..........X.L L E 9 8 5 9 5 0 5 5 5 5 b r x , q 6 0 5 5 5 5 9 5 7 / ",
"V p p g C f u p f p g g O.i A g V i i t a  . .+.+. .o.o.o.............X.L L p j K t s 3 p u g u V V i i s h @.j u u g f p g f u ",
"m Q c N S c , , Q 7 B c b m 7 N m , , m 1  .+.+.+.+.o.o.o.............| L L , e @.#.$.$.e 3 N 7 c , c c m y #.@.7 < B c , W , : ",
"V V V g a f f V V p g V V V a a f f i t 3  .+.+.+.+.o.o.o.o...........` L V f a +.+.+.g %.j g a f f f f : a u &.u a a V f V g p ",
"5 3 Y Y F B 7 3 Y 7 < 0 > l < e < , l 2 : h  .+.+.+.o.o.o.o...........` < w v +.+.+.+.+.3 1 N S D Q Q Q < > 3 0 N N e N 0 0 Y 7 ",
"5 5 8 5 5 8 5 5 8 9 8 5 8 8 4 5 w H G l *.*.*.*. . .o.o.o.E E E | =.| 5 4 5 +.+.+.+.+.+.+.7 8 8 5 D D D y 9 7 5 8 5 5 8 7 5 4 9 ",
"p p g A i i g A A g i p p g u f f i g *.*.*.*.*.*.*.o.o.o.K E E  . . . .g f +.+.+.+.+.+.+.g A i i i g i i p u p g u V i p u u g ",
"c c } > M Q , W 7 Y W } c < 7 c Q c J *.*.*.*.*.*.L L o.o.o.o.o.X.X.X. . . ., m +.+.+.+.+.Q 7 } Q W n -.M e m , l > M , } , 7 l ",
"9 9 / t 5 / 9 9 t 9 9 / 9 / ;.;.;.;.;.*.*.*.*. . . . .o.o.o. .:.:.X.X.X.X./ / 5 0 9 +.+.9 9 t 5 / 9 5 8 N 3 9 / 5 t 9 / 9 9 t 9 ",
"g C p p g g p g A a i i C C ;.;.;.;.i K *.=. . . . . .o.o.:.:.:.:.:.:.:.X.X.X.>.>.g V i C C j g g V i V t p g C u A g g C g j i ",
"m 0 Y c ,.Q 7 < M Y c c 0 c ;.;.;.;.J J S =. . . . . .:.:.:.:.:.:.:.:.:.:.X.X.>.>.>.Q n 7 < c c , J J J c 7 M 0 Q c Q , > N c l ",
"/ f t t t / t f 9 f t / i t ;.;.t 9 9 7 =. . . .L E E :.:.:.:.:.:.:.:.:.:.X.X.X.X.>.>.t i t t t t t 9 9 7 i 9 i / / 9 t f / 9 f ",
"' a a d j s h h ' j h a h a j d s a ' s _ d L L E E E E :.:.:.:.:.:.:.:.:.:.h d X.<.1.: 2._ p j ' h h s h 2.T <.$ : : T ; T T t ",
"c [ W N S m , l l 7 < b W , < N , , k l : L L L E E E 3.3.3.3.3.:.:.:.:.:.:.Q B *.4.$.-.: s y e 5., , 5.c S -.-.6.4.4.-.6.6.6.7.",
"g g f g p g i g i u p g g g p g i g g g L L E E X.3.3.3.3.3.3.3.3.3.8.8.9.Z Z Z *.*.*.*.*.j g p V a i i 0 p g C g g p V g g g u ",
"< 0 c c N Q < > c < , 7 < , , v , 7 S L L L X.3.3.3.3.3.3.3.3.3.3.3.3.3.8.9.9.Z *.*.*.*.*.*.c y r J m c Q 7 T e m , v k T e c e ",
"0 t 5 / 9 9 / t 5 f 9 t t 9 / / 9 t L L L L 3.3.3.3.3.3.3.3.3.3.3.3.3.3.8.8.0.0.0.0.*.*.*.*.*.9 9 9 5 5 e t t / 9 / 9 9 t 0 9 ( ",
"i a i A f t i p u i f a a i C t f L L L | 3.3.3.3.3.3.3.3.3.3.3.3.3.3.3.8.8.0.0.0.0.0.*.*.*.*.i t f f t 3 p a a V u f t i p u f ",
"c W W S m , , c 7 k , m , , S n l L L L | 3.3.3.3.3.3.3.3.3.3.q.q.q.q.q.3.w.0.0.0.0.0.0.*.*.*.*., , P e.J S c , , e m k c c e Q ",
"/ t t g / V / / i / / t f f i f L L L L | 3.3.3.3.3.3.r.r.t.t.t.t.t.t.q.q.q.q.q.0.0.0.0.0.*.*.*.V / / 5 e f / / f a ( ( / t g 9 ",
"f p p h i f p a p t y.f u a a L L L L | 3.3.3.3.3.3.r.t.t.t.t.t.t.t.t.q.q.q.q.q.q.q.0.0.0.0.*.*.t t f f t p i u g h i i u a h i ",
"M 8 , c , , 7 l m k 5.c T c c L L L | u.i.3.3.3.t.t.t.t.t.t.t.t.t.t.t.t.t.t.t.q.q.q.0.0.0.0.*.*.*.-.-.J -.S c 7 , , , W e , m l ",
"f p i V f f g g / V y.V g f L L L L V u.i.i.3.3.t.t.t.t.t.t.t.t.t.t.t.t.t.t.t.t.q.q.0.0.0.0.f f t / t 9 e a V g V f t f p V t f ",
"2 ; p t a 7 0 p : 7.7.7.d i a L L p.a.i.i.i.r.r.t.t.t.t.t.t.t.t.t.t.t.t.t.t.t.t.q.q.q.q.q.0.0.p 8 9 0 5 7 ; * 2.a i i 7 0 0 5 p ",
"s.s t G w r v 0 s c 6.x h q w w p.p.p.i.i.i.r.t.t.t.t.t.t.t.t.t.t.t.t.t.t.t.t.t.q.q.q.q.q.q.q.| [ ] r r , e 1 h 9 8 w r r G 8 0 ",
"p d.p i p f i j j p a j &.g g p.p.p.p.i.f.t.t.t.t.t.t.t.t.t.t.t.t.t.t.t.t.t.t.t.t.t.q.q.q.q.q.| i i i f t p j _ p a a f a g f p ",
"y e m m l W N 7 J v c e y c z p.p.p.p.i.f.t.t.t.t.t.t.t.t.t.t.t.t.t.t.t.t.t.t.t.t.t.q.q.q.q.q.q.[ J J n c < < < n c l c < < n < ",
"V a ( V t f V i ( V ( i V t p.p.p.p.i.f.f.t.t.t.t.t.t.t.t.t.t.t.t.t.t.t.t.t.t.t.t.g.g.q.q.q.q.q.q.( t / 7 i i V f f ( f i V f f ",
"3 3 0 p 9 9 0 3 p 0 9 3 0 i p.p.p.p.f.f.f.t.t.t.t.t.t.t.t.t.t.t.t.t.t.t.t.t.t.t.t.g.g.g.g.q.q.q.q.9 0 5 : a 3 0 t p 9 0 0 i p 0 ",
", b l w z r l , 7 l l b l , p.p.p.p.f.f.f.t.t.t.t.t.t.t.t.t.t.t.t.t.t.t.t.t.t.t.g.g.g.g.g.q.q.q.q.[ W -.J e , b k S , r , , S k ",
"V V V u V f f f u f V V V i p.p.p.p.f.f.f.t.t.t.t.t.t.t.t.t.t.t.t.t.t.t.t.t.t.t.g.g.g.g.g.g.q.q.q.f t / 7 i V V V u V V t f u t ",
"9 a i 3 t 0 a a 3 0 9 9 p 3 p.p.p.p.f.f.t.t.t.t.t.t.t.t.t.g.t.t.t.t.t.t.t.t.t.t.g.g.g.g.g.g.q.q.q.9 0 9 0 a 9 p i 3 9 0 p i t 0 ",
"z < l W l l e N z v b , 7 b h.a.a.r.r.r.g.g.g.g.g.g.g.g.g.g.t.t.t.t.t.t.t.t.g.g.g.g.g.g.g.g.g.q.q.e.J m J B , 7 j.j.U k e k , r ",
"V u C g V V u g V V g g u g h.a.a.r.r.r.r.g.g.g.g.g.g.g.g.g.t.t.t.t.t.t.t.t.g.g.g.g.g.g.g.g.g.q.q.f f f 9 p g j u C u p u u a u ",
"+ <.s 9 s N e s T X k.! s 3 h.h.r.r.r.l.r.g.g.g.g.g.g.g.g.g.g.t.t.t.t.t.t.t.g.g.g.g.g.g.g.g.g.q.q.! ! ! z.7.+ x.c.* * c.x.x.+ * ",
"6 p a 7 q 8 4 i p 4 x 9 d 0 9 h.r.r.r.l.l.l.l.l.g.g.g.g.g.g.g.t.t.t.t.t.t.t.g.g.g.g.g.g.g.g.g.q.q.w G 5 : 7 4 6 6 T v.v.v.v.x b.",
"h _ i t a t t j ' a t d j t i s r.r.l.l.l.l.l.l.g.g.g.g.g.g.g.t.t.t.t.t.t.t.g.g.g.g.g.g.g.g.q.q.q.i g t s i g a t t i t 0 0 0 i ",
"k 1 c , k y , e n.v , < y m , N h.r.r.l.l.l.l.l.g.g.g.g.g.g.g.g.g.g.g.t.t.g.g.g.g.g.g.g.g.g.q.q.N , S m v , < v m , r , J J J 2 ",
"g u V C V f C u V C V C C V g V h.r.l.l.l.l.l.l.l.l.g.g.g.g.g.g.g.g.g.t.m.g.g.g.g.g.g.g.g.g.q.V f g u g g V C C V g V V V V t t ",
"e 7 7 a w e 7 7 h 7 w e 7 q a < w r.l.l.l.l.l.l.l.l.l.l.m.m.m.m.m.m.m.m.m.g.g.g.g.g.g.g.g.M.a 7 w 7 7 h 5 w 7 7 q a e e w < < : ",
"x x v 7 [ H G r 7 v x x G v w r G r.l.l.l.l.l.l.l.m.l.l.m.m.m.m.m.m.m.m.m.m.g.g.g.g.g.g.g.H 7 r G 4 [ 4 H x r H v 4 b 4 x U J , ",
"V V g A V C V V A V V V V C A g g V g u i t 9 g A C V g V V 9 p 0 / g A C g g V u C V V V g A g C f V A g V g f C A V C V V t t ",
"e a 0 7 7 7 a 0 7 7 4 7 h q 7 4 7 p : 7 9 3 w w 7 7 8 8 B w F a s < w 7 5 7 0 i 7 7 7 w i 3 7 7 7 i 3 7 7 7 7 a q 7 7 7 w w e : ",
", e r r r r < r U w v b e U r r r < l l 7 e n P l r r l J c J T < J P l v r v < b r G U < l b r r w v W G r b e l r r r m m J , "
};
