/* XPM */
static char *result[] = {
/* columns rows colors chars-per-pixel */
"64 64 133 2 ",
"   c #1B182E",
".  c #241F36",
"X  c #261F38",
"o  c #252136",
"O  c #282436",
"+  c #262139",
"@  c #2B243C",
"#  c #30273E",
"$  c #332E3A",
"%  c #37313D",
"&  c #3A333C",
"*  c #2E2540",
"=  c #312641",
"-  c #342A43",
";  c #392F47",
":  c #372B48",
">  c #3A2E4B",
",  c #3B3245",
"<  c #3D324C",
"1  c #3E3B4C",
"2  c #3D2F50",
"3  c #3E3152",
"4  c #413643",
"5  c #443A46",
"6  c #42354D",
"7  c #45394D",
"8  c #493A4E",
"9  c #433455",
"0  c #483754",
"q  c #443C51",
"w  c #4B3A54",
"e  c #443459",
"r  c #49375C",
"t  c #473858",
"y  c #4C3A5B",
"u  c #513E56",
"i  c #523D5C",
"p  c #4B3760",
"a  c #4D3961",
"s  c #543D63",
"d  c #593E64",
"f  c #573F68",
"g  c #583F69",
"h  c #41404F",
"j  c #464254",
"k  c #494656",
"l  c #494857",
"z  c #4C4259",
"x  c #4C495A",
"c  c #504156",
"v  c #56415C",
"b  c #59425E",
"n  c #554858",
"m  c #59495C",
"M  c #51505F",
"N  c #564062",
"B  c #5C4265",
"V  c #544D62",
"C  c #5C4A63",
"Z  c #574069",
"A  c #5D426B",
"S  c #565564",
"D  c #585762",
"F  c #5F5E69",
"G  c #604567",
"H  c #614D64",
"J  c #62456C",
"K  c #66496D",
"L  c #68496F",
"P  c #665166",
"I  c #685167",
"U  c #67526B",
"Y  c #6B546B",
"T  c #6E586E",
"R  c #634671",
"E  c #674872",
"W  c #6A4A75",
"Q  c #674778",
"!  c #6E4C79",
"~  c #724D7C",
"^  c #6D5472",
"/  c #6F5872",
"(  c #725974",
")  c #74557C",
"_  c #755A7A",
"`  c #795E7A",
"'  c #61606C",
"]  c #68676F",
"[  c #676672",
"{  c #686772",
"}  c #6A6974",
"|  c #6E6D78",
" . c #7D617C",
".. c #73717D",
"X. c #765080",
"o. c #795183",
"O. c #7F5E82",
"+. c #7E7D84",
"@. c #7E7C88",
"#. c #807F87",
"$. c #817F89",
"%. c #83828A",
"&. c #8C8B8F",
"*. c #888690",
"=. c #8C8B92",
"-. c #908F93",
";. c #919194",
":. c #9B9A9F",
">. c #9D9DA2",
",. c #A2A1A6",
"<. c #A4A4A9",
"1. c #A8A7AC",
"2. c #ABABAF",
"3. c #B0B1AF",
"4. c #AEADB1",
"5. c #B0AFB3",
"6. c #B3B2B4",
"7. c #B6B5B8",
"8. c #BABABB",
"9. c #BEBEC3",
"0. c #C5C5C6",
"q. c #C7C7C8",
"w. c #CCCCCD",
"e. c #D0D0CF",
"r. c #CCCCD1",
"t. c #D2D2D2",
"y. c #D8D8D7",
"u. c #DCDCDC",
"i. c #E0E0DF",
"p. c #E2E2E2",
"a. c #EFEFEE",
"s. c #F4F4F3",
"d. c #FBFBFB",
/* pixels */
" . . .( Y  .` `  .U (  . . .T /  .` `  .Y m  . . .Y  . .` ` ` P `  . .` U ` ` `  .( Y  .`  .` Y  .`  . .` I ` n b b b W K K J u ",
"A f f N B g A f s i N Z s f B N f A s A B v A Z Z B Z N A f s z A f f f B A N A s N c A s f Z N Z B f N K d i , r s s f f s f w ",
"0 6 s y w i 0 6 y w y 6 0 s y w y s i s w 5 b i s w r i 6 w y y r 6 y u w y y 6 y y w w 3 i y w y s y s u q 5 4 w u y i 0 6 i q ",
"E J W E R R E G ! A ! J J Q E R Q ~ ! ~ K b ! Q E W A W B W Q A W B W W W J Q B Q R R E A W W E R ! ! ! ! J J J W W J Q J K Q J ",
"3 < e 9 e e 9 > e 9 e 3 3 e 3 e e e e y w w s e e 3 e e < 9 9 9 9 < 9 9 e e 9 < 9 9 e 3 > e 9 e t e e e i 9 < 3 9 9 e e 9 6 9 e ",
"J B B q A J A B 0 B A A B N w J A J J J i 8 J J y i J A G u u B J A A y d J B G w N A J J B q B A A J K B u J A B w J A B d 0 d ",
"A A J B J g A R B A A A A A B E g A W ~ L B Q g A A J Z J A A A A A A A R A A J A A g A A J B R A A R ! ~ B A Z A A R g A J B A ",
"e e 3 > 9 e e e ; t e e e 3 , e 9 e 9 y w 8 s 9 3 < e e e 3 < r 9 e 3 > 3 9 9 e > 2 p e 9 9 > 9 9 e e e i 6 e e 3 > 9 9 e 9 > e ",
"J w i B B A w i B B A A 8 B B B B K J J u 8 J J B B A N 0 B B B J i w B B B i w B B A J w i B B B J J J B w B 0 B B B B q s B B ",
"R d J A J A B A R A A A B A A J A ~ R ! K B ! Q R A A A N R R Z R A g R A J A B R A g J B A J A A ! W W ~ B R B A A J A B R R g ",
"9 > < 9 9 9 > 6 e 3 9 9 , 9 3 e e e e y q 6 i 9 9 3 e 6 , 3 y 9 w < ; 9 e e < , 9 t 0 t < < 3 3 e e 9 e y 7 t , 3 3 9 9 , 2 w e ",
"W J W J b Q L J E v B W J W B B W E K W B u W L W v K W G w ^ ` ` U 8 W W W W B z _ O.` C w J b W K W W W H _ n N B N ! E u H ` ",
"p p p y y p s s r 0 y a p p y y p s p s b w B p y w p p y , 6 s p < , e p p y r % 0 s y ; < y r p s p p B w e % 0 y y p p 6 , i ",
"u w A B i d i q B i d q u A B i B A B A w 7 A A B N b A 8 w b N b 5 v A B B B 6 v v N u 5 b A N B B B A B u 8 8 B B s d u q b i ",
"J A R R A J J A R g R A A R J A R E W W J b Q E R A A R B R A A R A R R A Z Q A R A A R B R A A A Q W W ! B A A J A A J J A R g ",
"> > 9 2 e e < > 3 9 9 < 3 3 2 e e 3 9 r 8 7 s 9 3 3 e 9 > 3 9 9 3 , 3 2 9 e 3 , 3 3 9 2 < 9 3 9 e 9 9 e y < < > 9 3 e e < > 3 9 ",
"W J J u J J W J u K J W J G i W J W W ! b u W L B b W J W B b J L K K v B W J E i B J L L J u J K J W ! W b L K J u W J W J u J ",
"f A A s A f f A s d B g f g s A s B J Q K b Q d B d f s f B s A d f f s B f f g B B f f g A s A f f A E W b f f B s Z f B A s g ",
"3 9 3 , 3 9 9 9 ; e 9 9 9 < ; 9 9 9 9 r 8 6 i 2 > < 9 3 9 < < e 9 9 9 ; < 9 9 9 > < e 9 9 3 , 3 9 e 9 e y < 9 9 3 ; 3 3 9 3 , 9 ",
"W u B E J K i B L J J K w K J J f s s d 0 6 s d i s J J w K J J W B i W J R B i W J J W v B L J J W W W J B R u J K K J u J L J ",
"A i f f g f s s g s f f i f g y : * @ # @ @ = @ @ : y f s Z A a f s s N f f s s A N s f s s f f f R J A W s g i f f N f i f B a ",
"e , 9 9 < r 6 6 r < 9 e 6 9 : < j l l k k k l x l j 3 > , < y w y w ; 9 6 0 0 ; 6 y t z 5 < 9 2 w e e y u 7 z < < 3 9 e 6 9 e 3 ",
"! W W J G W W W Q B J W E g - j #.,.>.>.>.:.>.>.>.#.j > N w ^ O._ U w E i ! W G u ~ #.~ C u J B ! W W W ! H _ c B G G ! W W W v ",
"e 9 e 0 0 e r e 9 6 0 e > 9 q [ 2.t.e.e.e.e.e.e.t.4.} q < $ , r e , % 9 8 9 r 0 $ 6 r 9 $ , e 0 e r e r i 0 6 $ < 0 0 e r e 9 6 ",
"B u J J A J B u E B J 0 = j #.2.0.t.y.t.y.t.w.w.t.q.2.%.q - i A J 8 K K G B J w J G J d u K J J J E E E K i i i K J B J B i K B ",
"d f A g d g d s A s r 0 j [ 4.t.t.q.5.<.<.<.>.2.0.t.t.2.[ j w e Z b Z g g f g s g s s g d g s f g A J J E i d s Z f f g f d A s ",
"6 < 9 < 0 r 6 < 3 > @ q #.4.q.t.t.4.} l l l k } 2.t.t.q.2.@.q * > , e < 9 r 0 , 6 9 9 9 , 0 > 0 0 e 9 r w 6 6 6 9 > r e 6 < < 9 ",
"W W E B W E W E w i j [ 2.t.t.0.2.$.k = @ + @ t %.2.q.t.t.2.[ j i f s w i d s d 0 i i d d s 0 d s s d J d 0 d s i w d B E W b R ",
"s s s r s p s e = k $.4.0.t.t.4.[ q e i 0 0 s 9 q { 4.t.t.0.2.#.q X O @ @ X @ @ @ @ @ @ @ @ X @ X X @ = # X @ @ @ + + - r s y s ",
"9 3 9 , 9 e 3 : o l ,.t.t.0.4.@.q * > r 6 6 y > O 7 @.4.q.t.t.4.} j l k l l l l j l l l l l l l l l l l l l l l l l l j , > ; e ",
"! b K W W W B i * l <.y.y.4.} k y J W ~ G v ! W A i k } 6.y.t.0.2.>.:.:.>.>.>.>.>.>.>.>.>.>.>.>.>.>.>.>.>.>.>.>.>.,.>.%.j : A L ",
"p r y y y y w 2 @ l 1.y.y.<.l X 9 s s g b 8 B s y 3 X k ,.t.t.r.w.w.w.e.w.w.w.w.e.w.w.w.w.w.e.w.w.w.w.w.w.e.w.w.w.w.e.4.} j e 9 ",
"0 8 8 6 4 w 8 ; O x <.y.y.<.k . , 8 8 w & 5 m n n , O l >.e.t.t.t.t.r.t.e.t.w.t.t.r.t.t.t.e.t.t.e.e.t.t.t.t.t.e.t.t.t.q.7.=.l + ",
"W R W J G Q Q s = x <.y.y.<.l * f W W J i K ) ) ) b = j >.e.e.t.t.t.u.i.i.i.p.u.u.u.t.t.t.t.e.t.t.t.t.e.w.t.r.t.e.t.t.w.7.=.n @ ",
"9 9 9 0 6 9 0 - o x <.y.y.<.l . : e 9 9 , 8 i 9 9 - . l ,.t.t.e.w.y.a.d.d.d.d.d.d.a.y.w.w.w.w.w.t.t.t.w.e.t.t.t.t.t.y.6.| j 3 - ",
"K i W W L R K 0 * x <.y.t.4.} r i u B ! B b W E A i j } 5.y.t.0.1.<.9.w.q.r.q.q.w.9.1.>.:.>.>.2.0.t.t.t.t.t.e.t.t.q.7.*.j - A K ",
"i r s a s a a 6 O l ,.t.t.0.4.$.q * e s r d J r = q %.4.q.t.t.2.[ l m S S S S S S M x l k k k } 4.y.t.t.e.t.t.t.y.4.| j 9 9 s p ",
"0 8 r > r y q < @ j $.5.t.i.t.2.[ 7 , - 6 > 0 > q [ 2.t.t.q.2.%.j o o . . X + X . O + + o o   l <.t.w.q.e.e.t.t.y.<.k X ; 6 < r ",
"! W W G ! W W W i s k ..r.s.u.0.4.$.k @ @ X = j #.2.0.t.t.2.{ q r B s y s s s f y i s f f 0 o l <.q.7.6.q.t.t.t.t.<.l @ d W B W ",
"r r r 0 p r p p 9 3 * x <.t.u.u.t.4.[ k l l l [ 4.t.y.0.2.#.j # i N r 0 r p p p e r y y p 2 @ x <.0.;.;.8.y.t.t.w.>.l X 9 y e y ",
"y 6 9 7 0 0 < e 6 t 9 6 l @.t.s.u.0.4.<.<.<.<.4.0.t.t.2.[ q 6 ; 6 y r 7 e 0 e 6 7 0 r w 6 : o x 2.3.' F 2.y.t.w.7.&.q o - 0 6 r ",
"! B K ! W W G K ! E W A = V ,.t.u.p.p.p.p.p.p.p.y.0.2.#.l > E b J ~ X.W W W K B ~ W R ! J i * l >.>.l h :.w.w.6.=.] q > i W ! K ",
"r 9 e r r r 9 e p e 0 e > < x $.r.d.d.d.d.d.d.s.u.2.[ q e 9 f u b s p e r y e 9 r r e p 9 : o j &.&.h 1 %.3.3.-.D 1 < 9 < e y e ",
"K c 7 w 0 b v 6 n U U U 7 6 @ x <.r.r.r.r.q.r.9.2.#.q - 0 d B 6 w d d s 6 i v i N w 0 B v w - 1 } } 7 h ] +.+.] 1 @ 6 d b N N 6 ",
"J w u J B R J i w W ! A 6 s i y V S S S S S S S x l y s J A W i G R J R B R R R A A b R Z A s 0 h h y y q 1 7 1 9 s B R R J A N ",
"< % 6 e 6 e 0 , 4 6 t , & 6 0 > = . . . . o o o . # 6 e r r i 5 8 y e 0 6 9 e 6 e 9 6 0 3 r 0 < # = 9 q - o o O < 6 9 e 9 < e 6 ",
"H J ! Q E W K B ~ J W B J ~ ~ J g i i d y w g d d g J ~ ~ ~ ~ b B ! ! ! W R W b ! E W W B ! ! R B J ! W B y i i W ! R W J K ! J ",
"e e p e y y e e p e p 0 e r r r r 9 e p 9 i A p r r r p r r d q B f r r r y p 9 y e e e e y e y p p p p B 0 e e y e y y 9 e p e ",
"v u i 6 s s i u 6 u f u i r 7 i i i w 6 i q B s q 0 d s s s B 7 q d i 6 w s s u 6 w s s u i 6 i N s s s i w i i y 6 s i i w 6 i ",
"W J W B Q R E W B R E E R E J W J Q E J J G ~ R L G Q J W ~ X.B L ~ R J W R R W J R J E Q E B W R R W ) ) B E R E G Q R W W B R ",
"e r e < e e r r < r e e r e 6 e e r e 6 0 i g e 9 9 e e r r s w i f e < e e r r 9 9 y e r e 3 e e e r s N 9 e r e < e e r r < y ",
"s 6 w y y i 0 w u s s i 6 w y i i 6 y u i 0 s i w i i s i i B 7 w i s i u i q 0 y u y s 0 w w i i s i s v 0 N 6 w u s i 6 y w s ",
"W J R W Q R A J Q A Q W B Q R E R G Q W B J ~ X.Q R Q W o.~ X.B K ~ ~ Q R E J A ! E J Q J J W Q R X.X.! X.B W B E E E R B W W J ",
"e < 3 9 e e < 3 r 9 9 9 < 9 9 e 9 > 9 e 3 r s 9 9 9 e e r e i 8 u i e 9 e e 3 < e e 9 e < 3 9 9 e r e y N 6 3 , < < 9 1 < < 0 < ",
"( n w i w J B w m ` ` / c i i i J G G J 7 w J J J w B J G B J w C ` ) ^ C ` ( / ^ T P ( / ( / H _ ( ^ ( U P / T ( P P ( / T / P ",
"N 6 w f B f A w < B A b , y s d g g f s q B A g f s d g A f R i C A Z A B Z A Z f N b A f A A B g A A f N N A Z A A A Z A N A K ",
"6 & w w w y w , 8 q i , 4 u w w i 0 9 y 8 6 i i i q w i i y b 7 q d i i 0 y y 6 y r q 0 6 i y w i 0 6 p w w 6 0 y w w y i y s q ",
"L J ! Q E R E J ! J Q K J ! Q R E J K W B G ~ W Q Q R ! ~ ~ ! b G ~ W Q W J W d ! R E E G ! W R R Q G ! J W J J ! W R E ~ ~ ~ L ",
"9 < e 9 e r 3 < e 9 e > 9 0 9 e r < 9 e 9 y s r 9 e r e e e y 7 u s e 9 e e e < 9 e e 3 > e 9 e e 9 6 9 9 e 3 3 e 3 t t e e r u ",
"B B B q B A B B q d A G d i q J B G i q d u J B u i J B A J K 8 u J A q i G B G w u A A B d 0 B J B B q d Z A A N 0 A A J J J i ",
"J A R A Q Z R R B J A J J R A R g R J A B J ! A A J J g J ! ~ B L Q A B J R g R B J A R J J B R g A Q B R Z R A R B Q g A Q ~ W ",
"9 e 9 > 3 3 e e > e e e e 2 > 9 9 r 9 > e y s e > < 9 e e e a 0 c p 9 > 9 9 e e ; 9 r 9 e 9 > 9 9 e e > 9 e 9 e 3 > 9 9 e e y w ",
"J q i B B B w u B B A B 7 s B B B 6 i B i u A A B B g A J B J 8 u J A B d d i w B B B B w i B d d q y B B B B 6 N B B d A A J u ",
"R A J R R R A R E A J Q B R R R R B W Q B G ! ~ R R J R ~ W ~ B J ! ! Q J R J J Q R A Q A R E R J J J W A R W J R J J J ~ ! ~ W "
};
