/* XPM */
static char *_d30bc2d94c24c229c89ee97337b96b56Q1QN2lFMWor3I1l[] = {
/* columns rows colors chars-per-pixel */
"64 64 173 2 ",
"   c #7E627D",
".  c #7B607A",
"X  c #725974",
"o  c #6B546B",
"O  c #795F78",
"+  c #735972",
"@  c #6E566E",
"#  c #6A536A",
"$  c #59495C",
"%  c #7C607C",
"&  c #765C76",
"*  c #665166",
"=  c #7C617B",
"-  c #7A607A",
";  c #534556",
":  c #55415C",
">  c #59425E",
",  c #694974",
"<  c #61456A",
"1  c #63476B",
"2  c #68496F",
"3  c #513E56",
"4  c #5A416A",
"5  c #573F68",
"6  c #574069",
"7  c #5C4364",
"8  c #583F69",
"9  c #533D63",
"0  c #523D5C",
"q  c #574062",
"w  c #5E4368",
"e  c #5E4468",
"r  c #624570",
"t  c #4C3A5C",
"y  c #66496E",
"u  c #3D324C",
"i  c #483756",
"p  c #42354D",
"a  c #473951",
"s  c #4B3A54",
"d  c #433945",
"f  c #49375C",
"g  c #433455",
"h  c #46394D",
"j  c #3B3245",
"k  c #674871",
"l  c #644671",
"z  c #6A4A77",
"x  c #5E436D",
"c  c #6A4A75",
"v  c #63466D",
"b  c #664774",
"n  c #704D7B",
"m  c #6E4C79",
"M  c #6E4C77",
"N  c #65476E",
"B  c #60446A",
"V  c #44345A",
"C  c #3E3152",
"Z  c #392F48",
"A  c #604567",
"S  c #60446E",
"D  c #604468",
"F  c #5F446E",
"G  c #5D4170",
"H  c #724E7C",
"J  c #6F4D7B",
"K  c #392F47",
"L  c #552E21",
"P  c #67486E",
"I  c #5B4963",
"U  c #674778",
"Y  c #B98856",
"T  c #473858",
"R  c #6B4977",
"E  c #664770",
"W  c #6F5872",
"Q  c #7A5C7E",
"!  c #67526B",
"~  c #6A4A71",
"^  c #4F405B",
"/  c #755A7A",
"(  c #7D5D81",
")  c #614C65",
"_  c #4D3961",
"`  c #4A3760",
"'  c #CFA461",
"]  c #37303C",
"[  c #3A333C",
"{  c #E5C168",
"}  c #493A4E",
"|  c #64466D",
" . c #644672",
".. c #AB794F",
"X. c #E1EAF2",
"o. c #9A6146",
"O. c #274014",
"+. c #98AC3E",
"@. c #7F9C37",
"#. c #64822D",
"$. c #BEC648",
"%. c #674874",
"&. c #4D6823",
"*. c #CC2921",
"=. c #332F37",
"-. c #342F3A",
";. c #F9F7E4",
":. c #73537C",
">. c #664773",
",. c #564859",
"<. c #554857",
"1. c #4E4252",
"2. c #6B546E",
"3. c #6B4A76",
"4. c #6F5278",
"5. c #6D5274",
"6. c #291A14",
"7. c #56432D",
"8. c #453952",
"9. c #533F62",
"0. c #513E5E",
"q. c #5E436C",
"w. c #76663D",
"e. c #493624",
"r. c #403452",
"t. c #443657",
"y. c #403355",
"u. c #3E3252",
"i. c #362F48",
"p. c #3D324E",
"a. c #8B7E4B",
"s. c #4A3A57",
"d. c #533E62",
"f. c #564166",
"g. c #775080",
"h. c #3A3051",
"j. c #47375A",
"k. c #3C334B",
"l. c #3A304D",
"z. c #393148",
"x. c #3C3348",
"c. c #795282",
"v. c #564064",
"b. c #543E64",
"n. c #513D5F",
"m. c #4D3B5B",
"M. c #4D3B59",
"N. c #574166",
"B. c #4F3C60",
"V. c #513D5E",
"C. c #594567",
"Z. c #584167",
"A. c #3E3255",
"S. c #443652",
"D. c #43374E",
"F. c #47375B",
"G. c #60466E",
"H. c #4D3B5E",
"J. c #4E3B5F",
"K. c #503D5E",
"L. c #4B3A5A",
"P. c #4C3B5E",
"I. c #4F3C5D",
"U. c #634671",
"Y. c #684975",
"T. c #745A74",
"R. c #5F446A",
"E. c #685167",
"W. c #6E586E",
"Q. c #735A73",
"!. c #5A426A",
"~. c #6C4B78",
"^. c white",
/* pixels */
"  .   X o   O O O o + . .   @ +   O O   # $   %   # & . O O O * = =   O #   O O . + o   - . & o   O O . O # O ; : > > , < 1 2 3 ",
"4 5 5 6 7 8 4 4 9 0 q 4 9 6 q 6 5 8 5 w e : r 4 5 q 6 4 4 5 5 t 7 5 5 5 q 5 4 4 9 q : 6 9 6 6 q 6 4 6 6 y 7 0 u i 9 9 5 4 5 9 i ",
"i p 0 t i 0 i p 9 i t p a 9 s t 0 9 0 9 a d q 0 9 s t 0 p f 0 a t u 3 0 i t t p t t i i g 0 t s t 0 0 9 0 h d j 3 t s 0 a a 0 s ",
"k < , , l l , 7 z x c 1 v z , v b n n m 1 > m c , , x , 7 , b r , e , , , r , 7 m r k b e , , k l m m m M < < v z , l b N v c B ",
"g u V g V V g u g g V u C g C V V V g t s s 9 V g C V V u C g g g u V g g V g u g g V C Z g g V f g V f 0 g C C V g V V C Z V g ",
"A 7 7 a w B < 7 a 7 e < e q i v w w r l 0 h N S 0 0 v w e 0 t w B D 7 i 7 B w A s 0 F w w w a w w F S v 7 3 e w 5 a < F 7 7 i w ",
"F G r 4 l 8 G r 4 x G G 4 F e l 8 F , H 2 > m 8 F w G 8 r w w F F F 8 F F F 4 r w F 4 G G r 7 r F F r J H 7 F G S 7 r 8 F S 7 F ",
"g g C Z g C V V K V V g g C u g g V V t s s 9 g u u g V V C u V g V g Z C g V V Z g V V g g Z C C V V V t p g g g K g g V g Z V ",
"B s 0 D 7 7 3 0 e 7 w 7 a 7 7 7 e v < v 3 a B B 7 7 w 9 a 7 e 7 w 0 i A 7 7 0 s 7 7 7 B i 3 e 7 4 v e v A i < h 5 > 7 5 a 5 > D ",
"r 8 S 8 S S 8 8 r 4 F v 5 S F F G L L z P I n U G F v w 7 F v 6 r 8 7 l F F w 8 r F 8 r 7 w r F F J z l H 7 r 7 S S F F 7 S N 5 ",
"g Z p g g g Z p V C g g K g C g i L Y L a h t g g C i C j C f g i g K g i V u K g T i a p u C g g g i i t h V j u C g i j C i i ",
"c P c < 0 R E E k : 7 , N c > 7 , L Y L 7 3 , 2 , 0 y , A s W Q O ! s E c ~ , 7 ^ / ( Q I s < : c l 2 , , ) O : 0 A 7 , k s ) Q ",
"9 f _ t 3 _ 9 t f a f _ t ` t t _ L ' Y L s 6 _ t i t _ 0 j p 9 t u j t _ ` 0 f ] a 9 f j u t i _ _ _ _ 5 i i [ a t t t _ p j t ",
"0 a 8 5 0 5 0 a 7 0 7 i 0 7 5 0 L L { Y L h e 7 7 7 9 7 p 3 0 7 0 d 0 7 8 9 7 h : : 7 3 d > 7 9 7 w w 7 7 3 } } 5 7 0 5 s s > : ",
"| 8 P S S F S 8 b 8  .w 8 r S w L U L ' ..L , k r r 4 l w r S 4 b 5 l F | 8 l 5 l 4 G r 7 r r G 4 U , R c 7 8 F l S F F F w k 6 ",
"p Z g C g g g Z C g g Z g g X.L L C L o.o.L 9 V C C V g O.O.O.O.O.O.g C g V g K C C g C u g C g V g g g t p Z Z g g V V Z u C g ",
"E E < 3 ~ N P P 3 < 2 2 2 D X.L N , L L L o.L 2 7 > , O.+.+.+.@.@.#.O.: < k N k 0 I N , y N 3 y k N , c 2 > , y A 3 , l , < 3 N ",
"8 8 8 9 w 5 8 8 9 8 5 5 5 X.X.L 9 5 L z L o.L 5 5 7 O.+.$.+.+.+.@.@.#.O.4 5 9 4 5 5 5 5 5 4 9 4 5 5 F %.c q 6 6 4 q 8 9 5 4 9 7 ",
"g g C K C g g g K g V g g X.L g g L g f L ' L g Z O.+.$.$.$.+.+.@.@.#.#.O.C g g K p i g g C j C g g g V t u V g C j g g g g j g ",
"E 0 7 N N N 0 7 P v N N X.X.L N N L , c > L o.L O.+.$.$.$.+.+.@.@.#.#.&.O.l 7 0 ~ < < , 0 7 y N v c , , y : k s < 1 v v s < y v ",
"8 0 5 5 5 5 0 5 8 9 5 8 X.X.L 5 5 b F l < L O.O.+.$.$.+.+.+.@.@.#.#.&.O.O.8 5 9 8 5 9 5 0 5 5 5 5 b r x , q 6 0 5 5 5 5 9 5 7 _ ",
"V p p g C f u p f p g X.X.X.Z g V i i t a O.&.O.$.$.+.+.@.@.@.#.#.&.#.+.$.O.p j a t s 3 p u g u V V i i s h ^ j u u g f p g f u ",
"m E c N A c , , E 7 B X.X.X.7 N m , , m 1 O.&.&.O.O.&.#.#.#.#.#.&.#.@.@.+.+.O.e ^ / ( ( e 3 N 7 c , c c m y / ^ 7 < B c , R , : ",
"V V V g a f f V V p g X.X.X.a a f f i t 3 O.&.O.+.*.@.@.@.#.#.&.&.&.#.@.O.O.f a =.u f g -.j g a f f f f : a u ] u a a V f V g p ",
"5 3 P P D B 7 3 P 7 < X.X.X.< e < , l 2 : h O.$.$.@.@.+.+.@.#.&.&.&.&.O.&.O.v s < D B 7 3 1 N A S E E E < > 3 0 N N e N 0 0 P 7 ",
"5 5 8 5 5 8 5 5 8 9 8 X.X.X.4 5 w G F l e : O.$.+.@.+.+.@.#.#.&.&.&.&.&.O.5 F 0 8 5 5 8 9 7 8 8 5 S S S y 9 7 5 8 5 5 8 7 5 4 9 ",
"p p g Z i i g Z Z g i X.X.X.u f f i g t h p 0 O.#.#.;.@.@.#.&.&.&.&.O.O.g f g j Z g i g p g Z i i i g i i p u p g u V i p u u g ",
"c c ~ > M E , R 7 P R X.X.X.7 c E c H H < : H , O.O.O.&.@.#.#.&.&.O.&.O.O.O., m I v k c , E 7 ~ E R n :.M e m , l > M , ~ , 7 l ",
"9 9 _ t 5 _ 9 9 t 9 9 X.X.X.t 9 _ 9 5 F 7 : r _ O.$.+.@.#.#.&.O.O.&.&.#.#.@.O.5 0 9 _ _ 9 9 t 5 _ 9 5 8 N 3 9 _ 5 t 9 _ 9 9 t 9 ",
"g C p p g g p g Z a i X.X.X.u V X.V i V h p t g O.@.@.#.#.O.O.&.&.&.#.#.@.+.+.O.j g V i C C j g g V i V t p g C u Z g g C g j i ",
"m 0 P c >.E 7 < M P c X.X.X.~ E , H H H A 3 H H m O.O.O.O.&.&.#.@.@.#.#.@.+.$.+.O., E n 7 < c c , H H H c 7 M 0 E c E , > N c l ",
"_ f t t t _ t f 9 f t X.X.X.X.9 t X.9 7 : a 7 9 t ` t O.O.&.#.+.@.#.&.O.#.@.+.+.@.O.f t i t t t t t 9 9 7 i 9 i _ _ 9 t f _ 9 f ",
"} a a d j s h h } j h X.X.X.X.d s X.} s [ d ,.,.<.} ; ; O.#.@.#.#.&.&.&.O.#.@.@.#.O.,.: 1.[ p j } h h s h 1.I <.$ : : I ; I I t ",
"c  .R N A m , l l 7 < b X.X.X.N , X.k l : 1 / :.:.2.:.:.:.O.&.&.&.&.&.&.&.O.#.#.@.#.O.:.: s y e 3., , 3.c A :.:.4.5.5.:.4.4.4.! ",
"g g f g p g i g i u p g X.X.X.g i g X.g j h 0 i g p g i i g O.O.#.#.#.&.&.&.O.O.@.@.O.u ] j g p V a i i 0 p g C g g p V g g g u ",
"< 0 c c N E < > c < , 7 X.X.X.X., 7 X.c 7 7 c c , , v ~ H c R 0 O.#.6.6.6.6.7.O.+.+.@.O.8.9.9.0.r H m c E 7 I e m , v k I e c e ",
"0 t 5 _ 9 9 _ t 5 f 9 t t X.X.X.9 t 9 X.f 7 x 9 9 _ _ 9 5 9 q.3 7 6.7.w.7.7.e.O.$.+.+.O.r.t.y.t.t.t.5 5 e t t _ 9 _ 9 9 t 0 9 ` ",
"i a i Z f t i p u i f a a X.X.X.X.a p X.i a 0 f p g t f t t 0 p O.#.6.6.w.w.6.#.O.$.O.O.O.u.i.p.r.u.u.t 3 p a a V u f t i p u f ",
"c R R A m , , c 7 k , m , , X.X.X.m , e X.A H , 1 < n l R H :.O.@.#.&.&.6.a.6.O.@.O.@.+.$.O.s.9.d.d.f.g.H A c , , e m k c c e E ",
"_ t t g _ V _ _ i _ _ t f f X.X.X.X.f a f X.F t f f ` f _ 9 B O.#.&.&.O.u.6.u.t.O.O.O.@.+.+.O.u.h.y.y.j.e f _ _ f a ` ` _ t g 9 ",
"f p p h i f p a p t T f u a a X.X.X.a p f h X.f a p t t f i 0 p O.&.&.O.k.u.l.z.z.k.r.O.+.O.x.p.r.r.u.u.t p i u g h i i u a h i ",
"M 8 , c , , 7 l m k 3.c I c c X.X.X.X.m < < H X.n E E n c.n :.O.O.O.O.v.b.n.m.M.N.9.B.O.O.V.9.b.n.C.C.Z.:.A c 7 , , , R e , m l ",
"f p i V f f g g _ V T V g f f f X.X.X.X.g 3 4 ` X.f t t 9 t 8 3 > 0 A.u.u.r.l.l.u.u.u.u.l.l.u.u.r.y.r.9 e a V g V f t f p V t f ",
"2 ; p t a 7 0 p : ! ! ! d i a 3 7 X.X.X.X.h 7 5 5 X.X.9 9 9 D h s 5 j.t.x.j.S.S.j.D.k.j.S.t.S.z.F.t.S.5 7 ; * 1.a i i 7 0 0 5 p ",
"G.s t F w r v 0 s c 4.x h q w w r X.X.X.X.X.l v r 5 S X.X.q.M 0 A N r H.s.J.B.B.F.F.j.K.L.J.P.s.B.I.r r , e 1 h 9 8 w r r F 8 0 ",
"p =.p i p f i j j p a j ] g g a V g X.X.X.X.X.f f p a i f i 0 X.a t V i p l.u.z.p.k.z.l.i.u.p.z.i i i f t p j [ p a a f a g f p ",
"y e m m l R N 7 H v c e y c z U., 1 N X.X.X.X.X.R R | m H H H 0 A H c m c r m 0 M l R E 7 m c ,  .H H n c < < < n c l c < < n < ",
"V a ` V t f V i ` V ` i V t ` V t i V f X.X.X.X.X.f t _ ` t 5 s 0 7 _ f _ t f g f f f V i f V _ t ` t _ 7 i i V f f ` f i V f f ",
"3 3 0 p 9 9 0 3 p 0 9 3 0 i h 9 9 3 i p 3 X.X.X.X.X.X.0 9 9 5 d a 7 0 p t 9 9 3 h i 9 0 3 0 p 0 9 9 0 5 : a 3 0 t p 9 0 0 i p 0 ",
", b l w z r l , 7 l l b l , < c r b , A v < H X.X.X.X.X.R H :.A 2 m b A 2 k r z < N r , b k e 3. . .R :.H e , b k A , r , , A k ",
"V V V u V f f f u f V V V i p V g ` V u f 0 4 V X.X.X.X.X.X.9 a 7 9 V g i V V t g i t V V V u V V f t _ 7 i V V V u V V t f u t ",
"9 a i 3 t 0 a a 3 0 9 9 p 3 i 9 0 h t 3 3 a 9 0 t i X.X.X.X.X.X.X.X.0 t t 0 i a 3 t 0 9 a f 3 t 0 9 0 9 0 a 9 p i 3 9 0 p i t 0 ",
"z < l R l l e N z v b , 7 b b b l 7 R , w < g.g., l l m c.X.X.X.X.X.X.X. .%.G.e , k r z e l , l  .g.H m H B , 7 Y.Y.%.k e k , r ",
"V u C g V V u g V V g g u g g V g u g V C i _ g g V i f f V 0 a X.X.X.X.X.X.X.X.X.X.g V u C V V f f f f 9 p g j u C u p u u a u ",
"+ <.s 9 s N e s I X T.W s 3 0 0 v e 7 D a s < < S s 7 < B w N s ) / / 4.R.T.W W W 5.) T.+ X @ y :.W W W E.! + W.Q.* * Q.W.W.+ * ",
"6 p a 7 q 8 4 i p 4 x 9 d 0 9 5 8 4 8 5 a 7 F 8 5 9 5 5 8 5 v 0 I x 4 4 I 4 4 4 q q : F 6 4 4 I 8 w F 5 : 7 4 6 6 I !.!.!.!.x R.",
"h [ i t a t t j } a t d j t i s t a a t h h 0 0 0 s i 0 0 0 0 h s : t t i t t p t f s i p t t a t i g t s i g a t t i t 0 0 0 i ",
"k 1 c , k y , e ~.v , < y m , N , < N , w < H c R R v c n n n 7 < m z z c v c 7 m r k k < c , b N , A m v , < v m , r , H H H 2 ",
"g u V C V f C u V C V C C V g V V g C V g t 9 f g g f f V V 0 p t 9 V g g f g u V g V C u g g V f g u g g V C C V g V V V V t t ",
"e 7 7 a w e 7 7 h 7 w e 7 q a < w 7 : a 9 3 < A 0 t B 8 w S < s ; v 7 a 9 B 7 A s 0 w e e 7 a 7 w 7 7 h 5 w 7 7 q a e e w < < : ",
"x x v 7  .G F r 7 v x x F v w r F G r 7 4 < J G w B r w r m H I N U F w N F F r 7 x x r r G 7 r F 4  .4 G x r G v 4 b 4 x %.H , ",
"V V g Z V C V V Z V V V V C Z g g V g u i t 9 g Z C V g V V 9 p 0 _ g Z C g g V u C V V V g Z g C f V Z g V g f C Z V C V V t t ",
"e a 0 7 7 7 a 0 7 7 4 7 h q 7 4 7 p : 7 9 3 w w 7 7 8 8 B w D a s < w 7 5 7 0 i 7 7 7 w i 3 7 7 7 i 3 7 7 7 7 a q 7 7 7 w w e : ",
", e r r r r < r %.w v b e %.r r r < l l 7 e n J l r r l H c H I < H J l v r v < b r F %.< l b r r w v R F r b e l r r r m m H , "
};
