/* XPM */
static char *_1e5e291a0244d16a0897de9ce52546djv3gVWjglODPCJWU[] = {
/* columns rows colors chars-per-pixel */
"64 64 168 2 ",
"   c #7E627D",
".  c #7B607A",
"X  c #725974",
"o  c #6B546B",
"O  c #795F78",
"+  c #735972",
"@  c #6E566E",
"#  c #6A536A",
"$  c #59495C",
"%  c #7C607C",
"&  c #765C76",
"*  c #665166",
"=  c #7C617B",
"-  c #7A607A",
";  c #534556",
":  c #55415C",
">  c #59425E",
",  c #694974",
"<  c #61456A",
"1  c #63476B",
"2  c #68496F",
"3  c #513E56",
"4  c #5A416A",
"5  c #573F68",
"6  c #574069",
"7  c #5C4364",
"8  c #583F69",
"9  c #533D63",
"0  c #523D5C",
"q  c #574062",
"w  c #5E4368",
"e  c #5E4468",
"r  c #624570",
"t  c #4C3A5C",
"y  c #66496E",
"u  c #3D324C",
"i  c #483756",
"p  c #42354D",
"a  c #473951",
"s  c #4B3A54",
"d  c #433945",
"f  c #49375C",
"g  c #433455",
"h  c #46394D",
"j  c #3B3245",
"k  c #674871",
"l  c #644671",
"z  c #6A4A77",
"x  c #5E436D",
"c  c #6A4A75",
"v  c #63466D",
"b  c #664774",
"n  c #704D7B",
"m  c #6E4C79",
"M  c #6E4C77",
"N  c #65476E",
"B  c #60446A",
"V  c #44345A",
"C  c #3E3152",
"Z  c #392F48",
"A  c #604567",
"S  c #60446E",
"D  c #604468",
"F  c #5F446E",
"G  c #5D4170",
"H  c #724E7C",
"J  c #6F4D7B",
"K  c #392F47",
"L  c #674874",
"P  c #67486E",
"I  c #5B4963",
"U  c #674778",
"Y  c #473858",
"T  c #6B4977",
"R  c #664770",
"E  c #6F5872",
"W  c #7A5C7E",
"Q  c #67526B",
"!  c #6A4A71",
"~  c #4F405B",
"^  c #755A7A",
"/  c #7D5D81",
"(  c #614C65",
")  c #4D3961",
"_  c #4A3760",
"`  c #37303C",
"'  c #3A333C",
"]  c #493A4E",
"[  c #64466D",
"{  c #644672",
"}  c #413645",
"|  c #274014",
" . c #98AC3E",
".. c #BEC648",
"X. c #7F9C37",
"o. c #64822D",
"O. c #332F37",
"+. c #342F3A",
"@. c #4D6823",
"#. c #552E21",
"$. c #E5C168",
"%. c #73537C",
"&. c #E1EAF2",
"*. c #CFA461",
"=. c #CC2921",
"-. c #AB794F",
";. c #B98856",
":. c #664773",
">. c #F9F7E4",
",. c #9A6146",
"<. c #554857",
"1. c #4E4252",
"2. c #6D5274",
"3. c #6B4A76",
"4. c #6F5278",
"5. c #291A14",
"6. c #533E62",
"7. c #4F3C5D",
"8. c #513D60",
"9. c #493624",
"0. c #443657",
"q. c #3E3255",
"w. c #403355",
"e. c #403452",
"r. c #56432D",
"t. c #3D324E",
"y. c #393148",
"u. c #3E3252",
"i. c #362F48",
"p. c #513E5E",
"a. c #533F62",
"s. c #4A3A57",
"d. c #775080",
"f. c #76663D",
"g. c #3C3348",
"h. c #3C334B",
"j. c #3A304D",
"k. c #443652",
"l. c #4D3B5B",
"z. c #584167",
"x. c #564064",
"c. c #543E64",
"v. c #513D5F",
"b. c #4F3C60",
"n. c #564065",
"m. c #4D3B59",
"M. c #513D5E",
"N. c #47375B",
"B. c #43374E",
"V. c #483953",
"C. c #4D3B5A",
"Z. c #3F344D",
"A. c #47375A",
"S. c #60466E",
"D. c #4E3B5F",
"F. c #503D5E",
"G. c #4B3A5A",
"H. c #634671",
"J. c #795282",
"K. c #684975",
"L. c #745A74",
"P. c #5F446A",
"I. c #685167",
"U. c #6E586E",
"Y. c #735A73",
"T. c #5A426A",
"R. c #6C4B78",
"E. c white",
/* pixels */
"  .   X o   O O O o + . .   @ +   O O   # $   %   # & . O O O * = =   O #   O O . + o   - . & o   O O . O # O ; : > > , < 1 2 3 ",
"4 5 5 6 7 8 4 4 9 0 q 4 9 6 q 6 5 8 5 w e : r 4 5 q 6 4 4 5 5 t 7 5 5 5 q 5 4 4 9 q : 6 9 6 6 q 6 4 6 6 y 7 0 u i 9 9 5 4 5 9 i ",
"i p 0 t i 0 i p 9 i t p a 9 s t 0 9 0 9 a d q 0 9 s t 0 p f 0 a t u 3 0 i t t p t t i i g 0 t s t 0 0 9 0 h d j 3 t s 0 a a 0 s ",
"k < , , l l , 7 z x c 1 v z , v b n n m 1 > m c , , x , 7 , b r , e , , , r , 7 m r k b e , , k l m m m M < < v z , l b N v c B ",
"g u V g V V g u g g V u C g C V V V g t s s 9 V g C V V u C g g g u V g g V g u g g V C Z g g V f g V f 0 g C C V g V V C Z V g ",
"A 7 7 a w B < 7 a 7 e < e q i v w w r l 0 h N S 0 0 v w e 0 t w B D 7 i 7 B w A s 0 F w w w a w w F S v 7 3 e w 5 a < F 7 7 i w ",
"F G r 4 l 8 G r 4 x G G 4 F e l 8 F , H 2 > m 8 F w G 8 r w w F F F 8 F F F 4 r w F 4 G G r 7 r F F r J H 7 F G S 7 r 8 F S 7 F ",
"g g C Z g C V V K V V g g C u g g V V t s s 9 g u u g V V C u V g V g Z C g V V Z g V V g g Z C C V V V t p g g g K g g V g Z V ",
"B s 0 D 7 7 3 0 e 7 w 7 a 7 7 7 e v < v 3 a B B 7 7 w 9 a 7 e 7 w 0 i A 7 7 0 s 7 7 7 B i 3 e 7 4 v e v A i < h 5 > 7 5 a 5 > D ",
"r 8 S 8 S S 8 8 r 4 F v 5 S F F G J L z P I n U G F v w 7 F v 6 r 8 7 l F F w 8 r F 8 r 7 w r F F J z l H 7 r 7 S S F F 7 S N 5 ",
"g Z p g g g Z p V C g g K g C g i g V t a h t g g C i C j C f g i g K g i V u K g Y i a p u C g g g i i t h V j u C g i j C i i ",
"c P c < 0 T R R k : 7 , N c > 7 , k k , 7 3 , 2 , 0 y , A s E W O Q s R c ! , 7 ~ ^ / W I s < : c l 2 , , ( O : 0 A 7 , k s ( W ",
"9 f ) t 3 ) 9 t f a f ) t _ t t ) ) ) 9 : s 6 ) t i t ) 0 j p 9 t u j t ) _ 0 f ` a 9 f j u t i ) ) ) ) 5 i i ' a t t t ) p j t ",
"0 a 8 5 0 5 0 a 7 0 7 i 0 7 5 0 7 w 7 w 3 h e 7 7 7 9 7 p 3 0 7 0 d 0 7 8 9 7 h : : 7 3 d > 7 9 7 w w 7 7 3 ] ] 5 7 0 5 s s > : ",
"[ 8 P S S F S 8 b 8 { w 8 r S w r U , , < > , k r r 4 l w r S 4 b 5 l F [ 8 l 5 l 4 G r 7 r r G 4 U , T c 7 8 F l S F F F w k 6 ",
"p Z g C g g g Z C g g Z g g C i V C g f a h 9 V C C V g Z u C i g j g C g V g K C C g C u g C g V g g g t p Z Z g g V V Z u C g ",
"R R < 3 ! N P P 3 < 2 2 2 D 3 , N , c n 7 3 c 2 7 > , N , 7 : < 2 2 N : < k N k 0 I N , y N 3 y k N , c 2 > , y A 3 , l , < 3 N ",
"8 8 8 9 w 5 8 8 9 8 5 5 5 5 5 w 9 5 F z < > , 5 5 7 8 9 4 9 5 5 5 5 5 9 4 5 9 4 5 5 5 5 5 4 9 4 5 5 F L c q 6 6 4 q 8 9 5 4 9 7 ",
"g g C K C g g g K g V g g u K g g g g f a h t g Z u C g g u u V g g C K u C g g K p i g g C j C g g g V t u V g C j g g g g j g ",
"R 0 7 N N N 0 7 P v N N 3 < N N N c , c > s , c k N l e 3 y N < , 7 : , y l 7 0 ! < < , 0 7 y N v c , , y : k s < 1 v v s < y v ",
"8 0 5 5 5 5 0 5 8 9 5 8 9 5 5 5 5 b F l < 7 T 8 5 5 5 9 0 4 5 9 5 5 9 5 8 8 5 9 8 5 9 5 0 5 5 5 5 b r x , q 6 0 5 5 5 5 9 5 7 ) ",
"V p p g C f u p f p g g } i Z g V i i t a d t f i | | | | | | | | h j g u i p j a t s 3 p u g u V V i i s h ~ j u u g f p g f u ",
"m R c N A c , , R 7 B c b m 7 N m , , m 1 0 c c |  ... . . .X.X.o.| h , 7 ! , e ~ ^ / / e 3 N 7 c , c c m y ^ ~ 7 < B c , T , : ",
"V V V g a f f V V p g V V V a a f f i t 3 a 0 |  ....... . .X.X.o.o.| i p V f a O.u f g +.j g a f f f f : a u ` u a a V f V g p ",
"5 3 P P D B 7 3 P 7 < 0 > l < e < , l 2 : h |  ....... . .X.o.o.@.| | N < w v s < D B 7 3 1 N A S R R R < > 3 0 N N e N 0 0 P 7 ",
"5 5 8 5 5 8 5 5 8 9 8 5 8 8 4 5 w G F l e |  ..... . . .X.o.o.@.o. ...| 4 5 F 0 8 5 5 8 9 7 8 8 5 S S S y 9 7 5 8 5 5 8 7 5 4 9 ",
"p p g Z i i g Z Z #.#.p p g u f f i g t h | .... . .X.X.X.o.@.o.X.X. . .| f g j Z g i g p g Z i i i g i i p u p g u V i p u u g ",
"c c ! > M R , T 7 #.$.#.#.< 7 c R c H H < : |  .| @.o.o.o.@.@.@.o.X.| | P c , m I v k c , R 7 ! R T n %.M e m , l > M , ! , 7 l ",
"9 9 ) t 5 ) 9 9 t &.#.$.*.#.t 9 ) 9 5 F 7 |  .| =.X.X.o.o.@.@.@.o.X.| | 0 ) ) 5 | | | | | 9 t 5 ) 9 5 8 N 3 9 ) 5 t 9 ) 9 9 t 9 ",
"g C p p g g p g Z &.#.-.;.*.#.#.g V i V | ....X.X. . .X.o.@.@.@.@.| @.| | | | | X. . .....| j g g V i V t p g C u Z g g C g j i ",
"m 0 P c :.R 7 < M &.&.#.-.;.;.*.#.H H H | .. .X. . .X.o.o.@.@.@.@.@.| X.X.o.o.X.X.X. . .| < c c , H H H c 7 M 0 R c R , > N c l ",
") f t t t ) t f 9 f &.#.-.#.#.-.-.#.#.7 : | o.o.>.X.X.o.@.@.@.@.| | X... .X.o.o.| | X.| i t t t t t 9 9 7 i 9 i ) ) 9 t f ) 9 f ",
"] a a d j s h h ] j &.#.#.&.#.-.#.,.,.#.| o.| | | @.X.o.o.@.@.| @.o. . . .X.o.| d <.| : 1.' p j ] h h s h 1.I <.$ : : I ; I I t ",
"c { T N A m , l l 7 &.#.#.&.#.#.&.#.*.| o.@.| .. .X.o.o.@.| | @.@.o.X.X.X.| | B s 2./ %.: s y e 3., , 3.c A %.%.4.2.2.%.4.4.4.Q ",
"g g f g p g i g i u p &.#.&.&.#.&.#.| @.@.@.@.| | | | | | @.@.o.o.@.o.o.| @.5.p ` j i u ` j g p V a i i 0 p g C g g p V g g g u ",
"< 0 c c N R < > c < , &.&.#.&.#.&.&.A | | | @.@.| o.o.@.@.@.o.X.X.o.@.@.@.@.5.5.6.7.8.7.: c c y r H m c R 7 I e m , v k I e c e ",
"0 t 5 ) 9 9 ) t 5 f 9 t &.#.&.&.#.&.&.9 f 7 | | | | X.o.@.@.@.@.@.@.@.@.@.5.9.5.0.q.w.w.e.0.) 9 9 9 5 5 e t t ) 9 ) 9 9 t 0 9 _ ",
"i a i Z f t i p u i f a &.&.#.&.&.#.&.&.i a 0 f p g | | | o.@.o.o.o.@.5.5.r.9.5.| t.e.t.y.u.i.i t f f t 3 p a a V u f t i p u f ",
"c T T A m , , c 7 k , m , &.&.#.&.&.&.&.&.A H , 1 < n l T 5.5.5.5.5.5.r.r.5.5.@.| p.6.a.6.6.s.c , , J d.H A c , , e m k c c e R ",
") t t g ) V ) ) i ) ) t f &.&.&.#.&.&.&.#.&.F t f f _ f | o.@.5.5.f.5.f.5.| o.o.| e.w.q.w.w.t.u.V ) ) 5 e f ) ) f a _ _ ) t g 9 ",
"f p p h i f p a p t Y f u a &.&.&.#.&.&.&.&.&.f a p t t |  .X.| g.5.u.5.h.| X. ...| e.e.y.j.g.t.t t f f t p i u g h i i u a h i ",
"M 8 , c , , 7 l m k 3.c I c c &.&.&.#.&.&.&.&.&.&.R R | | | | k.l.z.z.x.c.v.| | | | b.n.m.M.a.c.R %.%.H %.A c 7 , , , T e , m l ",
"f p i V f f g g ) V Y V g f f f &.&.&.&.#.&.&.&.&.&.&.t 9 t N.B.V.k.q.u.u.e.j.j.u.u.u.u.j.j.u.f t ) t 9 e a V g V f t f p V t f ",
"2 ; p t a 7 0 p : Q Q Q d i a 3 7 &.&.&.&.&.#.&.&.&.&.&.&.&.C.g.Z.A.A.0.g.A.k.k.A.B.h.A.k.0.k.p 8 9 0 5 7 ; * 1.a i i 7 0 0 5 p ",
"S.s t F w r v 0 s c 4.x h q w w r v &.&.&.&.&.&.#.&.&.&.&.&.&.&.&.&.&.&.s.D.b.b.N.N.A.F.G.D.F &.{ [ r r , e 1 h 9 8 w r r F 8 0 ",
"p O.p i p f i j j p a j ` g g a V g g &.&.&.&.&.&.&.&.&.#.&.&.&.&.&.&.&.&.&.&.&.&.&.&.&.&.&.&.p i i i f t p &.&.p a a f a g f p ",
"y e m m l T N 7 H v c e y c z H., 1 N c 7 &.&.&.&.&.&.&.&.&.&.&.#.&.&.&.&.&.&.&.&.&.&.&.7 m c , { H &.&.&.&.< < n c l c < < n < ",
"V a _ V t f V i _ V _ i V t _ V t i V f V 0 4 ) &.&.&.&.&.&.&.&.&.&.&.&.&.#.&.g f f f V &.&.&.&.&.&.&.&.7 i i V f f _ f i V f f ",
"3 3 0 p 9 9 0 3 p 0 9 3 0 i h 9 9 3 i p 3 i 7 9 a a 9 &.&.&.&.&.&.&.&.&.&.&.&.&.&.&.&.&.&.&.&.&.&.9 0 5 : a 3 0 t p 9 0 0 i p 0 ",
", b l w z r l , 7 l l b l , < c r b , A v < H k y N , r T H %.A &.&.&.&.&.&.&.&.&.&.&., b k e 3.{ { T %.H e , b k A , r , , A k ",
"V V V u V f f f u f V V V i p V g _ V u f 0 4 V g a V V t t 9 a 7 9 V g i V V t g i t V V V u V V f t ) 7 i V V V u V V t f u t ",
"9 a i 3 t 0 a a 3 0 9 9 p 3 i 9 0 h t 3 3 a 9 0 t i 9 9 0 0 5 h a 0 0 t t 0 i a 3 t 0 9 a f 3 t 0 9 0 9 0 a 9 p i 3 9 0 p i t 0 ",
"z < l T l l e N z v b , 7 b b b l 7 T , w < d.d., l l m J.m J.I y d.J z { L S.e , k r z e l , l { d.H m H B , 7 K.K.L k e k , r ",
"V u C g V V u g V V g g u g g V g u g V C i ) g g V i f f V 0 a 3 t V C V Y C u V V g V u C V V f f f f 9 p g j u C u p u u a u ",
"+ <.s 9 s N e s I X L.E s 3 0 0 v e 7 D a s < < S s 7 < B w N s ( ^ ^ 4.P.L.E E E 2.( L.+ X @ y %.E E E I.Q + U.Y.* * Y.U.U.+ * ",
"6 p a 7 q 8 4 i p 4 x 9 d 0 9 5 8 4 8 5 a 7 F 8 5 9 5 5 8 5 v 0 I x 4 4 I 4 4 4 q q : F 6 4 4 I 8 w F 5 : 7 4 6 6 I T.T.T.T.x P.",
"h ' i t a t t j ] a t d j t i s t a a t h h 0 0 0 s i 0 0 0 0 h s : t t i t t p t f s i p t t a t i g t s i g a t t i t 0 0 0 i ",
"k 1 c , k y , e R.v , < y m , N , < N , w < H c T T v c n n n 7 < m z z c v c 7 m r k k < c , b N , A m v , < v m , r , H H H 2 ",
"g u V C V f C u V C V C C V g V V g C V g t 9 f g g f f V V 0 p t 9 V g g f g u V g V C u g g V f g u g g V C C V g V V V V t t ",
"e 7 7 a w e 7 7 h 7 w e 7 q a < w 7 : a 9 3 < A 0 t B 8 w S < s ; v 7 a 9 B 7 A s 0 w e e 7 a 7 w 7 7 h 5 w 7 7 q a e e w < < : ",
"x x v 7 { G F r 7 v x x F v w r F G r 7 4 < J G w B r w r m H I N U F w N F F r 7 x x r r G 7 r F 4 { 4 G x r G v 4 b 4 x L H , ",
"V V g Z V C V V Z V V V V C Z g g V g u i t 9 g Z C V g V V 9 p 0 ) g Z C g g V u C V V V g Z g C f V Z g V g f C Z V C V V t t ",
"e a 0 7 7 7 a 0 7 7 4 7 h q 7 4 7 p : 7 9 3 w w 7 7 8 8 B w D a s < w 7 5 7 0 i 7 7 7 w i 3 7 7 7 i 3 7 7 7 7 a q 7 7 7 w w e : ",
", e r r r r < r L w v b e L r r r < l l 7 e n J l r r l H c H I < H J l v r v < b r F L < l b r r w v T F r b e l r r r m m H , "
};
