/* XPM */
static char *result[] = {
/* columns rows colors chars-per-pixel */
"64 64 214 2 ",
"   c #1E1D26",
".  c #1F1E2C",
"X  c #211E25",
"o  c #221E2C",
"O  c #281E2A",
"+  c #221F32",
"@  c #1F2026",
"#  c #242226",
"$  c #24232C",
"%  c #2B242C",
"&  c #2B2C2A",
"*  c #272928",
"=  c #34292D",
"-  c #3A2D2C",
";  c #363D2F",
":  c #242234",
">  c #2A2533",
",  c #2B2A34",
"<  c #27263A",
"1  c #2B263A",
"2  c #2A2A3D",
"3  c #322634",
"4  c #322D36",
"5  c #392B33",
"6  c #32273C",
"7  c #322B3C",
"8  c #392C3D",
"9  c #2F3039",
"0  c #2C3030",
"q  c #323231",
"w  c #33323A",
"e  c #3B343C",
"r  c #3D3B3C",
"t  c #383B34",
"y  c #432E2C",
"u  c #43322D",
"i  c #48312D",
"p  c #422F32",
"a  c #453334",
"s  c #4B3736",
"d  c #483A38",
"f  c #553E36",
"g  c #3B4232",
"h  c #404437",
"j  c #454A3C",
"k  c #544136",
"l  c #58433E",
"z  c #4D553E",
"x  c #505B3E",
"c  c #61453D",
"v  c #75513C",
"b  c #2B2C40",
"n  c #2F2740",
"m  c #322742",
"M  c #352B43",
"N  c #3A2E45",
"B  c #3A2E4A",
"V  c #372C49",
"C  c #363141",
"Z  c #3C3345",
"A  c #3B3943",
"S  c #3D324C",
"D  c #3C2F51",
"F  c #3E3152",
"G  c #402F4C",
"H  c #403543",
"J  c #433A43",
"K  c #4A3B44",
"L  c #42354D",
"P  c #45394D",
"I  c #493A4E",
"U  c #4C3246",
"Y  c #523D45",
"T  c #433455",
"R  c #493654",
"E  c #473951",
"W  c #4B3A54",
"Q  c #443459",
"!  c #49375C",
"~  c #473858",
"^  c #4C3A5B",
"/  c #513D57",
"(  c #523D5C",
")  c #573A55",
"_  c #623C4F",
"`  c #4A3760",
"'  c #4D3961",
"]  c #533D63",
"[  c #563F68",
"{  c #583F6A",
"}  c #5D3F61",
"|  c #454442",
" . c #4B4344",
".. c #4A444C",
"X. c #494B42",
"o. c #58484A",
"O. c #4E5143",
"+. c #5A5C4C",
"@. c #545748",
"#. c #4E4151",
"$. c #534456",
"%. c #55425C",
"&. c #59425E",
"*. c #564859",
"=. c #5A4A5C",
"-. c #554855",
";. c #5C5557",
":. c #694B49",
">. c #714E44",
",. c #64554D",
"<. c #6C564A",
"1. c #6B554B",
"2. c #735243",
"3. c #7A5A4B",
"4. c #785549",
"5. c #664455",
"6. c #734D55",
"7. c #6C5B52",
"8. c #655956",
"9. c #7B5959",
"0. c #775D55",
"q. c #5B624A",
"w. c #5A6546",
"e. c #636B4E",
"r. c #67714F",
"t. c #616453",
"y. c #646952",
"u. c #6A6D57",
"i. c #786459",
"p. c #7B6555",
"a. c #6C7455",
"s. c #717759",
"d. c #564062",
"f. c #5C4364",
"g. c #5B4A62",
"h. c #574069",
"j. c #5D426B",
"k. c #614567",
"l. c #624C66",
"z. c #62466C",
"x. c #66496D",
"c. c #6A4A6D",
"v. c #6B4468",
"b. c #665166",
"n. c #67526A",
"m. c #6B546B",
"M. c #6E586D",
"N. c #685666",
"B. c #644671",
"V. c #674872",
"C. c #6A4A75",
"Z. c #6E4C79",
"A. c #684774",
"S. c #724E7C",
"D. c #6E5373",
"F. c #6F5278",
"G. c #6F5872",
"H. c #725A74",
"J. c #73537C",
"K. c #795F79",
"L. c #755A7A",
"P. c #765263",
"I. c #6A6161",
"U. c #7D617C",
"Y. c #736964",
"T. c #835A4D",
"R. c #88644B",
"E. c #896C59",
"W. c #946B5C",
"Q. c #956A53",
"!. c #9A7359",
"~. c #A0724F",
"^. c #AA7759",
"/. c #A07558",
"(. c #836D62",
"). c #9A6E63",
"_. c #8B7466",
"`. c #877267",
"'. c #9D7C64",
"]. c #947C6A",
"[. c #9A7D6A",
"{. c #987764",
"}. c #A87E63",
"|. c #B2815D",
" X c #9A8270",
".X c #A4836D",
"XX c #AE8769",
"oX c #B68B6E",
"OX c #BA8B68",
"+X c #B5916F",
"@X c #A58977",
"#X c #A68873",
"$X c #B68F73",
"%X c #AE9075",
"&X c #BF9273",
"*X c #B6957A",
"=X c #BD9A79",
"-X c #B89579",
";X c #C49671",
":X c #C69E7B",
">X c #CDA179",
",X c #D3A57A",
"<X c #765080",
"1X c #785181",
"2X c #C19F81",
"3X c #C8A281",
"4X c #D5AA83",
"5X c #D5AA86",
"6X c #DCB38C",
"7X c #E2B58C",
"8X c #E8BB8D",
"9X c #E4BB94",
"0X c #EEC197",
"qX c #F3C69A",
/* pixels */
"U.U.U.H.m.U.U.K.K.m.H.U.U.U.M.H.U.K.K.U.m.=.U.U.U.n.K.K.K.K.K.b.U.U.U.U.b.U.K.U.U.H.N.U.K.U.K.N.U.K.K.U.K.N.K.$.( &.&.C.x.z.c.W ",
"j.[ [ h.h.j.h.f.h.^ d.h.] [ d.h.{ { [ j.f.%.j.j.h.f.[ j.f.[ ] ( h.] [ h.d.h.h.j.[ ] ( j.] [ h.d.[ j.h.h.x.d.] Z ^ ] ] [ { [ [ W ",
"R P ( ^ W ^ W T ( W ^ E R ] W W ] ( ( ] E J f.( ] W ^ ( P ! ( E ^ L ^ %.W ^ ^ S ^ ^ W W T ] ^ W ^ ] ( ( ( E J H / ( W ( R E ( E ",
"V.z.A.A.B.B.V.k.C.j.A.z.B.C.A.B.B.S.Z.Z.z.&.Z.C.A.A.j.A.j.A.B.j.A.f.C.A.A.z.C.f.C.B.B.V.f.A.C.V.z.Z.Z.Z.Z.k.z.z.C.A.B.B.z.x.C.j.",
"F S Q F Q ! F S Q Q Q S F T F ! Q Q Q ! W W ] Q Q Q ! Q S F Q Q T S Q F Q Q T S Q T Q F B Q F Q ! Q Q Q ( T S F Q Q Q ! F S Q Q ",
"k.f.f.E j.j.f.j.P f.j.j.f.d.W j.j.z.z.x.( I x.j./ ^ k.j.j.( W j.j.f.j.W f.k.k.f.W %.j.j.f.j.E f.j.j.z.x.f.( j.j.f.E j.j.f.f.R f.",
"j.j.B.f.B.j.j.B.f.j.j.j.j.j.j.V.{ j.A.S.x.f.Z.{ j.j.B.h.z.j.f.j.j.j.j.j.j.j.j.B.j.j.j.j.z.j.f.B.j.j.B.Z.Z.f.j.j.j.f.B.{ j.z.f.j.",
"Q Q F B T F Q Q V Q Q Q Q F S T Q Q Q ^ W I ] T S S T Q Q B N B B F D N F D D Q B D ! Q Q Q B T T Q Q Q ( L Q Q F S Q F Q T B Q ",
"k.W ] f.f.j.W ( f.f.j.j.I f.f.j.f.z.j.z.%.P j.z.f.f.f.] H R V V B N N W R R R R } f.f.k.W ( f.f.j.z.z.j.f.^ j.I d.f.f.j.E ] f.f.",
"B.{ z.j.j.j.f.j.B.j.j.z.} j.j.j.B.S.A.C.x.f.S.B.B.j.j.] G B 1 n 1 m M B V B H T ] { { B.f.j.z.j.j.Z.C.A.S.f.z.h.j.j.B.j.f.j.B.j.",
"T B S T T Q N L Q F T T Z T F T T T Q ^ E P ^ T T D G m > + + + + + O + : : : 1 V F L ~ S S D T Q Q T R ^ P Q Z F T T T S S R T ",
"A.x.C.f.f.A.x.C.V.%.f.C.x.C.f.j.C.V.V.C.f.$.A.C.C.W ( G 6 + + + + + + + : : < 2 7 %.m.L.g./ k.%.C.V.C.c.C.l.K.%.%.f.f.A.z.#.n.1X",
"' ^ ' ^ ^ ^ ] ' ! E ! ' ! ' ^ ^ ^ ' ' d.( / [ ' ! L V 1 + + + + + + + : < < < b : < B T N H ^ ! ' ] ' ' f.W R w T ! ^ ' ' L Z ^ ",
"( E { f.] f.( E f.( f.E ^ f.f.( h.j.f.j./ P f.f.} E m 1 : + < + + : : : < b b < : > 8 G Z f.f.d.d.f.j.f.f./ E I f.f.( f.$.I &.( ",
"z.j.B.z.j.j.z.j.B.{ B.j.j.B.z.j.B.A.A.A.k.&.A.B.j.! m < < + + + : : b b b b b < : : 6 B W B.j.j.j.A.A.A.C.j.j.j.B.z.j.B.j.j.A.h.",
"B B Q D T Q D S D T T S D T D Q R Q T ! E P ] T V m 2 : : + + : : < < b b b b b : + + 1 6 D D Q ~ Q F R ^ S S S F F T Q F S F F ",
"C.x.k.( c.B.V.x./ k.C.x.x.k.( C.z.c.Z.Z.f.$.C.z.) L m : : < 2 e C C 2 2 < b 2 n : + + m R } W x.B.B.C.Z.c.f.x.x.k.( B.B.C.k./ x.",
"[ [ { ] j.] [ j.] h.h.[ [ j.[ j.] { j.A.k.&.A.] ^ L m , 2 Z $.8.8.o.Z < < < < n : + + + B ^ ( j.[ h.j.V.C.d.h.h.f.d.{ ] { j.] { ",
"T T F Z T D T T N T Q T F S B F T T Q ! I P ( D N 8 8 Z  .8.].@X@X(...3 : : + + : + . + 1 B N S F T T Q ^ S Q T F Z F Q T F Z R ",
"B.( f.c.x.x.( f.C.k.B.x.W x.x.x.B.C.C.C.&.W C.C.k.&.o.5.0.`.#X*X2X#X0.Y a 8 6 + + + + 1 N / z.z.V.C.C.V.x.%.V.W j.x.x.z.( k.c.j.",
"{ ( [ [ [ [ ] ] j.] [ h.] [ [ f.j.B.z.B.z.f.A.{ ' _ T.).[.[.]. X2X-X'.9.>.f 6 + + + + < N ! ] { h.B.B.j.C.] [ ' [ [ [ [ ] d.j.' ",
"Q S T T S ! H T ~ S T T S T S T Q Q R ^ E H ( T R o.(.}.@X].i.E.*X:X;X}.Q.v p O + + + 1 7 M T B ! Q R ^ ^ P %.Z S S T Q S T ! S ",
"Z.C.C.z.f.Z.A.A.V.f.z.C.V.Z.f.z.Z.A.C.C.k.( C.A.v.6.).#X XY.+.1.%X4X4X;X^.T.a + + + : B E E z.} Z.C.C.A.Z.l.L.%.f.k.k.Z.C.C.V.%.",
"Q T ! R E Q ^ Q Q L T Q R Q T R ! ! ! ^ / R ( R U :.)..XY.;.j <.$X7X7X>X^.>.p O + + > 1 , Z T E Q ! ~ ~ %.P S w S R E Q ! Q Q L ",
"f./ x.x.j.j.f.W x.f.z.( %.x.x.f.z.C.V.x.&.W x.v.5.T.).}.p.O.o.p.:X7X6X;XQ.c 5 o . : 6 L H z.x.z.z.B.V.V.k.&.( $.x.z.j.z.%.%.x.f.",
"[ ] { { h.h.f.h.j.] j.[ h.j.[ [ j.j.j.B.k.( B.} _ 4.!.}.E.p.R..X=X3X=X'.<.s = o : > 6 T ^ j.[ [ [ B.j.z.V.( f.h.j.[ [ h.{ [ { ] ",
"L S T B R R L S S T T S F T S R Q R Q ^ P H ( R s _ W.XXoX+X+XXX.X].E.8.d 4 > > , > 1 M Z T S R R R T R ! L S L T S R ~ S S B R ",
"Z.C.C.f.Z.A.A.C.&.c.C.Z.C.z.f.Z.C.Z.S.S.k.( S.x._ 6.W.;X4X4X=X[.i.;.X.d w , , , , M H ) z.B.&.C.C.B.S.J.Z.f.Z.A.B.f.C.A.Z.C.&.V.",
"^ ] ] ^ ] ' ] ] ! ] ' ] ' d.^ ] ' ] [ B.f.%.B.! ) _ W.oX4X2X[.7.| t 9 9 , , , , , m S Q ' ] ^ ] ' ' [ j.x.( ' ' ] ^ ] ' ] ] ^ ] ",
"R F S Z T Q L T Z R R T F F S T T R T ~ P L ^ T G ) 9.).#X].7.j w > > , , > > $ > 6 S T S F Z T Q Q Q Q W S R F D Z T T S T Z R ",
"C.f.z.Z.C.A.f.z.Z.V.A.Z.%.A.C.C.B.S.Z.S.k.( Z.S.C.v.P.9.9.8.K , > > * $ $ $ $ > H ] z.Z.f.k.Z.C.C.S.S.S.Z.f.C.&.V.C.C.V.( x.C.V.",
"' ! ! ^ ^ ^ ! ! ' ^ ^ ' ~ ^ ^ ' ' ] ] f.d.I f.] ^ / / K d r 4 , , , > : $ $ @ $ N T R ' ! ^ ^ ^ ^ ^ ] ] j.R ] ! ! ' ] ' ! ' ] ` ",
"W E I L A W I E W Z J W E W Z J E I E I e P *.*.$.J H e w , , , 9 9 9 , @ @ $ : 4 ..-.*.I e P Z W R I W I I g.-.g.$.%.g.$.g.g.^ ",
"Z.B.A.z.k.C.A.A.V.f.j.A.A.C.k.z.C.C.C.B.( l.L.J.J.l.( N , : * , 9 9 9 , $ $ $ 2 Z j.J.J.%.( B.f.C.A.A.C.Z.l.L.J.F.F.D.J.F.F.F.n.",
"T F R T T T R F T S L F F Q L T R R T T Z I ^ R Q Z 6 > $ $ $ $ 0 9 , , $ $ $ $ > 8 T L w Z E L T ! R R ^ L F T Q T L Q T T F S ",
"k.&.C.C.x.V.z.%.Z.z.C.f.z.C.C.x.B.f.k.C.f.f.C.C.A.f.P N , * * # $ $ $ $     $ > R } z.k.%.C.C.x.x.Z.Z.C.C.f.f.f.C.A.z.V.f.f.C.z.",
"] ^ ] ' ' ' ] ^ d.` ' ^ ' ' ' ' ] ^ ' ] Q f.z.[ ] Q N 4 0 * # X X # * # X X X % B T ' ] ^ ] ' ] ' [ [ [ j.^ ^ ' ] ' d.' ] ^ ] ' ",
"E E Q S ^ ^ R E S R ^ R E ~ F ^ ^ R L F ! E ( ! T B N , & & - u s k k i u = % % 7 B ! R E R S ! ^ ! ! ^ W P E R Q S ^ ^ E L S ! ",
"C.A.A.f.C.A.A.C.g.V.C.C.A.V.k.Z.A.C.A.f.z.k.S.A.z.( R 7 % - k 2.Q.!.~.R.v f = 3 H { B.C.A.A.f.Z.A.A.Z.1XJ.k.Z.A.V.f.Z.A.C.C.f.A.",
"' ' ' E ' ` ' ' R ' ' ' ' ! R ' ! ' ' R ^ f.j.' R T m > $ u v /.&X>X;X;X~.v y % M T ^ ` ' ' T ^ ! ' ' h.j.W ! ' ^ ~ ' ` ' ^ R ' ",
"! L E P R ! L T E ~ ~ ! S E P Q ~ S R P ~ P ( ! R Z 8 O % a 4.XX,X0X,X,X|.v i O 5 G ! ^ L T L R ! ^ ! ! ^ L R S T P ~ ! S E P W ",
"Z.f.B.Z.A.A.f.x.Z.V.A.Z.f.A.C.C.C.f.A.Z.z.j.J.S.Z.{ T 8 > a 2.XX6XqXqX0XOXT.i % R f.x.C.z.x.C.C.A.J.J.S.S.k.Z.f.C.A.C.A.f.C.Z.B.",
"! T T Q ! ! T R ^ Q Q ~ T ! Q ^ ! S Q ^ T ( { ` Q T V < > 5 o.Q.>X0XqX0X&XR.i O m T Q ! E T Q ! ^ ' ^ ] f.W ! T Q ! ' ~ T Q ^ Q ",
"n.$.P ^ E f.( L %.m.n.b. .W R ! h.%.%.d.L R f.] { Z N 4 > = s 3.+X4X0X,XoXT.a O B L P { ( ( ( R [ } ] f.] $.n...E W R h.( %.d.T ",
"z.W ^ B.j.B.z.( W V.D.j.E d.j.j.B.z.z.j.W f.V.B.B.^ E M , % - :. X+X3X*X{.>.p 3 G ( ( B.{ B.z.{ B.z.z.B.C.g.B.E ( j.j.B.z.j.j.] ",
"S w L T L Q R Z Z T ! Z w P T E ~ T T Q H P ( Q Q A N 2 w , % a y.(._.(.7.k 3 O B G P T L ! T P T ! R ! W L Z w E P T ! T L ! L ",
"x.l.Z.C.V.A.V.f.Z.z.Z.f.x.Z.C.B.A.z.z.Z.j.f.S.Z.C.B.#.F A w & & d |  .| e 4 3 8 } B.A.A.f.S.C.A.B.S.S.S.Z.k.k.k.Z.C.B.A.z.k.Z.k.",
"Q R ` ! ^ ^ Q T ` ! ` R Q ! ! ` ^ R Q ^ T ( j.^ ` F S Z A 9 > @ $ > , % $ o : 3 T Q ! Q T ! ! ` ' ! ` ' f.! Q Q ` ! ^ ^ Q Q ` ! ",
"( ( ^ P ] ] ( / L ( d.^ %.W L ] ] ( W L ( E f.] E P E Z A r , $ @ @ @ @ @ $ 2 C S W ] %.( ( L ( ] ] ( f.%.W ( ( ( L [ ( ( W P ] ",
"A.B.V.f.A.B.B.A.f.B.A.A.B.V.k.C.B.A.V.k.k.z.S.V.z.f.d.#...g t 0 * $ @ * & q r $.&.z.B.A.V.V.j.C.B.B.Z.S.J.f.B.B.V.j.C.B.B.A.k.B.",
"! ! Q S Q Q ! ! S ! ! ! ^ Q F ! Q ! Q S ! %.h.Q F F T ..O.+.@.X.t * * & ; g j ..P T ^ Q ! ! L Q Q ! ! ' d.R ! ! Q S ! Q ! Q S ! ",
"] E W W ( ( T W ( ( ( ^ S W ^ ( ( L ^ / ^ W ( ] ^ ^ %.%.;.t.y.+.O.g g g j O.O...$.^ ] ^ E R W ^ ( ] ( ] ( E ' L W / ( ^ L W ( ( ",
"C.j.B.B.B.V.j.x.C.z.A.A.f.A.A.A.B.f.A.Z.j.k.<X<XC.V.V.D.H.u.u.u.y.q.O.x O.w.;.g.D.B.B.A.j.V.A.V.B.<X<XZ.S.j.C.j.V.A.V.V.j.C.A.z.",
"Q S F Q Q Q S F ! Q T T S F F ~ Q S T Q F ! ' Q F Q Q ~ ! $.t.a.s.s.e.w.w.O...A ~ Q F ~ S F Q Q ! ! ! ^ ] L S Z F S E S S S E S ",
"H.-.W %./ z.f.W g.G.H.G...%.( d.k.f.f.z.P W z.k.z.E f.j.j.g.t.y.s.s.r.w.w.t.N.M.G.m.l.H.G.H.G.l.L.G.G.G.n.n.H.M.G.N.n.G.M.M.H.b.",
"h.S W h.] j.j.W S j.B.( S ^ ] [ [ j.[ [ E f.j.j.h.d.{ j.j.%.b.+.y.y.q.q.@.-.g.j.h.d.d.j.h.h.j.f.{ j.j.[ %.d.j.h.h.h.f.j.j.j.j.j.",
"P C W ^ W ^ W Z I W ^ J H ^ W W ] E T ^ I I %.^ ( W ^ ( ] W W | O.O.O.j | J W P ^ ! W W S ^ ^ W ^ ^ L ( W R E E ^ W W ^ ( ^ ] W ",
"C.k.Z.A.V.V.A.j.Z.j.C.z.x.C.A.B.A.k.x.A.j.k.Z.Z.A.A.z.C.S.B.%.d A g r r J E j.f.Z.B.V.V.k.Z.C.B.B.A.f.C.j.Z.z.z.Z.C.B.V.S.S.S.x.",
"S S Q F Q ! F S Q F Q F F Q Q Q ! F F Q F W h.~ Q Q ! Q Q F B , 4 9 , , , M F S Q F Q F S Q Q Q ! T S Q Q Q S F Q F ! ~ Q Q ^ ^ ",
"f.f.f.E f.j.f.f.E f.j.f.f.%.W j.f.f.%.E } ^ k.j.( W z.{ f.W N > > > , , 7 L ( f.W ( j.f.f.f.P f.f.f.f.E ] j.j.j.d.W j.j.j.z.k.%.",
"B.j.B.f.B.j.j.B.f.B.j.j.j.B.f.B.j.j.B.j.j.k.Z.j.j.k.B.[ ( R M % > , , > 8 L ( B.f.z.j.B.j.z.j.B.j.j.B.j.B.j.B.j.j.j.B.j.j.A.Z.A.",
"Q Q F S Q F ! Q V Q ! Q ! F V Q F Q Q B T ^ ] Q S S D B m 1 % $ $ $ $ : : m D Q S F ! Q ! F S F Q Q Q V T Q F Q F B Q F ! Q ^ ^ ",
"f.E ( f.f.h.W %.f.d.j.f.P d.f.f.f.E %.f.} W { z.k.( ] T 3 $ $ @ #   . $ 1 G E R f.f.f.j.W ^ f.} f.E ( f.f.j.f.E d.f.f.f.j.f.j.%.",
"A.j.B.B.z.B.j.z.A.j.z.V.j.B.B.B.B.k.B.A.f.j.Z.S.A.z.] L 1             O 3 H ] z.A.B.j.A.j.B.B.B.B.z.z.V.j.B.B.k.B.B.B.z.S.Z.Z.Z."
};
