/* XPM */
static char *result[] = {
/* columns rows colors chars-per-pixel */
"64 64 215 2 ",
"   c #1E1E27",
".  c #1F1F28",
"X  c #1F1E32",
"o  c #211F27",
"O  c #211E2B",
"+  c #281F2E",
"@  c #211F32",
"#  c #232227",
"$  c #2C2327",
"%  c #24232C",
"&  c #2B242E",
"*  c #272929",
"=  c #2C2B2C",
"-  c #35262B",
";  c #332B2B",
":  c #392C2C",
">  c #38272B",
",  c #2F322D",
"<  c #37352C",
"1  c #242233",
"2  c #2A2533",
"3  c #272831",
"4  c #2B2B34",
"5  c #262539",
"6  c #2C253A",
"7  c #2C2A3C",
"8  c #27283B",
"9  c #312632",
"0  c #322B35",
"q  c #3B2B32",
"w  c #32273C",
"e  c #342B3D",
"r  c #2F303A",
"t  c #333237",
"y  c #36333B",
"u  c #3A333C",
"i  c #3C3A3C",
"p  c #383A35",
"a  c #52382F",
"s  c #402E35",
"d  c #4E3B34",
"f  c #423B3C",
"g  c #483739",
"h  c #553A39",
"j  c #4B362E",
"k  c #633E3F",
"l  c #3E4533",
"z  c #44493A",
"x  c #5D443C",
"c  c #59433A",
"v  c #4C553D",
"b  c #64433B",
"n  c #664C3D",
"m  c #624033",
"M  c #68513E",
"N  c #78533C",
"B  c #2C2D41",
"V  c #342B42",
"C  c #3A2D45",
"Z  c #372B4B",
"A  c #3A2E4A",
"S  c #363341",
"D  c #3C3245",
"F  c #3D324C",
"G  c #3E3B43",
"H  c #3C2D50",
"J  c #3E3152",
"K  c #402F4A",
"L  c #403642",
"P  c #433B43",
"I  c #42354D",
"U  c #46394D",
"Y  c #493A4E",
"T  c #4C3348",
"R  c #5A3C49",
"E  c #433455",
"W  c #493756",
"Q  c #463951",
"!  c #4B3A54",
"~  c #45355A",
"^  c #49375C",
"/  c #473858",
"(  c #4C3A5B",
")  c #513D56",
"_  c #523D5C",
"`  c #5A3C58",
"'  c #4A3760",
"]  c #4D3961",
"[  c #533D63",
"{  c #593E64",
"}  c #563F68",
"|  c #583F69",
" . c #4A4B44",
".. c #4A424C",
"X. c #4D4A4C",
"o. c #474543",
"O. c #5A444D",
"+. c #564A49",
"@. c #525C42",
"#. c #5A5E4A",
"$. c #555549",
"%. c #4E4252",
"&. c #4F405B",
"*. c #524455",
"=. c #564B56",
"-. c #55415C",
";. c #59425E",
":. c #564859",
">. c #5A4957",
",. c #5E5554",
"<. c #5B5855",
"1. c #66454B",
"2. c #68554C",
"3. c #77594A",
"4. c #664954",
"5. c #635551",
"6. c #675851",
"7. c #6B5C59",
"8. c #785958",
"9. c #754949",
"0. c #5B6249",
"q. c #5B6747",
"w. c #626A4E",
"e. c #686B56",
"r. c #676558",
"t. c #7B6554",
"y. c #7A675B",
"u. c #6B7354",
"i. c #717858",
"p. c #564062",
"a. c #5C4365",
"s. c #5B4963",
"d. c #574069",
"f. c #5D426B",
"g. c #604567",
"h. c #614D65",
"j. c #62466C",
"k. c #66496D",
"l. c #6A496D",
"z. c #694667",
"x. c #665266",
"c. c #67526A",
"v. c #6B546B",
"b. c #6D586D",
"n. c #685167",
"m. c #644671",
"M. c #674872",
"N. c #6A4A75",
"B. c #6E4C79",
"V. c #724D7C",
"C. c #6E5275",
"Z. c #6F5278",
"A. c #6F5872",
"S. c #725973",
"D. c #73527B",
"F. c #755979",
"G. c #795E79",
"H. c #725576",
"J. c #765164",
"K. c #7D6B62",
"L. c #7D617C",
"P. c #865C4D",
"I. c #805947",
"U. c #835C58",
"Y. c #855954",
"T. c #8F604F",
"R. c #93654B",
"E. c #9D734F",
"W. c #876759",
"Q. c #916E59",
"!. c #9B6E52",
"~. c #8F735B",
"^. c #9D735C",
"/. c #9B785D",
"(. c #A47B5E",
"). c #886B64",
"_. c #916F63",
"`. c #8D7666",
"'. c #937965",
"]. c #967B69",
"[. c #9B7967",
"{. c #A37C67",
"}. c #B1875E",
"|. c #9B806E",
" X c #9A8171",
".X c #A9846B",
"XX c #B48966",
"oX c #AB8E77",
"OX c #A68771",
"+X c #B98E70",
"@X c #B39172",
"#X c #BC9374",
"$X c #BE9A7B",
"%X c #B3947A",
"&X c #C39168",
"*X c #C19C7C",
"=X c #CA9E7B",
"-X c #C89974",
";X c #CDA27C",
":X c #D7A67B",
">X c #765080",
",X c #795481",
"<X c #7F5E82",
"1X c #BD9C80",
"2X c #CAA583",
"3X c #D6AA85",
"4X c #D7AB85",
"5X c #DAB38F",
"6X c #DCB591",
"7X c #E2AF83",
"8X c #E4B78E",
"9X c #E6B88E",
"0X c #E8B888",
"qX c #F3C69B",
"wX c #F2C698",
/* pixels */
"L.L.L.S.v.L.G.G.L.v.S.L.G.L.A.S.L.G.G.L.v.:.L.L.L.c.G.L.G.G.G.x.L.L.G.G.v.G.G.G.L.S.v.L.G.L.S.v.L.L.L.L.G.n.G.:.-.-.-.N.z.k.k.! ",
"f.} } d.a.} f.} [ ( p.d.[ } p.d.} f.[ f.a.;.f.d.d.a.d.d.| } [ _ d.} } } a.} f.f.[ p.&.f.[ } d.a.f.d.p.p.j.a._ F ! [ [ } f.[ } ( ",
"W U _ ( ! _ W E _ ! ( Q E [ ! ! _ [ _ [ ! P p.[ _ ( ! _ I ^ _ ! ! F _ _ ! ( ( I ( ( ! W F _ ( ! ( [ ( [ _ Q L L _ ( ! [ Q E _ Q ",
"k.f.N.N.m.m.M.g.B.f.N.j.k.N.N.m.M.V.B.B.k.;.B.N.N.N.f.N.g.N.m.| k.{ k.m.N.f.N.a.B.m.m.m.f.B.N.m.k.B.B.B.N.j.k.j.N.N.j.m.k.k.N.f.",
"J F ~ J ~ ~ J F ~ E ~ F J ~ J ~ ^ ~ ~ ^ ! Q [ ^ J ~ ~ E A E J H Z e Z E ~ ^ E A E ~ ~ E A ~ J ~ ~ ~ ~ ~ _ Q J J ~ ~ ~ ~ K F ~ ~ ",
"j.a.a.Q f.j.g.a.Q a.f.j.a.p.! j.f.f.j.k.` U z.| Q ~ _ W W I K K C K K I _ f.a.g.! [ f.a.j.a.Q a.f.f.j.k.a.( a.f.[ Q j.f.g.{ Q { ",
"f.f.j.f.j.| f.m.a.f.f.f.f.f.a.m.d.f.M.V.m.a.B.[ _ I A V V V w 6 6 6 V A _ | | m.f.f.f.f.f.j.f.m.f.f.m.B.V.p.f.f.j.a.m.f.f.m.a.f.",
"~ ~ J A ~ J ~ ~ A ~ ~ ~ ~ J A ~ ~ ~ ~ ( ! ! ( Z 6 6 1 1 @ + O @ O @ @ @ 6 Z E ~ A E ~ J ~ ~ A J E ~ ~ ~ _ Q ~ ~ J A J ~ ~ E A ~ ",
"j.! _ f.a.f.! _ a.a.f.a.Q a.a.a.{ j.g.j._ I W K V 8 8 @ 1 @ @ @ @ @ @ 6 w K W ! a.a.f.j.! _ a.a.f.j.j.j.a.) j.E a.a.f.a.Q { a.a.",
"m.{ j.f.j.f.a.f.m.f.f.m.{ f.f.j.m.V.m.B.g.W W Z 6 8 8 5 5 @ 1 @ @ @ @ @ 5 V W [ j.f.| j.a.f.m.f.f.B.N.M.V.a.f.a.f.f.m.f.a.f.m.| ",
"E A I J E E F F E J E E C E J ~ E ~ E W K w 2 @ 5 8 B 8 5 @ @ 1 @ @ @ @ 1 6 V e E / E W I D E E ~ E E ~ ( U / S J J E E F F / ~ ",
"N.k.N.j._ N.m.l.m.-.a.N.k.N.a.a.N.M.k.f.I 9 @ 1 5 B B B B 8 5 @ @ X X 5 1 V I W ! F.<XG.s.! j._ N.m.l.N.N.h.G.-.-.a.a.N.k.) h.G.",
"] ' ' ( ( ( [ ] ( E ^ ] ' ] ( ( ' [ ( W V 2 @ @ 5 8 B B B 8 5 5 @ 5 1 1 5 8 V A e Q [ ( S F ( W ] ] ] ] a.W ~ u E ( ( ] ] I D ( ",
"_ Q a.a.[ a._ Q a._ a.Q ( a.a._ { | [ W w @ @ 5 5 B B B 7 B B V D V 6 1 1 5 C e ! -.a.( P ;.a.[ a.a.a.f.a.) Y Y a.a.[ a.! ! ;.-.",
"m.f.m.m.f.f.j.f.m.| m.f.f.m.j.f.f.N.m.( w @ @ @ 5 5 5 5 5 B P >.7.,.L 6 @ 5 V I f.f.f.j.f.m.f.f.f.m.N.N.N.a.f.f.k.f.f.f.f.f.m.f.",
"F A J H E ~ J A J E E F J J J ~ E E J C 2 O @ @ @ 1 6 @ 2 L 5.). X`.7...P D V e A E E J F E J ~ ~ E E ~ ( J F A E J ~ ~ F F J J ",
"M.M.j.) k.k.k.k.) j.k.N.k.a._ N.k.l.k._ w O @ @ @ + 9 e s O.).oX1X%X].K.7.4.O.` ) a.k.l.k.j.) k.m.m.N.B.k.a.k.k.j.) N.m.N.j.) j.",
"} } f.[ f.} | | [ } { } } f.[ | [ } { ( w O @ @ @ 2 s h b W.{.1X1X%XoX].[.W.4.` _ } } } } f.[ f.} } f.m.N.p.} } a.[ | } } f.[ { ",
"E E J C J E E E A E ~ E J F F E E ~ J Z 2 @ @ @ @ q h I.(.+X2X$X'.y.K.`.OX_.1.T C I ~ E E J C J E E ~ ~ ( I E E J D J J J E D E ",
"M._ a.k.j.k._ a.l.j.k.m.) j.j.k.j.N.k.[ V @ @ @ @ q k R.XX:X7X$Xt.,.,.K.OX[.8.1.z.j.j.N._ a.k.k.k.N.N.N.k.;.m.! j.k.j.k.) j.k.j.",
"| _ [ } } } _ [ f.] } } _ } } { | N.| [ K w + @ @ q b R.&X7X9X2Xt.+.+.r. X{.U.1.;.[ [ | [ [ } | } m.j.f.N.[ } [ } } } } _ } } [ ",
"~ I E E J ^ I E ( F Q E I ~ F E ~ ~ W W C 2 @ @ O 9 h 3.XX3X9X2X'.6.,.r.'.{.P.1.R ( ! _ U D E F W ~ ~ ( ! U &.D F J Q W I Q ~ A ",
"B.M.N.k.g.N.M.N.N.;.j.B.m.N.g.j.N.N.M.M.) e w % % % : x Q.#X3X4X@X~.3.t.[.(.P.9.R H.<XG.s.) l.a.N.N.N.N.B.h.F.*.a.f.g.B.N.N.N.-.",
"~ ~ W E E ^ ^ ~ ~ I E ~ ~ ~ E E ^ ( ~ W I e 4 1 2 % 9 f 2.`.OX#X@X.X/./.XX(.P.1.s F ^ Q e F E Q ~ ^ ( ~ -.Q E e I E ~ ~ ~ ~ ~ I ",
"a.) k.k.a.j.a.) k.f.k._ ;.k.k.a.j.M.M.g.U e e 3 4 4 4 t f +.6.y.'.@X$X;X=X.XY.k 4.a.j.{ ) j.j.g.g.m.M.k.j.-._ -.j.j.a.j.-._ l.a.",
"{ } | } } } a.[ | [ | [ } | } } | m.m.f._ L C e 4 4 4 4 r 7 y z 2.'.$X3X;X.X8.R { [ | | _ f.| | | m.f.k.k.[ a.{ f.| } a.| } f.[ ",
"F I E A ~ W E A A E ~ I I E F ~ ^ W E ~ I D F w 2 3 2 3 3 3 = r i 5.'.%X+X{.4.T C E E E I E A ~ ~ E E ^ ! F I F E A ~ ~ I F A ~ ",
"N.N.M.a.N.N.N.N.a.l.N.N.N.k.;.B.M.B.V.V.g.) a.I e % % % % 3 3 3 4 z 5.W._._.J.z.;.j.N.N.N.M.;.N.N.N.V.D.B.a.N.N.k.;.V.N.N.N.;.m.",
"[ [ [ ^ [ ] [ [ ( [ [ [ ] [ ( } ( [ | j.a._ { F 4 O o % 1 3 4 4 3 t f o.O.O.` [ ( [ [ [ [ [ ( [ ' [ [ | m._ [ ] [ ( } ] [ [ ^ [ ",
"E J E D E E I E D E ~ ~ J F F E E ~ E ^ U I ^ C 2 o . % 3 4 r r 4 4 9 4 w K K K D E ~ E J I F E E ~ ~ ~ ! I E J J D E E F Q D ~ ",
"B.;.k.N.M.M.a.j.B.N.N.N.-.N.N.m.M.V.V.V.j._ N.{ C & o % 2 4 t t r 3 2 2 4 I _ ` N.N.m.V.a.g.N.M.M.V.V.V.N.a.B.-.m.N.N.m.;.m.B.k.",
"] ^ ^ ( [ ( W ^ _ ^ ( ( W ^ ( [ ( [ [ { ;.U { I 6 O o % % 4 7 7 4 3 % % + V A ^ [ ( ^ ( ^ ^ ^ [ ( _ [ { f.W _ ^ ' ( [ ( ^ ' [ ^ ",
"! U U I L ! U U ! L I Q U Q D I ! ! Y ! u P :.P e # . . % 3 3 % % % * * # 4 D L P =.:.:...u U D Y Q U ! U Y s.=.s.&.*.s.-.:.s.( ",
"N.M.N.k.g.N.N.m.m.;.j.N.M.N.j.j.N.M.M.m._ n.B.a.C % o # # & * $ # * * = = D [ { ! N.,XD.-._ m.a.N.N.N.N.B.h.D.D.D.C.Z.F.D.Z.Z.c.",
"E E E E I ~ ~ E ~ F I J E E I Q E E E E D U W Z 2 % $ $ - : < : = = = = * w A I t I ~ F e D Q I ~ Q ~ ~ ( I E J ~ I F ~ E Q ~ F ",
"j.` N.N.k.m.j.;.B.g.N.a.j.N.N.j.N.a.g.N.a.a.k._ e & : j c n M M x d < $ = u _ ) N.k.k.k.-.N.N.k.k.B.B.B.l.a.a.a.B.N.k.m.a.a.N.j.",
"[ ( [ ' ] [ ] ( [ ^ [ ( _ [ ] ] [ [ ( [ ^ a.f.E w - a N E.}.XXXX(.3.a $ O e E W [ ' ] ] ^ [ ] [ [ [ } } f.( ( [ [ ] [ [ ( ( } ' ",
"~ U ^ F ( ( W U F W ( / Q ~ J ( W Q E A W E ( C + > k R.&X:X0X:X-X!.x $ O 9 A I F Q ^ W Q W F W ( ^ W ( _ U Q E ~ F ^ ( W I F ( ",
"B.N.N.a.B.N.N.B.a.N.N.N.N.m.a.V.m.B.N.g.k.g.V.( 9 > m E.;X0XwX8X=X^.+.> & C _ N.k.k.m.B.N.N.a.B.N.N.B.>XV.g.N.N.M.g.B.m.N.N.s.m.",
"' ( ( E ] ~ ] ( E ] ] ^ ( ( ~ ^ ^ ( ( ~ ( { { Z + > m (.3XqXqX8X-XW.h & + 6 J ( W ^ ] ^ ] ' E ( ^ ^ ] } f.W ] ] ( ~ ] ~ [ ] E ] ",
"^ I E I W ^ I Q U ( ~ ( F E E ( ^ I E U W U ( C + > b (.3XqXqX4X{.3.g % % 6 A F U Q ( ( I E I ~ ^ ( ( ( ( U ^ F E I ~ ^ I E I W ",
"V.a.M.N.N.N.a.k.Z.m.N.N.a.N.N.N.M.a.N.V.j.g.N.{ e q b Q.*X6X5X$XW.b q & 2 A ( a.B.N.m.B.g.k.B.N.N.>XV.V.V.g.N.a.N.N.N.N.a.N.B.k.",
"^ E E ^ ^ ^ E E ' ~ / ~ U ^ ~ ( ~ I ~ ( ~ _ } J 6 9 g 3.[.oXoX'.2.g = 2 4 S F F ^ ^ ~ ^ E E ~ ^ ^ ] [ ( a.W ~ Q ~ ^ ( ^ I ~ ( ~ ",
"c.%.U ( Q { _ U -.c.v.c.P ( W ! { _ p.[ I U { W C & q d 5.8.y.5.d 0 = 4 r F %.&.a.( Q a._ { _ U a.[ [ { _ :.c...Q ! ! { _ _ a.E ",
"k.W _ f.a.m.j._ ! N.B.f.U [ f.f.m.m.f.f.! a.m.{ E e & & u P l i ; & 4 r S Q p.f.f.f.-.m.f.m.f.a.m.j.m.f.N.f.k.U [ a.f.m.m.j.f.[ ",
"F t I ~ E W E D D E W u y E U Q ~ Q E W L U _ E C 4 o o * 1 1 # % % 8 S S G J F E Q I E F ~ ~ U ~ W ~ ( ! I D y U E U ^ Q J ~ I ",
"k.g.B.N.M.M.m.g.V.j.V.g.k.N.B.m.N.j.k.B.f.a.B.m.-.I = #       . . = t l G %.f.;.B.m.N.N.a.V.N.N.m.V.V.V.N.g.g.j.B.N.k.N.j.j.B.j.",
"~ E ' ' ( ( ~ E ' ~ ^ E ~ ( ^ ^ ^ E ~ ^ ~ _ a.( Q G p , * # . * , i z  .o.J / J ~ ~ ' ~ ~ ^ ^ ^ ] ^ ] ] a.W ~ ~ ' ^ ^ ( ~ ~ ^ ~ ",
"-.) _ I [ [ _ ) I ( [ _ _ ( U p.[ _ ! I _ Q a.-... .z z , , , p z $.0.#.X.&._ _ U ! [ _ _ _ I _ [ [ _ { _ ! _ _ ( U [ [ _ ! I _ ",
"N.m.m.a.N.m.m.N.g.m.M.M.m.m.j.N.m.m.N.g.j.j.V.k.s.<.@.v l l l  .#.w.e.r.x.k.k.N.j.k.m.N.m.m.f.N.k.m.N.>XD.a.N.m.m.g.N.m.m.N.f.m.",
"~ ~ ~ F ~ ~ ~ ( F ^ ~ ~ ^ ~ F ~ ~ ^ ~ F W _ a./ Q X.$.@.@.@.0.w.u.e.<.X.%./ ~ ^ J E ^ ~ ^ ~ F ~ ~ ^ ^ ] p.Q ' ~ ~ F ^ ~ ^ ^ F ^ ",
"[ U W _ _ _ E W ) _ [ _ I ! ( _ _ I ( _ ( Q [ [ &.*.X.@.q.q.u.i.u.e.<.*.&.( W Q ( _ _ [ Q W ) ( _ _ [ [ _ E [ I ! ) _ _ I ! _ _ ",
"N.j.m.m.m.M.f.k.N.m.m.N.a.m.N.m.m.a.N.N.f.j.>XB.N.h.,.<.0.w.u.i.u.r.b.M.k.M.j.f.N.m.j.N.j.j.N.m.m.>X>XB.>Xa.B.s.N.m.m.m.a.N.N.m.",
"~ F J E ~ ~ F J ~ ~ E ~ F E ~ ~ E F E ~ J W [ ~ J E .. .$.0.w.w.#.=.../ E ~ J F ^ ~ E ~ F J ~ ~ ~ ~ ~ ^ p.F F F J A Q Q F F Q F ",
"S.:.Q p.( j.a.! s.S.S.S..._ _ _ j.a.g.a.U Q j.j.j.! &...o. . . . .=.c.A.s.G.S.A.A.v.h.S.A.S.A.h.F.S.S.S.c.x.A.b.S.x.h.S.b.b.A.h.",
"p.I W a.a.} f.! F f.j.[ L ( [ } | f.} } ! a.f.f.d._ Q I y y l y y U ] d.d.f.f.a.d.d.p.f.} f.f.a.f.f.f.} p.p.f.d.d.a.s.f.f.d.f.k.",
"I D ! ! ! ( ( D Y Q _ D L ( ! ! ( Q E _ U U -.( _ Q D V 4 0 4 4 = e I W ! W ( I ( ( Q Q I _ ( Q ( ( I ( Q ! E Q ] ! W ( _ _ [ Q ",
"k.g.B.N.m.m.M.g.B.j.N.j.m.B.N.m.N.j.k.N.{ j.V.B.N.j.W I e 3 3 3 3 V W f.m.j.B.a.B.j.m.N.f.N.N.N.m.N.a.B.j.N.j.j.B.N.m.m.V.V.V.l.",
"E F ~ ~ ~ ^ J F ~ J ~ F J ~ ~ ~ ^ J E ~ E _ [ ~ ~ J A w 2 3 2 % % 2 6 V A ^ ~ A E ~ ~ E I ~ J ~ ~ E F ~ ~ ~ J J ~ ~ ~ ^ ~ ~ ^ ( ",
"a.a.a.U a.f.s.a.U a.f.a.a.;.Q f.a.a._ Q { ! j.a.) W ! C 2 % % + O % 2 7 I _ a.a.! _ f.f.a.a.E a.f.a.a.U { f.a.f.p.Q f.a.a.j.j.-.",
"j.f.m.a.m.f.f.m.a.m.f.f.f.j.f.m.| j.m.a.| j.B.f.| a.W C + O O O o o O + K W | m.f.f.f.f.f.m.a.m.f.f.m.f.f.m.f.f.f.a.m.| j.M.>XM.",
"~ ~ J A ~ J ~ ~ A ~ ~ ~ ~ E A E E ^ E A W ( [ ~ K A Z B + O O O + O O O 2 Z J ^ A Q ^ ~ ~ J A E E ~ ~ A ~ ~ ~ ~ E A ~ ~ ~ ~ ^ ( ",
"f.Q _ a.a.d.! _ a.p.f.a.U p.a.a.{ E _ a.{ ) f.f.a._ W K V 6 9 + + 9 9 6 e W Q W a.a.a.f.W _ a.{ a.! ) a.{ a.a.Q p.a.a.{ f.a.f.-.",
"M.f.m.m.m.k.f.m.M.f.m.m.a.m.m.m.m.g.M.N.{ a.B.B.N.j.{ ( T C K w e A C K K W { g.M.m.f.M.f.m.m.m.m.f.j.N.j.m.m.a.m.m.m.j.V.B.V.N."
};
