/* XPM */
static char *result[] = {
/* columns rows colors chars-per-pixel */
"64 64 225 2 ",
"   c #0D2C46",
".  c #0F2E48",
"X  c #112D47",
"o  c #112F49",
"O  c #14314B",
"+  c #1B344D",
"@  c #1B3651",
"#  c #1E3954",
"$  c #21364F",
"%  c #353E4D",
"&  c #233650",
"*  c #243B55",
"=  c #2B3C54",
"-  c #253E59",
";  c #2A3F59",
":  c #323E56",
">  c #343F58",
",  c #3B404D",
"<  c #2E4156",
"1  c #2D405A",
"2  c #344157",
"3  c #3A4356",
"4  c #34425C",
"5  c #3B445C",
"6  c #3F4859",
"7  c #3D4660",
"8  c #3E4861",
"9  c #48464F",
"0  c #444755",
"q  c #414956",
"w  c #4D4C56",
"e  c #42465C",
"r  c #44495B",
"t  c #4B4C5D",
"y  c #4A4753",
"u  c #5A4F52",
"i  c #514E5B",
"p  c #544C55",
"a  c #55515B",
"s  c #5C535C",
"d  c #5B5357",
"f  c #63565B",
"g  c #6C5A5B",
"h  c #68575A",
"j  c #735D5C",
"k  c #795F5D",
"l  c #7B5D54",
"z  c #7D625C",
"x  c #77605F",
"c  c #414761",
"v  c #444962",
"b  c #4C4B64",
"n  c #524D66",
"m  c #544E68",
"M  c #565164",
"N  c #5C5365",
"B  c #575069",
"V  c #5B526A",
"C  c #635665",
"Z  c #655963",
"A  c #6D5C63",
"S  c #63556C",
"D  c #68576D",
"F  c #67586C",
"G  c #6B596D",
"H  c #695766",
"J  c #765E64",
"K  c #735D6C",
"L  c #795F69",
"P  c #6E5A70",
"I  c #735D72",
"U  c #785F72",
"Y  c #7D6264",
"T  c #75606A",
"R  c #7C626C",
"E  c #756267",
"W  c #7C6174",
"Q  c #766071",
"!  c #6D6164",
"~  c #84635D",
"^  c #8C665D",
"/  c #8B665A",
"(  c #94695D",
")  c #9A6C5D",
"_  c #91715C",
"`  c #AA745C",
"'  c #B3765F",
"]  c #BB7B5E",
"[  c #B6795E",
"{  c #A06E59",
"}  c #836463",
"|  c #8C6763",
" . c #846A65",
".. c #8B6B65",
"X. c #85656C",
"o. c #8B676B",
"O. c #8D6A6D",
"+. c #866968",
"@. c #926A64",
"#. c #9B6D63",
"$. c #946B6C",
"%. c #9B6D6C",
"&. c #9E726D",
"*. c #997367",
"=. c #836474",
"-. c #896674",
";. c #8D6974",
":. c #866678",
">. c #896779",
",. c #8D697A",
"<. c #856870",
"1. c #946B75",
"2. c #9B6E73",
"3. c #926B79",
"4. c #977075",
"5. c #9D7173",
"6. c #9C757B",
"7. c #A16F62",
"8. c #A16F69",
"9. c #A47363",
"0. c #AB7464",
"q. c #AB7B63",
"w. c #A4726D",
"e. c #AB756C",
"r. c #AE7A6B",
"t. c #A27863",
"y. c #B27663",
"u. c #B47A64",
"i. c #BC7B63",
"p. c #B27669",
"a. c #B37C6B",
"s. c #B97C68",
"d. c #A27171",
"f. c #AD7B72",
"g. c #A37B7B",
"h. c #C57E5D",
"j. c #C97F5C",
"k. c #C27D61",
"l. c #BC865D",
"z. c #BB8364",
"x. c #B88367",
"c. c #A98171",
"v. c #B68775",
"b. c #AE8066",
"n. c #CD815B",
"m. c #C8855E",
"M. c #D1835A",
"N. c #D58B5D",
"B. c #DB8B5B",
"V. c #D68559",
"C. c #DC935F",
"Z. c #D6905F",
"A. c #E3925C",
"S. c #EC9A5D",
"D. c #E8975D",
"F. c #F19E5D",
"G. c #E08F5D",
"H. c #F4A15D",
"J. c #FAA65E",
"K. c #FFAA5D",
"L. c #C58263",
"P. c #CA8462",
"I. c #CC8A63",
"U. c #C5866A",
"Y. c #C48A69",
"T. c #D48D62",
"R. c #D98F63",
"E. c #D28760",
"W. c #C9916E",
"Q. c #D39163",
"!. c #DB9262",
"~. c #D4936B",
"^. c #DC956A",
"/. c #DE9C6E",
"(. c #DA9968",
"). c #CD9A78",
"_. c #D59875",
"`. c #C48B72",
"'. c #E19664",
"]. c #E49A64",
"[. c #EB9D63",
"{. c #E39C6C",
"}. c #E09D71",
"|. c #DDA377",
" X c #EFA366",
".X c #EDA36B",
"XX c #E4A06D",
"oX c #F3A465",
"OX c #FDAC63",
"+X c #F2A76A",
"@X c #F4AA6C",
"#X c #FAAE6B",
"$X c #F9A763",
"%X c #FEB26C",
"&X c #E8A675",
"*X c #F3AC72",
"=X c #F2AF79",
"-X c #FDB572",
";X c #FFB976",
":X c #FFBB7B",
">X c #F5B277",
",X c #B49589",
"<X c #C69885",
"1X c #C8A18D",
"2X c #D6A787",
"3X c #FEBE83",
"4X c #F3BA89",
"5X c #ECBC91",
"6X c #E9B288",
"7X c #FFC085",
"8X c #FBC38E",
"9X c #FFCA94",
"0X c #FFCE9C",
"qX c #FBC695",
"wX c #FFD09F",
"eX c #EDC39E",
"rX c #FECFA2",
"tX c #F6CEA8",
"yX c #FFD3A4",
"uX c #FFD6AB",
"iX c #FFD9AE",
"pX c #FFDBB2",
"aX c #FFDEB9",
"sX c #EEC9A8",
"dX c #FFE0BD",
/* pixels */
"qXyXyXyX,XN 1XtXpXuXwXwXiXwXuXaXaXyXyXqXyXyXiXiX0X4Xi.*.8X9XuXyXuXuXuXyX0X9X0XyX0XyXyXiXiXrX0X&Xy.).9X0XiXrXuXuXuX0X9X9XrX0X0XiX",
"0XaXdXyX2X,.sXiXiXwXyXiXuXuXiXiXaXuXyXpXaXpXpXpXpXyX~.).yXuXuXwXyXyXiXiXiXuX0X9XuXaXaXpXpXpXpX4Xk.5XuXiXyXyXyXiXiXiXuXuX0X0XaXpX",
"0XuXqX;X|.3.eXqX3X%X;X7X;X%X:X%X:X;X%X3X3X3X:X-X3XqX_./.3X%X%X%X:X7X-X%X%X-X7X7X7X;X-X3X;X;X8X4XI.4X-X#X%X-X3X;X%X#X-X:X7X7X0XuX",
"0X0X%XK.2XW 5X#XK.K.K.%X+XK.K.K.OX#XJ.K.K.K.K.K.K.-X^./.%XK.K.K.K.K.K.K.K.K.K.K.K.K.K.K.K.K.K.>XP.&X#X$XK.K.K.K.OXJ.K.K.K.K.-XyX",
"0X0X#XOX2X,.6X[.H.K.H.S.F.K.K.K.J.S.J.J.J.J.OXJ.oX3X~._.=XS.#X%XOX@X$X-X%XOX*X*X%X%X$XK.K.H.@X4Xf.2X$XH.K.J.oXF.OX@X$XH.F.J.;XyX",
"<X<XL.v.6.W e.q.i.i.i.0.' [ l.[ 0.w.' ' 0.0.U.i.u.f.;.1.9.0.q.u.9.0.u.x.x.u.w.p.U.U.L.k.L.] p.g.:.d.7.' q.' 9.y.i.s.s.s.p.i.`.1X",
"I >.,.;.,.Q F F F b b G C S N B N N n B B F J X.Q ;.=.K K K H F V G T G K G H F I I G K K R W -.R K K K H S F L =.:.:.3.3.,.,.=.",
",X,X1X<XXX/.N.C.z.S j I.m.m.N.q.m.m.*.*.q.Z.A.S.!.!.!.Z.!.!.w.=.0.(.T.T.P.z.N.x.x.q.z.Q.D.'.!.!.(.{.XXW.1.X.m.Z.N.N.x._.).<X<X,X",
"4X3X6X'.R.R.V.V.C.Z 9.B.V.V.M.P.M.V.V.V.B.B.A.V.V.V.V.V.V.B.Y.4.{.{.T.M.k.M.M.V.B.V.V.B.B.A.V.M.B.R.!..Xd.a.B.M.n.M.V.M.M.R.=X:X",
"+X#X{.j.M.j.M.M.B.A q.V.j.V.R.P.j.j.M.j.V.j.j.j.j.j.j.j.j.V.Y.4.}.M.M.M.E.V.M.M.M.j.V.j.j.V.R.j.j.M.M.&Xd.a.V.m.n.n.j.V.M.M.oXOX",
"+X#X}.j.M.j.n.n.N.E q.V.M.j.M.M.n.k.k.h.j.V.j.V.j.M.M.M.j.V.L.O.B.V.n.j.j.V.j.M.j.j.j.j.M.n.M.M.M.n.M.'.&.r.V.M.M.M.n.j.j.M.*XK.",
"+X&X/.'.V.M.k.s.I.E q.P.j.M.M.j.M.i.k.k.j.j.j.j.B.G.M.j.k.j.u.G P.k.j.M.j.j.h.u.j.j.j.V.j.n.n.M.M.n.u.~. .*.P.m.n.n.n.m.i.i.^.&X",
"X.T o.&.$.$.X.Q K n S K X.X.X.@.@.o.o.A f Z R R X.o.| o.U U C m C T o.L X.=.U W } H C L R R o.o.o.X.Q G B N A =.R R <.W =.:.K Q ",
"b P B m b v 1 4 ; - * - ; ; 4 - - - - - ; - - - 1 1 4 7 > > c 7 - 1 ; ; 5 5 4 - ; * # * 1 1 < 1 7 4 4 5 e < 1 1 4 5 v v n N M G ",
"v.2X2X).z.u.#.^ ) ( } ( ) | s ; i ~ j g | / ~ ) #.#.} } ( | ` ~ ^ { ( } S N z k g k ) ~ ^ ) #.| } | ^ ) ` ` l.m.l. .V x.Q.N.~.|.",
";X%X*X!.B.V.i.2.2.&.d.1.2.w.o.4 L d.2.2.5.d.5.1.;.3.3.2.2.2.e.2.2.d.d.e.C b %.d.2.2.2.d.2.3.3.3.3.5.2.d.f.f.c.r.v.(.A Q.S.C.#X%X",
"@XOXA.[ j.j.e.;.,.,.W :.,.,.| 3 o.3.,.,.,.,.,.,.>.>.>.>.>.3.,.,.>.,.>.d.h i 2.>.,.,.,.,.,.,.,.,.,.,.>.:.U U W ,.1.T.G P.V.n.[.K.",
"oXOX(.[ j.V.i.,.,.,.:.3.,.3.+.< | ,.,.,.,.,.,.,.=.X.X.-.3.>.,.,.-.>.,.2.f w 2.,.,.3.>.,.;.:.:.-.<.=.=.K D U ,.,.d.T.K I.V.M. X%X",
"*XOXD.M.j.j.p.3.,.,.,.3.,.3.#.= #.3.3.,.,.,.,.3.2.1.;.3.,.,.,.,.1.>.>.2.p y 8.,.>.,.,.,.2.$.-.1.;.1.;.3.,.,.:.,.w.!.A i.n.n. X#X",
"&X%X!.i.w.8.-.I S P P Q W U z 4 Z G I D P I P S I P S I U I P D D P S J 9 % L G S D P I D P L S D U U P I P V D R a.R Z.D.[.@X%X",
"! Y } R K V 7 - - > ; 4 ; 7 v 4 @ > = = * & $ + = + $ $ = $ $ $ $ & = & + X $ & & $ $ $ + $ $ $ & & & & & = ; > n M b } .. . . .",
"E  ...@.} C 5 r d d i 3 e g N b 4 : & + = 5 > > > = + X + : > 4 & $ : > > > & & + + > > > 4 > > + + % 9 y y i d g z ^ ^ .... . .",
"*X;X#X].O.H #.%.d.d.p.$.#.#.P P I G P G I U G I U G & > G K P I G V I G D I I P D P U =.:.W W Q ; / 0.2.2.1.2.k.Z.S.A.A.S.H.-X-X",
"@XOX.Xn.o.D %.,.,.,.,.,.I m m m m m m V m m m n n S : > V b m m v n m m m n n m m n m m B m V T = ) 1.,.3.1.3.1.u.M.j.m.M.N.@XJ.",
"@XOX@Xm.o.S 8.,.3.1.-.,.W m m m m m m S m m m n b S = > S m m v 5 m b m m m m m m m m m m m V R & ( 3.,.3.r.3.,.w.m.V.M.j.B.#X$X",
"@XK.@Xn.o.S 8.;.,.,.,.,.:.S b m m m n B m m m m m D : 5 S m m m m m n n b m m m m V m m m m V G & ) 3.,.,.,.,.,.1.i.V.j.j.B.#XOX",
" X X.XP.$.N Y S I U I D I D m v v 4 v 5 c v b 7 4 n & : 7 1 c c 7 > c b v v 7 7 c 7 c c 7 7 7 v = g I D U W :.1.w.P.N.C.A.].+XoX",
"<.4.5.R K m 4 1 7 7 > ; 4 4 ; O o o o + O + O + o + o   O O + O o o O @ @ O . . + O O o O o o @ @ ; ; 7 7 7 8 e t H R R o.4.4.1.",
"<.6...+.&.O.a w b 4 & r w a e + & & o o + $ = > : : 4 > 2 > + + + : > > * @ = + X o $ : : 2 > 5 y w w a 4 # 0 w d g Y Y } $.O.5.",
"-X-X+XN.Z.C.i.] #.v M p.e.w.<.G I D n m V K U I n v S S I U b $ n I D D S B I V n V D U W =.U -.#.#.9.m.f i h.u.m.A.C.B.S. X-X-X",
"3XOXH.M.M.M.n.h.w.v g 3.>.;.,.W m m N m m m m m B e c m m N n & V m m m m b e b B B m N m m b m V m B ` s g k.h.h.M.M.h.M.N.$XJ.",
"3XK.+Xn.n.n.n.M.' 4 j 5.;.,.,.F m m B m m m n m n m v b m m n & S m m v b m c c m m m m n m b b m m n #.s k p.p.i.m.M.n.M.Z.*X%X",
";XK. Xn.n.n.M.M.y.= g 2.,.3.:.S m m m m m m m m m m m n m m n & S m m m m n b n n b m m P m m n m m V w.a g e.d.4.e.h.j.j.E.OXOX",
"3X$XXXM.j.h.9.| } : f L U :.U D c b b c c b v c v b b b 7 7 e + b 7 b b b b c b v 7 v v b b c v m D P o.t i O.O.;.e.d.m.B.!.+X@X",
"c.f.q.t.@.K b v > 7 : ; 7 7 > - @ + + o o @ @ o + @ @ @ O O + o X X + o @ & @ @ @   o + @ @ @ O 1 5 7 7 * - 7 b M J } ( q.q.a.f.",
"Q O.H J A N i b r t 4 3 3 4 > X X o X X + + + = & $ + @ & & = @ $ $ $ + + X @ X o + & & X o X = 4 < 4 6 6 6 6 0 r 5 b N A ! E ;.",
"&X-X+XD.B.M.i.7.y.0.#.8.0.7.f + e P V m I P D P G D S V I S U D D P I S * + V D m S U I D S D :.w.) y.0.u.[ [ ] m.c.N ~.H.S.@X>X",
"*XOXD.M.j.j.e.3.3.1.1.3.;.=.g X v S V B B V B m m m m m B B V B m m n D > & V V m m m S S V V =.$.<.3.,.3.o.-.3.d.~.A Q.B.M.oXOX",
"@X$XT.m.j.V.i.,.>.,.,.3.>.3.~ X V m n n m m n b c n m m m m m n c n b m > = S n b m m m n n m =.5.w.:.,.;.-.-.>.4.Q.K Q.V.M.(.K.",
"H.OXT.h.j.j.i.%.o.,.,.,.>.3.| + V V m m m m m n c v m m m v n n v n m S > > S m m m n m n b m P ,.4.d.,.,.1.>.,.w.Z.T Q.V.M./.#X",
"oXOXQ.n.j.h.h.y.;.,.>.>.:.>.( + N m n b n m m b m b b n b v n n n b v S e : S n b n b n m m n P :.,.5.,.,.>.U :.5.I.T ).~.j.].OX",
"W.(.Q.Q.P.0.#.N b V n m m n d + = = ; = * > ; - > = * ; > * * * * * - = & + = ; ; * * ; = > ; ; b V V m S m n m K *.C u.L.Y.x.~.",
"e t a M M 3 2 # * - * * - 4 7 &       o X X o o o o o o   o o X o o o o + o   .   o o . X X X X * 4 7 > ; ; ; ; v v v N N C S n ",
") E g _ f 4 a j ^ ^ ~ s h ( ^ Z n e e > b M n m S n & & 5 n S N v > n S V V v b > e m V m J / p v C ~ #.( @.A j ( ^ #.) ~ } g ~ ",
"[.#X'.A...6 *.w.d.d.d.2.d.o.D S P S D D G P S S D D = > D S S D S V S V V D S B B S P S V } 8.| M @.w.%.d.d.2.2.d.3.5.M.B.B..X#X",
"+XOX{.j.Y 5 $.,.>.,.,.,.2.P n m m m m n m m m m n S > > V b n m m m n b b m m c 5 b m n m v S | 6 o.>.:.,.,.,.>.1.:.2.i.n.M..XK.",
"oXOXA.n.E 2 $.3.,.1.>.,.>.U m m m m m m m m m m m S > > D m b c n m n m m m m m m m m n m n m V @ } 1.,.;.:.,.,.3.,.2.j.n.M. XK.",
"oXS.N.n.+.4 #.:.>.,.,.>.>.I m m m n m m m m m b n D : 4 V b m 7 c n m n b m m m n m m m m n m S + N P >.3.>.>.>.,.:.-.i.n.M.B.F.",
"P.Z.!.m.} 4 M M V P V B B B V 8 > * > ; 4 4 5 > - e + & = ; 4 2 - - > 4 5 > ; ; 4 ; 2 4 2 ; 4 4 X = = b S N m V U I =.9.u.m.N.T.",
"b Z T M m # - # 1 - - 1 1 - 1 O       . .   o X o o o   X X O o X o o o o       o o o   O o X O o o o o + & - ; 7 7 5 r C K J F ",
"..E G  .u.z k ~ s # 4 g k z x 0 v e + * = v n n n n m b n n * + * n m n c > n = + = 2 n n n b B g j k u & ; J ~ J k d j #.+.q.t.",
"OX Xm.j.V.w.2.w.9.4 Z e.5.4.1.K D S V S S P I D D S V N S I n $ V G V S V V D S B S F I G S V V H K %.0.0 a e.$.-.1.1.p.B.A.[.OX",
"+X$XN.M.n.w.,.>.%.6 J 3.,.:.=.P m m m b 7 b b c m V B m m V n $ V n m n v b m B b b m n m m m m n n P 2.p h 1.:.,.,.,.3.i.M.G.K.",
"@X$XV.M.M.d.3.,.%.6 j 2.,.,.>.P m m m b b m v b m S B n m V n & D m m n n m m m n n m m m m B m n n I 2.i h 2.,.:.,.,.;.] M.A.K.",
"*X$Xn.n.m.1.>.:.%.6 j 3.,.,.,.U m m m m m m n n m n m n b m m & S n m V m m m m c n B V m m m m m V U $.s J 2.,.;.,.,.1.[ M.R.OX",
"U.+X!.B.i.1.I N f 2 i N P P I B > 7 7 ; ; 7 7 > 7 7 7 7 ; ; > O > = c b c 7 4 c > ; 5 v > 4 7 b v > ; 6 : 0 C D G I =.#.n.B.D.[.",
"S R } E a e 7 > - @ # - ; - - & o o         o o o o o o . . O o   . o o + + o o o .   o o o o o O O o o O o @ * ; 5 r a g E +.o.",
"t.X.N f f i a h g f i g h s 4 @ = y , , p 0 = ; > > > > 4 7 > > > > r 5 4 ; 5 > ; > 7 4 7 7 5 > 5 4 > 3 u 9 u f i 3 ; 4 M a C o.",
"P.m.w.w.5.2.w.w.r.0.e.d.e.a.} - Y u.w.%.0.%.W U U =.:.=.,.:.=.U =.=.1.$.b 5 <.=.U =.>.=.U =.U I >.:.U %.e.e.d.d.p.| 2 f 0.w.r.n.",
"' n.3.,.:.,.,.,.,.,.,.>.,.3.| < $.3.,.,.>.,.,.,.1.>.,.3.>.>.,.3.,.,.,.2.f b 2.,.,.,.,.,.,.=.;.>.,.,.,.,.,.,.,.>.3.%.5 E 3.,.e.M.",
"' N.4.>.X.U >.,.,.,.,.;.,.3.+.= #.1.,.o.-.,.,.3.3.,.,.1.$.-.,.,.1.e.2.1.s a 2.,.3.,.,.,.,.>.>.=.=.>.1.O.=.=.:.:.,.O.3 } 3.:.e.N.",
"v.Q.6.,.1.>.:.,.,.,.,.,.,.3.@.4 @.1.,.1.3.,.3.d.1.,.,.,.,.,.,.,.1.5.,.f.g a d.3.2.,.,.,.3.,.U N L ,.3.2.,.:.,.,.,.t.r ..4.,.f.M.",
"c._.v.r.s.f.f.e.r.e.%.e.5.r.) 2 ` w.1.;.;.3.2.&.d.$.-.%.d.d.4.r.1.3.4.U.x d x.1.1.<.;.d.%.%.$.o.%.d.3.:.$.$.<.<.;.z.6 ^ 1.5.s.P.",
"x.{.].oXoX!.~.E.M.!.P.!.Q.!.q.r v.T.n.m.k.k.h.n.V.j.h.B.M.k.k.n.s.k.M.C.! r m.n.y.y.P.M.i.i.k.n.h.M.k.[ h.h.] h.n.] 4 j n.M.M.B."
};
