/* XPM */
static char *d1f5f3c67e014334a2f67f5982608922qu9cUlwSQ5F9nT7Y[] = {
/* columns rows colors chars-per-pixel */
"64 64 7 1 ",
"  c #0C2006",
". c #403520",
"X c #245C12",
"o c #294022",
"O c #D24EE1",
"+ c #A885D9",
"@ c white",
/* pixels */
"ooooooooXXXXXXXXXXXXXXXXXXXXXXXXXXXXXX..XXXXXX        XX        ",
"ooooooooXXXXXXXXXXXXXXXXXXXXXXXXXXXXXX..XXXXXX        XX        ",
"        OOOO  XXooXXXXXXXXooXXXXXXXXXX....XXXX        XXoo      ",
"        OOOO  XXooXXXXXXXXooXXXXXXXXXX....XXXX        XXoo      ",
"  oo    OO@@OOOOXXXXXXXXXXXXXXXXXXXXXXXX..XXXX        XX    oo  ",
"  oo    OO@@OOOOXXXXXXXXXXXXXXXXXXXXXXXX..XXXX        XX    oo  ",
"XXooooOOOOOOOO    XXXXXXXXXXXXXXXXXXXXXXXXXXXX    ..  XX        ",
"XXooooOOOOOOOO    XXXXXXXXXXXXXXXXXXXXXXXXXXXX    ..  XX        ",
"XXXXoo    OO      XXXXXXXX++++XXXX      ooXXXXXXXX....XXXX      ",
"XXXXoo    OO      XXXXXXXX++++XXXX      ooXXXXXXXX....XXXX      ",
"XXXXXXXXXX    oo  XXXXXX++++++++++++      XXXXXXXX..XXXX++XXXXXX",
"XXXXXXXXXX    oo  XXXXXX++++++++++++      XXXXXXXX..XXXX++XXXXXX",
"XXXXXXXXXX        XXXXXX++++@@@@++++  ooooXXXXXXXXXXXX++++++  oo",
"XXXXXXXXXX        XXXXXX++++@@@@++++  ooooXXXXXXXXXXXX++++++  oo",
"    oo  XXXXXXXXXXXXXXXX++++++@@++XX    ooXXXXXXXXXX++++@@++++  ",
"    oo  XXXXXXXXXXXXXXXX++++++@@++XX    ooXXXXXXXXXX++++@@++++  ",
"    ..ooXXXXXXXXXXXXXXXXXX++++++++XXXXXXXXXXXXXXXXXX++++++++    ",
"    ..ooXXXXXXXXXXXXXXXXXX++++++++XXXXXXXXXXXXXXXXXX++++++++    ",
"    ....XXXXXXXXXXXXooXXXXXXXXXXXXXXXXXXXXXXXXXXXXXXXX++XX  oo  ",
"    ....XXXXXXXXXXXXooXXXXXXXXXXXXXXXXXXXXXXXXXXXXXXXX++XX  oo  ",
"  ....  XXXXXXXXXXXXXX        XXXXXXXXXXXXXXXXXXXXXXXXXXXXXXXXXX",
"  ....  XXXXXXXXXXXXXX        XXXXXXXXXXXXXXXXXXXXXXXXXXXXXXXXXX",
"XXXXXXXXXXXXXXXXXXXXXX        XXXXXXXXooXXXXXXXXXXXX  XX    XXXX",
"XXXXXXXXXXXXXXXXXXXXXX        XXXXXXXXooXXXXXXXXXXXX  XX    XXXX",
"XXXXXX    oo  XXXXXXXX        XXXXXXXXXXXXXXXXXXXXXX        XXXX",
"XXXXXX    oo  XXXXXXXX        XXXXXXXXXXXXXXXXXXXXXX        XXXX",
"XXXXXX    ooooXXXXXXXX        XXXXXXXXXXXXXXXXXXooXXoo      XXXX",
"XXXXXX    ooooXXXXXXXX        XXXXXXXXXXXXXXXXXXooXXoo      XXXX",
"ooXXXX      ooXXXXXXXXXXXXXXXXXXXXXXXX++XXXXXXXXoooooo      XXXX",
"ooXXXX      ooXXXXXXXXXXXXXXXXXXXXXXXX++XXXXXXXXoooooo      XXXX",
"XXXXXX      ++XXXXXXXXXXXXXXXXXXXXXX++++XXXXXXXXXXXXXXXXXXXXXXXX",
"XXXXXX      ++XXXXXXXXXXXXXXXXXXXXXX++++XXXXXXXXXXXXXXXXXXXXXXXX",
"XXXXXXXXXX++++++XXXXXXXXXXXXXXXXXX  ++@@++XXXXXXXXXXXXXXXXXXXXXX",
"XXXXXXXXXX++++++XXXXXXXXXXXXXXXXXX  ++@@++XXXXXXXXXXXXXXXXXXXXXX",
"XXoooooo++++@@++++XXXXooXXXXXXXXXX++++@@++++XXXXXXXXXXXXXX..XXXX",
"XXoooooo++++@@++++XXXXooXXXXXXXXXX++++@@++++XXXXXXXXXXXXXX..XXXX",
"XXoooooo++++++++XX    ooooXXXXXXXXXX++++++XXXXXXooXXXXXX  ....  ",
"XXoooooo++++++++XX    ooooXXXXXXXXXX++++++XXXXXXooXXXXXX  ....  ",
"XXoooooooo++++XXXX      ooXXXXXXXX      ++XXXXXXXXXXXXXX  ..    ",
"XXoooooooo++++XXXX      ooXXXXXXXX      ++XXXXXXXXXXXXXX  ..    ",
"XXooooooooXXXXXXXX    ..  XXXXXXXXXXXXXXXXXXooXXXXXXXXXX      oo",
"XXooooooooXXXXXXXX    ..  XXXXXXXXXXXXXXXXXXooXXXXXXXXXX      oo",
"XXXXXXXXXXXXXXXXXX    ....    XXXXXXXXXXXXXXXXXXXXXXXXXX        ",
"XXXXXXXXXXXXXXXXXX    ....    XXXXXXXXXXXXXXXXXXXXXXXXXX        ",
"XXXXXXXXXXXXXXXXXXXX....      XX        XXXXXXXX        XX    oo",
"XXXXXXXXXXXXXXXXXXXX....      XX        XXXXXXXX        XX    oo",
"XXXX        XXXXXXXXXX        XX                      XXXX      ",
"XXXX        XXXXXXXXXX        XX                      XXXX      ",
"XXXXoo      XXXXXXXXXX    oo  XX          oo      oo  ++XX      ",
"XXXXoo      XXXXXXXXXX    oo  XX          oo      oo  ++XX      ",
"XXXXoooooo  XXXXXXXXXXXXXXXXXXXX          oo          ++++++    ",
"XXXXoooooo  XXXXXXXXXXXXXXXXXXXX          oo          ++++++    ",
"XXXX        XXOOXXXXXXXXXXXXooXXXXXXXXXX        XXXXXX++@@++++XX",
"XXXX        XXOOXXXXXXXXXXXXooXXXXXXXXXX        XXXXXX++@@++++XX",
"XX....XXXXXXOO@@OOXXXXXXXXXXXXXXXXOOOOXXXXXXXXXXXXXX++++@@@@++XX",
"XX....XXXXXXOO@@OOXXXXXXXXXXXXXXXXOOOOXXXXXXXXXXXXXX++++@@@@++XX",
"XXXX..XXXXOOOOOOOOOOXXXXXX      OO@@OOOO  XXXXXXXX++++++++++XXXX",
"XXXX..XXXXOOOOOOOOOOXXXXXX      OO@@OOOO  XXXXXXXX++++++++++XXXX",
"XXXX..XXXX    OO  XXXXXXXX    OOOOOOOOOO  XXXXXXXX  oo  ++XX    ",
"XXXX..XXXX    OO  XXXXXXXX    OOOOOOOOOO  XXXXXXXX  oo  ++XX    ",
"XXXXXXXXXX    oo  XXXXXXXX        OO      XXXXXXXX              ",
"XXXXXXXXXX    oo  XXXXXXXX        OO      XXXXXXXX              ",
"XXXXXXXXXX        XXXXXXXX      oo    oo  XXXXXXXXXXXXXX    oo  ",
"XXXXXXXXXX        XXXXXXXX      oo    oo  XXXXXXXXXXXXXX    oo  "
};
