/* XPM */
static char *_acec420a00e488ddd71a5e549167834hmYqpWqphHz7MFqM[] = {
/* columns rows colors chars-per-pixel */
"64 64 7 1 ",
"  c black",
". c #202020",
"X c #514F4F",
"o c #E7930C",
"O c #E5B80D",
"+ c #B2FF9A",
"@ c white",
/* pixels */
"++++++++++++++++++++++++++++++++++++++++++++++++++++++++++++++++",
"++++++++++++++++++++++++++++++++++++++++++++++++++++++++++++++++",
"++++++++++++++++++++++++++++++++++++++++++++++++++++++++++++++++",
"++++++++++++++++++++++++++++++++++++++++++++++++++++++++++++++++",
"++++++++++++++++++++++++++++++++++++++++++++++++++++++++++++++++",
"++++++++++++++++++++++++++++++++++++++++++++++++++++++++++++++++",
"++++++++++++++++++++++++++++++++++++++++++++++++++++++++++++++++",
"++++++++++++++++++++++++++++++++++++++++++++++++++++++++++++++++",
"++++++++++++++++++++++++++++++++++++++++++++++++++++++++++++++++",
"++++++++++++++++++++++++++++++++++++++++++++++++++++++++++++++++",
"++++++++++++++++++++++++++++++++++++++++++++++++++++++++++++++++",
"++++++++++++++++++++++++++++++++++++++++++++++++++++++++++++++++",
"++++++++++++          ++++++++++++++++++++++++++++++++++++++++++",
"++++++++++++          ++++++++++++++++++++++++++++++++++++++++++",
"++++++++++++  OOOOOO        ++++++++++++++++++++                ",
"++++++++++++  OOOOOO        ++++++++++++++++++++                ",
"++++++++++++  ooooooOOOOOO    ++++++++++++++      OOOOOOOOoo    ",
"++++++++++++  ooooooOOOOOO    ++++++++++++++      OOOOOOOOoo    ",
"++++++++++++    ooooOOOOOOOOOO    ++++++      OOOOOOOOOOoooo  ++",
"++++++++++++    ooooOOOOOOOOOO    ++++++      OOOOOOOOOOoooo  ++",
"++++++++++++++    ooooOOOOOOOOOO    ++    OOOOOOOOOOoooooo    ++",
"++++++++++++++    ooooOOOOOOOOOO    ++    OOOOOOOOOOoooooo    ++",
"++++++++++++++++    ooooOOOOOOOOOO      OOOOOOOOOOoooo    ++++++",
"++++++++++++++++    ooooOOOOOOOOOO      OOOOOOOOOOoooo    ++++++",
"++++++++++++++++++    ooooOOOOOO    OOOOOOOOOOOOoooo    ++++++++",
"++++++++++++++++++    ooooOOOOOO    OOOOOOOOOOOOoooo    ++++++++",
"++++++++++++++++++++    ooOOOO    OOOOOOOOOOOOoooo    ++++++++++",
"++++++++++++++++++++    ooOOOO    OOOOOOOOOOOOoooo    ++++++++++",
"++++++++++++        ++  oo      OOOOOOooooOOoooo    ++++++++++++",
"++++++++++++        ++  oo      OOOOOOooooOOoooo    ++++++++++++",
"++++++++++    oooo          OOOOOOOOOOOOOOoooo  ++++++++++++++++",
"++++++++++    oooo          OOOOOOOOOOOOOOoooo  ++++++++++++++++",
"++++++++    OOOOOOOO    OOOOOOOOOOOOOOOOOOoo                  ++",
"++++++++    OOOOOOOO    OOOOOOOOOOOOOOOOOOoo                  ++",
"++++++    OOOOOO  @@  OOOOOOOOOOOOOOOOOOOOOOOOOOOOOOOOOOXX..    ",
"++++++    OOOOOO  @@  OOOOOOOOOOOOOOOOOOOOOOOOOOOOOOOOOOXX..    ",
"++        OOOOOO    OOOOOOOOOOooooooOOOOOOOOOOOOOOOOOOXX....  ++",
"++        OOOOOO    OOOOOOOOOOooooooOOOOOOOOOOOOOOOOOOXX....  ++",
"    ooOO    OOOOOOOOOOOOOOOOOOOOOOOOOOOOooooOOOOOOOOXXXX..    ++",
"    ooOO    OOOOOOOOOOOOOOOOOOOOOOOOOOOOooooOOOOOOOOXXXX..    ++",
"  ooOOOOOO  OOOOOOOOooOOOOOOooooooOOOOOOOOOOOOOOOOXXXX      ++++",
"  ooOOOOOO  OOOOOOOOooOOOOOOooooooOOOOOOOOOOOOOOOOXXXX      ++++",
"      oooooo  OOOOOOOOOOOOOOOOOOOOOOOOOOOOOOOOoooo      ++++++++",
"      oooooo  OOOOOOOOOOOOOOOOOOOOOOOOOOOOOOOOoooo      ++++++++",
"++++            ooooooOOOOOOOOOOOOOOOOOOOOOOoooo    ++++++++++++",
"++++            ooooooOOOOOOOOOOOOOOOOOOOOOOoooo    ++++++++++++",
"++++++++++++++      ooooooooooOOOOOOOOoooooooo  ++++++++++++++++",
"++++++++++++++      ooooooooooOOOOOOOOoooooooo  ++++++++++++++++",
"++++++++++++++++++          oooooooooooo      ++++++++++++++++++",
"++++++++++++++++++          oooooooooooo      ++++++++++++++++++",
"++++++++++++++++++++++++++              ++++++++++++++++++++++++",
"++++++++++++++++++++++++++              ++++++++++++++++++++++++",
"++++++++++++++++++++++++++++++++++++++++++++++++++++++++++++++++",
"++++++++++++++++++++++++++++++++++++++++++++++++++++++++++++++++",
"++++++++++++++++++++++++++++++++++++++++++++++++++++++++++++++++",
"++++++++++++++++++++++++++++++++++++++++++++++++++++++++++++++++",
"++++++++++++++++++++++++++++++++++++++++++++++++++++++++++++++++",
"++++++++++++++++++++++++++++++++++++++++++++++++++++++++++++++++",
"++++++++++++++++++++++++++++++++++++++++++++++++++++++++++++++++",
"++++++++++++++++++++++++++++++++++++++++++++++++++++++++++++++++",
"++++++++++++++++++++++++++++++++++++++++++++++++++++++++++++++++",
"++++++++++++++++++++++++++++++++++++++++++++++++++++++++++++++++",
"++++++++++++++++++++++++++++++++++++++++++++++++++++++++++++++++",
"++++++++++++++++++++++++++++++++++++++++++++++++++++++++++++++++"
};
