/* XPM */
static char *a01bbf9ce944401ed213dc5be711b28fFyypzPc5H0fWTS61[] = {
/* columns rows colors chars-per-pixel */
"64 64 11 1 ",
"  c black",
". c #F93737",
"X c #54F937",
"o c #F99537",
"O c #F9D137",
"+ c #1F5BBD",
"@ c #8A1FBD",
"# c #37CFF9",
"$ c #B2FF9A",
"% c #FFFBFB",
"& c white",
/* pixels */
"$$$$$$$$$$$$$$$$$$$$$$$$$$$$$$$$$$$$$$$$$$$$$$$$$$$$$$$$$$$$$$$$",
"$$$$$$$$$$$$$$$$$$$$$$$$$$$$$$$$$$$$$$$$$$$$$$$$$$$$$$$$$$$$$$$$",
"$$$$$$$$$$$$$$$$$$$$$$$$$$$$$$$$$$$$$$$$$$$$$$$$$$$$$$$$$$$$$$$$",
"$$$$$$$$$$$$$$$$$$$$$$$$$$$$$$$$$$$$$$$$$$$$$$$$$$$$$$$$$$$$$$$$",
"$$$$$$$$$$$$$$$$$$$$$$$$$$$$$$$$$$$$$$$$$$$$$$$$$$$$$$$$$$$$$$$$",
"$$$$$$$$$$$$$$$$$$$$$$$$$$$$$$$$$$$$$$$$$$$$$$$$$$$$$$$$$$$$$$$$",
"$$$$$$$$$$$$$$$$$$$$                          $$$$$$$$$$$$$$$$$$",
"$$$$$$$$$$$$$$$$$$$$                          $$$$$$$$$$$$$$$$$$",
"$$$$$$$$$$$$$$$$      ......................      $$$$$$$$$$$$$$",
"$$$$$$$$$$$$$$$$      ......................      $$$$$$$$$$$$$$",
"$$$$$$$$$$$$$$    ....oooooooooooooooooooooo..          $$$$$$$$",
"$$$$$$$$$$$$$$    ....oooooooooooooooooooooo..          $$$$$$$$",
"$$$$$$$$$$$$    ..oooooooooooooooooooooooooo..........  $$$$$$$$",
"$$$$$$$$$$$$    ..oooooooooooooooooooooooooo..........  $$$$$$$$",
"$$$$$$$$$$    ..ooooooOOOOOOOOOOOOOOOOOOOOoooooooooo..  $$$$$$$$",
"$$$$$$$$$$    ..ooooooOOOOOOOOOOOOOOOOOOOOoooooooooo..  $$$$$$$$",
"$$$$$$$$$$  ....ooooOOOOOOXXXXXXOOOOOOOOOOOOOOoooooo..  $$$$$$$$",
"$$$$$$$$$$  ....ooooOOOOOOXXXXXXOOOOOOOOOOOOOOoooooo..  $$$$$$$$",
"$$$$$$$$    ..ooooOOOOOOXXXXXXXXXXXXXXXXXXOOOOOOoooo..    $$$$$$",
"$$$$$$$$    ..ooooOOOOOOXXXXXXXXXXXXXXXXXXOOOOOOoooo..    $$$$$$",
"$$$$$$$$  ....ooooOOOOXXXX##############XXXXOOOOOOoooo..  $$$$$$",
"$$$$$$$$  ....ooooOOOOXXXX##############XXXXOOOOOOoooo..  $$$$$$",
"$$$$$$    ..ooooOOOOXXXX##################XXXXOOOOoooo..  $$$$$$",
"$$$$$$    ..ooooOOOOXXXX##################XXXXOOOOoooo..  $$$$$$",
"$$$$$$    ..ooOOOOOOXX####++++++++++++####XXXXXXOOOOoo..  $$$$$$",
"$$$$$$    ..ooOOOOOOXX####++++++++++++####XXXXXXOOOOoo..  $$$$$$",
"$$$$$$    ..ooOOOOXXXX##++++@@@@@@@@++++####XXXXOOOOoo..    $$$$",
"$$$$$$    ..ooOOOOXXXX##++++@@@@@@@@++++####XXXXOOOOoo..    $$$$",
"$$$$$$    ooooOOXXXX####++@@@@@@@@@@@@++####XXXXOOOOoo....  $$$$",
"$$$$$$    ooooOOXXXX####++@@@@@@@@@@@@++####XXXXOOOOoo....  $$$$",
"$$$$$$  ..ooooOOXXXX##++++@@        @@++++####XXOOOOoooo..  $$$$",
"$$$$$$  ..ooooOOXXXX##++++@@        @@++++####XXOOOOoooo..  $$$$",
"$$$$    ..ooooOOXX####++@@@@  $$$$  @@@@++####XXOOOOoooo..  $$$$",
"$$$$    ..ooooOOXX####++@@@@  $$$$  @@@@++####XXOOOOoooo..  $$$$",
"$$$$    ..ooooOOXX##++++@@    $$$$    @@++####XXXXOOoooo..  $$$$",
"$$$$    ..ooooOOXX##++++@@    $$$$    @@++####XXXXOOoooo..  $$$$",
"$$$$    ..ooOOOOXX##++@@@@  $$$$$$$$  @@++++####XXOOoooo..  $$$$",
"$$$$    ..ooOOOOXX##++@@@@  $$$$$$$$  @@++++####XXOOoooo..  $$$$",
"$$$$  ....ooOOOOXX##++@@    $$$$$$$$  @@@@++####XXOOoooo..  $$$$",
"$$$$  ....ooOOOOXX##++@@    $$$$$$$$  @@@@++####XXOOoooo..  $$$$",
"$$$$  ..oo&&&&OOXX##++@@  $$$$$$$$$$    %%&&%%%%%%OOoo%%%%    $$",
"$$$$  ..oo&&&&OOXX##++@@  $$$$$$$$$$    %%&&%%%%%%OOoo%%%%    $$",
"$$$$  ..&&&&&&&&%%%%%%%%  $$$$$$$$      %%%%%%%%%%%%%%%%%%%%    ",
"$$$$  ..&&&&&&&&%%%%%%%%  $$$$$$$$      %%%%%%%%%%%%%%%%%%%%    ",
"      &&&&%%%%&&%%%%%%%%    $$$$$$  %%%%%%%%%%%%%%%%%%%%%%%%%%  ",
"      &&&&%%%%&&%%%%%%%%    $$$$$$  %%%%%%%%%%%%%%%%%%%%%%%%%%  ",
"  &&&&&&%%%%%%%%%%%%%%%%%%  $$$$    %%%%%%%%%%%%%%%%%%%%%%%%%%  ",
"  &&&&&&%%%%%%%%%%%%%%%%%%  $$$$    %%%%%%%%%%%%%%%%%%%%%%%%%%  ",
"  &&%%%%%%%%%%%%%%%%%%%%%%  $$$$    %%%%%%%%%%%%%%%%%%%%%%%%%%  ",
"  &&%%%%%%%%%%%%%%%%%%%%%%  $$$$    %%%%%%%%%%%%%%%%%%%%%%%%%%  ",
"  &&%%%%%%%%%%%%%%%%%%%%    $$$$$$  %%%%%%%%%%%%%%%%%%%%%%%%    ",
"  &&%%%%%%%%%%%%%%%%%%%%    $$$$$$  %%%%%%%%%%%%%%%%%%%%%%%%    ",
"    %%%%%%%%%%%%          $$$$$$$$        %%%%%%%%%%%%%%%%%%  $$",
"    %%%%%%%%%%%%          $$$$$$$$        %%%%%%%%%%%%%%%%%%  $$",
"$$                $$$$$$$$$$$$$$$$$$$$$$    %%%%%%%%%%%%      $$",
"$$                $$$$$$$$$$$$$$$$$$$$$$    %%%%%%%%%%%%      $$",
"$$$$$$$$$$$$$$$$$$$$$$$$$$$$$$$$$$$$$$$$$$                $$$$$$",
"$$$$$$$$$$$$$$$$$$$$$$$$$$$$$$$$$$$$$$$$$$                $$$$$$",
"$$$$$$$$$$$$$$$$$$$$$$$$$$$$$$$$$$$$$$$$$$$$$$$$$$$$$$$$$$$$$$$$",
"$$$$$$$$$$$$$$$$$$$$$$$$$$$$$$$$$$$$$$$$$$$$$$$$$$$$$$$$$$$$$$$$",
"$$$$$$$$$$$$$$$$$$$$$$$$$$$$$$$$$$$$$$$$$$$$$$$$$$$$$$$$$$$$$$$$",
"$$$$$$$$$$$$$$$$$$$$$$$$$$$$$$$$$$$$$$$$$$$$$$$$$$$$$$$$$$$$$$$$",
"$$$$$$$$$$$$$$$$$$$$$$$$$$$$$$$$$$$$$$$$$$$$$$$$$$$$$$$$$$$$$$$$",
"$$$$$$$$$$$$$$$$$$$$$$$$$$$$$$$$$$$$$$$$$$$$$$$$$$$$$$$$$$$$$$$$"
};
