/* XPM */
static char *_d61ffb1a84247ff87b7fd1e39684944GKWfQzXC3kbrNGMo[] = {
/* columns rows colors chars-per-pixel */
"64 64 7 1 ",
"  c black",
". c #202020",
"X c #514F4F",
"o c #E7930C",
"O c #E5B80D",
"+ c #B2FF9A",
"@ c white",
/* pixels */
"++++++++++++++++++++++++++++++++++++++++++++++++++++++++++++++++",
"++++++++++++++++++++++++++++++++++++++++++++++++++++++++++++++++",
"++++++++++++++++++++++    ++++++++++++    ++++++++++++++++++++++",
"++++++++++++++++++++++    ++++++++++++    ++++++++++++++++++++++",
"++++++++++++++++++++++        ++++        ++++++++++++++++++++++",
"++++++++++++++++++++++        ++++        ++++++++++++++++++++++",
"++++++++++++++++++++++  ....        ....  ++++++++++++++++++++++",
"++++++++++++++++++++++  ....        ....  ++++++++++++++++++++++",
"++++++++++++++++++++++  ..XXOO    ooXX..  ++++++++++++++++++++++",
"++++++++++++++++++++++  ..XXOO    ooXX..  ++++++++++++++++++++++",
"++++++++++++++++++++++  XXXXOO    OOXXXX  ++++++++++++++++++++++",
"++++++++++++++++++++++  XXXXOO    OOXXXX  ++++++++++++++++++++++",
"++++++++++++++++++++++    XXOOOOOOOOXX    ++++++++++++++++++++++",
"++++++++++++++++++++++    XXOOOOOOOOXX    ++++++++++++++++++++++",
"++++++++++++++++++++++++  OOOOOOOOOOOO  ++++++++++++++++++++++++",
"++++++++++++++++++++++++  OOOOOOOOOOOO  ++++++++++++++++++++++++",
"++++++++++++++++++++++++  OOooOOooooOO  ++++++++++++++++++++++++",
"++++++++++++++++++++++++  OOooOOooooOO  ++++++++++++++++++++++++",
"++++++++++++++++++++++++  OOOOOOooOOOO  ++++++++++++++++++++++++",
"++++++++++++++++++++++++  OOOOOOooOOOO  ++++++++++++++++++++++++",
"++++++++++++++++++++++++  OOOOOOOOOOOO  ++++++++++++++++++++++++",
"++++++++++++++++++++++++  OOOOOOOOOOOO  ++++++++++++++++++++++++",
"++++++++++++++++++++++    ooOOOOooOOOO    ++++++++++++++++++++++",
"++++++++++++++++++++++    ooOOOOooOOOO    ++++++++++++++++++++++",
"++++++++++++++++++++++  OOooOOOOooOOOOOO  ++++++++++++++++++++++",
"++++++++++++++++++++++  OOooOOOOooOOOOOO  ++++++++++++++++++++++",
"++++++++++++++++++++++  OOOOOOOOOOOOOOOO  ++++++++++++++++++++++",
"++++++++++++++++++++++  OOOOOOOOOOOOOOOO  ++++++++++++++++++++++",
"++++++++++++++++++++    OOOOOOOOOOOOOOOO    ++++++++++++++++++++",
"++++++++++++++++++++    OOOOOOOOOOOOOOOO    ++++++++++++++++++++",
"++++++                ooOOOOOOOOOOOOOOOOoo                ++++++",
"++++++                ooOOOOOOOOOOOOOOOOoo                ++++++",
"        ooooooooooooooooOOooOOOOOOOOooOOoooooooooooooooo        ",
"        ooooooooooooooooOOooOOOOOOOOooOOoooooooooooooooo        ",
"    ooooooOOOOOOOOOOOOOOOOooOOOOooOOooOOOOOOOOOOOOOOOOoooooo    ",
"    ooooooOOOOOOOOOOOOOOOOooOOOOooOOooOOOOOOOOOOOOOOOOoooooo    ",
"++  OOOOOOOOooOOOOOOOOOOOOooOOooooOOooOOOOOOOOooooOOOOOOOOOO  ++",
"++  OOOOOOOOooOOOOOOOOOOOOooOOooooOOooOOOOOOOOooooOOOOOOOOOO  ++",
"++    OOOOOOOOOOOOOOOOOOOOOOooooOOOOOOOOooOOOOOOOOOOOOOOOO    ++",
"++    OOOOOOOOOOOOOOOOOOOOOOooooOOOOOOOOooOOOOOOOOOOOOOOOO    ++",
"++          OOOOOOOOOOOOOOooooOOOOOOOOOOOOOOOOOOOOOO          ++",
"++          OOOOOOOOOOOOOOooooOOOOOOOOOOOOOOOOOOOOOO          ++",
"++++++++++            OOOOOOOOOOOOOOOOOOOO            ++++++++++",
"++++++++++            OOOOOOOOOOOOOOOOOOOO            ++++++++++",
"++++++++++++++++        OOOOOOOOOOooOOOO        ++++++++++++++++",
"++++++++++++++++        OOOOOOOOOOooOOOO        ++++++++++++++++",
"++++++++++++++++++++++  OO    OOOO    OO  ++++++++++++++++++++++",
"++++++++++++++++++++++  OO    OOOO    OO  ++++++++++++++++++++++",
"++++++++++++++++++++++  OO@@  OOOO  @@OO  ++++++++++++++++++++++",
"++++++++++++++++++++++  OO@@  OOOO  @@OO  ++++++++++++++++++++++",
"++++++++++++++++++++++  OOOOOOOOOOOOOOOO  ++++++++++++++++++++++",
"++++++++++++++++++++++  OOOOOOOOOOOOOOOO  ++++++++++++++++++++++",
"++++++++++++++++++++++    OOOOOOOOOOOO    ++++++++++++++++++++++",
"++++++++++++++++++++++    OOOOOOOOOOOO    ++++++++++++++++++++++",
"++++++++++++++++++++++++    ooOOOOoo    ++++++++++++++++++++++++",
"++++++++++++++++++++++++    ooOOOOoo    ++++++++++++++++++++++++",
"++++++++++++++++++++++++++  oooooooo  ++++++++++++++++++++++++++",
"++++++++++++++++++++++++++  oooooooo  ++++++++++++++++++++++++++",
"++++++++++++++++++++++++++  oooooooo  ++++++++++++++++++++++++++",
"++++++++++++++++++++++++++  oooooooo  ++++++++++++++++++++++++++",
"++++++++++++++++++++++++++++        ++++++++++++++++++++++++++++",
"++++++++++++++++++++++++++++        ++++++++++++++++++++++++++++",
"++++++++++++++++++++++++++++        ++++++++++++++++++++++++++++",
"++++++++++++++++++++++++++++        ++++++++++++++++++++++++++++"
};
