/* XPM */
static char *fca07e0ff80a4315cda3bf39502a8dcf4qwmTHzcXIbXXfRU[] = {
/* columns rows colors chars-per-pixel */
"64 64 7 1 ",
"  c None",
". c black",
"X c #202020",
"o c #514F4F",
"O c #E7930C",
"+ c #E5B80D",
"@ c white",
/* pixels */
"                                                                ",
"                                                                ",
"                      ....            ....                      ",
"                      ....            ....                      ",
"                      ........    ........                      ",
"                      ........    ........                      ",
"                      ..XXXX........XXXX..                      ",
"                      ..XXXX........XXXX..                      ",
"                      ..XXoo++....OOooXX..                      ",
"                      ..XXoo++....OOooXX..                      ",
"                      ..oooo++....++oooo..                      ",
"                      ..oooo++....++oooo..                      ",
"                      ....oo++++++++oo....                      ",
"                      ....oo++++++++oo....                      ",
"                        ..++++++++++++..                        ",
"                        ..++++++++++++..                        ",
"                        ..++OO++OOOO++..                        ",
"                        ..++OO++OOOO++..                        ",
"                        ..++++++OO++++..                        ",
"                        ..++++++OO++++..                        ",
"                        ..++++++++++++..                        ",
"                        ..++++++++++++..                        ",
"                      ....OO++++OO++++....                      ",
"                      ....OO++++OO++++....                      ",
"                      ..++OO++++OO++++++..                      ",
"                      ..++OO++++OO++++++..                      ",
"                      ..++++++++++++++++..                      ",
"                      ..++++++++++++++++..                      ",
"                    ....++++++++++++++++....                    ",
"                    ....++++++++++++++++....                    ",
"      ................OO++++++++++++++++OO................      ",
"      ................OO++++++++++++++++OO................      ",
"........OOOOOOOOOOOOOOOO++OO++++++++OO++OOOOOOOOOOOOOOOO........",
"........OOOOOOOOOOOOOOOO++OO++++++++OO++OOOOOOOOOOOOOOOO........",
"....OOOOOO++++++++++++++++OO++++OO++OO++++++++++++++++OOOOOO....",
"....OOOOOO++++++++++++++++OO++++OO++OO++++++++++++++++OOOOOO....",
"  ..++++++++OO++++++++++++OO++OOOO++OO++++++++OOOO++++++++++..  ",
"  ..++++++++OO++++++++++++OO++OOOO++OO++++++++OOOO++++++++++..  ",
"  ....++++++++++++++++++++++OOOO++++++++OO++++++++++++++++....  ",
"  ....++++++++++++++++++++++OOOO++++++++OO++++++++++++++++....  ",
"  ..........++++++++++++++OOOO++++++++++++++++++++++..........  ",
"  ..........++++++++++++++OOOO++++++++++++++++++++++..........  ",
"          ............++++++++++++++++++++............          ",
"          ............++++++++++++++++++++............          ",
"                ........++++++++++OO++++........                ",
"                ........++++++++++OO++++........                ",
"                      ..++....++++....++..                      ",
"                      ..++....++++....++..                      ",
"                      ..++@@..++++..@@++..                      ",
"                      ..++@@..++++..@@++..                      ",
"                      ..++++++++++++++++..                      ",
"                      ..++++++++++++++++..                      ",
"                      ....++++++++++++....                      ",
"                      ....++++++++++++....                      ",
"                        ....OO++++OO....                        ",
"                        ....OO++++OO....                        ",
"                          ..OOOOOOOO..                          ",
"                          ..OOOOOOOO..                          ",
"                          ..OOOOOOOO..                          ",
"                          ..OOOOOOOO..                          ",
"                            ........                            ",
"                            ........                            ",
"                            ........                            ",
"                            ........                            "
};
