/* XPM */
static char *ea32727325cf45bcc7813a046880d36bZ2cL84yIoRPTns3z[] = {
/* columns rows colors chars-per-pixel */
"64 64 7 1 ",
"  c None",
". c black",
"X c #202020",
"o c #514F4F",
"O c #E7930C",
"+ c #E5B80D",
"@ c white",
/* pixels */
"                                                                ",
"                                                                ",
"                                                                ",
"                                                                ",
"                                                                ",
"                                                                ",
"                                                                ",
"                                                                ",
"                                                                ",
"                                                                ",
"                                                                ",
"                                                                ",
"            ..........                                          ",
"            ..........                                          ",
"            ..++++++........                    ................",
"            ..++++++........                    ................",
"            ..OOOOOO++++++....              ......++++++++OO....",
"            ..OOOOOO++++++....              ......++++++++OO....",
"            ....OOOO++++++++++....      ......++++++++++OOOO..  ",
"            ....OOOO++++++++++....      ......++++++++++OOOO..  ",
"              ....OOOO++++++++++....  ....++++++++++OOOOOO....  ",
"              ....OOOO++++++++++....  ....++++++++++OOOOOO....  ",
"                ....OOOO++++++++++......++++++++++OOOO....      ",
"                ....OOOO++++++++++......++++++++++OOOO....      ",
"                  ....OOOO++++++....++++++++++++OOOO....        ",
"                  ....OOOO++++++....++++++++++++OOOO....        ",
"                    ....OO++++....++++++++++++OOOO....          ",
"                    ....OO++++....++++++++++++OOOO....          ",
"            ........  ..OO......++++++OOOO++OOOO....            ",
"            ........  ..OO......++++++OOOO++OOOO....            ",
"          ....OOOO..........++++++++++++++OOOO..                ",
"          ....OOOO..........++++++++++++++OOOO..                ",
"        ....++++++++....++++++++++++++++++OO..................  ",
"        ....++++++++....++++++++++++++++++OO..................  ",
"      ....++++++..@@..++++++++++++++++++++++++++++++++++ooXX....",
"      ....++++++..@@..++++++++++++++++++++++++++++++++++ooXX....",
"  ........++++++....++++++++++OOOOOO++++++++++++++++++ooXXXX..  ",
"  ........++++++....++++++++++OOOOOO++++++++++++++++++ooXXXX..  ",
"....OO++....++++++++++++++++++++++++++++OOOO++++++++ooooXX....  ",
"....OO++....++++++++++++++++++++++++++++OOOO++++++++ooooXX....  ",
"..OO++++++..++++++++OO++++++OOOOOO++++++++++++++++oooo......    ",
"..OO++++++..++++++++OO++++++OOOOOO++++++++++++++++oooo......    ",
"......OOOOOO..++++++++++++++++++++++++++++++++OOOO......        ",
"......OOOOOO..++++++++++++++++++++++++++++++++OOOO......        ",
"    ............OOOOOO++++++++++++++++++++++OOOO....            ",
"    ............OOOOOO++++++++++++++++++++++OOOO....            ",
"              ......OOOOOOOOOO++++++++OOOOOOOO..                ",
"              ......OOOOOOOOOO++++++++OOOOOOOO..                ",
"                  ..........OOOOOOOOOOOO......                  ",
"                  ..........OOOOOOOOOOOO......                  ",
"                          ..............                        ",
"                          ..............                        ",
"                                                                ",
"                                                                ",
"                                                                ",
"                                                                ",
"                                                                ",
"                                                                ",
"                                                                ",
"                                                                ",
"                                                                ",
"                                                                ",
"                                                                ",
"                                                                "
};
