/* XPM */
static char *_2d254f52c034dc2812b4011e1a5e965GTW9GE41eDDYZrEM[] = {
/* columns rows colors chars-per-pixel */
"64 64 7 1 ",
"  c None",
". c black",
"X c #202020",
"o c #514F4F",
"O c #E7930C",
"+ c #E5B80D",
"@ c white",
/* pixels */
"                                                                ",
"                                                                ",
"                                                                ",
"                                                                ",
"                                                                ",
"                                                                ",
"                                                                ",
"                                                                ",
"                                                                ",
"                                                                ",
"                                                                ",
"                                                                ",
"                                          ..........            ",
"                                          ..........            ",
"................                    ........++++++..            ",
"................                    ........++++++..            ",
"....OO++++++++......              ....++++++OOOOOO..            ",
"....OO++++++++......              ....++++++OOOOOO..            ",
"  ..OOOO++++++++++......      ....++++++++++OOOO....            ",
"  ..OOOO++++++++++......      ....++++++++++OOOO....            ",
"  ....OOOOOO++++++++++....  ....++++++++++OOOO....              ",
"  ....OOOOOO++++++++++....  ....++++++++++OOOO....              ",
"      ....OOOO++++++++++......++++++++++OOOO....                ",
"      ....OOOO++++++++++......++++++++++OOOO....                ",
"        ....OOOO++++++++++++....++++++OOOO....                  ",
"        ....OOOO++++++++++++....++++++OOOO....                  ",
"          ....OOOO++++++++++++....++++OO....                    ",
"          ....OOOO++++++++++++....++++OO....                    ",
"            ....OOOO++OOOO++++++......OO..  ........            ",
"            ....OOOO++OOOO++++++......OO..  ........            ",
"                ..OOOO++++++++++++++..........OOOO....          ",
"                ..OOOO++++++++++++++..........OOOO....          ",
"  ..................OO++++++++++++++++++....++++++++....        ",
"  ..................OO++++++++++++++++++....++++++++....        ",
"....XXoo++++++++++++++++++++++++++++++++++..@@..++++++....      ",
"....XXoo++++++++++++++++++++++++++++++++++..@@..++++++....      ",
"  ..XXXXoo++++++++++++++++++OOOOOO++++++++++....++++++........  ",
"  ..XXXXoo++++++++++++++++++OOOOOO++++++++++....++++++........  ",
"  ....XXoooo++++++++OOOO++++++++++++++++++++++++++++....++OO....",
"  ....XXoooo++++++++OOOO++++++++++++++++++++++++++++....++OO....",
"    ......oooo++++++++++++++++OOOOOO++++++OO++++++++..++++++OO..",
"    ......oooo++++++++++++++++OOOOOO++++++OO++++++++..++++++OO..",
"        ......OOOO++++++++++++++++++++++++++++++++..OOOOOO......",
"        ......OOOO++++++++++++++++++++++++++++++++..OOOOOO......",
"            ....OOOO++++++++++++++++++++++OOOOOO............    ",
"            ....OOOO++++++++++++++++++++++OOOOOO............    ",
"                ..OOOOOOOO++++++++OOOOOOOOOO......              ",
"                ..OOOOOOOO++++++++OOOOOOOOOO......              ",
"                  ......OOOOOOOOOOOO..........                  ",
"                  ......OOOOOOOOOOOO..........                  ",
"                        ..............                          ",
"                        ..............                          ",
"                                                                ",
"                                                                ",
"                                                                ",
"                                                                ",
"                                                                ",
"                                                                ",
"                                                                ",
"                                                                ",
"                                                                ",
"                                                                ",
"                                                                ",
"                                                                "
};
