/* XPM */
static char *_5e0e811a0f746b9d18a72712b0ed0c9ZS94aET9XVNs1jYh[] = {
/* columns rows colors chars-per-pixel */
"64 64 7 1 ",
"  c black",
". c #202020",
"X c #514F4F",
"o c #E7930C",
"O c #E5B80D",
"+ c #B2FF9A",
"@ c white",
/* pixels */
"++++++++++++++++++++++++++++++++++++++++++++++++++++++++++++++++",
"++++++++++++++++++++++++++++++++++++++++++++++++++++++++++++++++",
"++++++++++++++++++++++++++++++++++++++++++++++++++++++++++++++++",
"++++++++++++++++++++++++++++++++++++++++++++++++++++++++++++++++",
"++++++++++++++++++++++++++++++++++++++++++++++++++++++++++++++++",
"++++++++++++++++++++++++++++++++++++++++++++++++++++++++++++++++",
"++++++++++++++++++++++++++++++++++++++++++++++++++++++++++++++++",
"++++++++++++++++++++++++++++++++++++++++++++++++++++++++++++++++",
"++++++++++++++++++++++++++++++++++++++++++++++++++++++++++++++++",
"++++++++++++++++++++++++++++++++++++++++++++++++++++++++++++++++",
"++++++++++++++++++++++++++++++++++++++++++++++++++++++++++++++++",
"++++++++++++++++++++++++++++++++++++++++++++++++++++++++++++++++",
"++++++++++++++++++++++++++++++++++++++++++          ++++++++++++",
"++++++++++++++++++++++++++++++++++++++++++          ++++++++++++",
"                ++++++++++++++++++++        OOOOOO  ++++++++++++",
"                ++++++++++++++++++++        OOOOOO  ++++++++++++",
"    ooOOOOOOOO      ++++++++++++++    OOOOOOoooooo  ++++++++++++",
"    ooOOOOOOOO      ++++++++++++++    OOOOOOoooooo  ++++++++++++",
"++  ooooOOOOOOOOOO      ++++++    OOOOOOOOOOoooo    ++++++++++++",
"++  ooooOOOOOOOOOO      ++++++    OOOOOOOOOOoooo    ++++++++++++",
"++    ooooooOOOOOOOOOO    ++    OOOOOOOOOOoooo    ++++++++++++++",
"++    ooooooOOOOOOOOOO    ++    OOOOOOOOOOoooo    ++++++++++++++",
"++++++    ooooOOOOOOOOOO      OOOOOOOOOOoooo    ++++++++++++++++",
"++++++    ooooOOOOOOOOOO      OOOOOOOOOOoooo    ++++++++++++++++",
"++++++++    ooooOOOOOOOOOOOO    OOOOOOoooo    ++++++++++++++++++",
"++++++++    ooooOOOOOOOOOOOO    OOOOOOoooo    ++++++++++++++++++",
"++++++++++    ooooOOOOOOOOOOOO    OOOOoo    ++++++++++++++++++++",
"++++++++++    ooooOOOOOOOOOOOO    OOOOoo    ++++++++++++++++++++",
"++++++++++++    ooooOOooooOOOOOO      oo  ++        ++++++++++++",
"++++++++++++    ooooOOooooOOOOOO      oo  ++        ++++++++++++",
"++++++++++++++++  ooooOOOOOOOOOOOOOO          oooo    ++++++++++",
"++++++++++++++++  ooooOOOOOOOOOOOOOO          oooo    ++++++++++",
"++                  ooOOOOOOOOOOOOOOOOOO    OOOOOOOO    ++++++++",
"++                  ooOOOOOOOOOOOOOOOOOO    OOOOOOOO    ++++++++",
"    ..XXOOOOOOOOOOOOOOOOOOOOOOOOOOOOOOOOOO  @@  OOOOOO    ++++++",
"    ..XXOOOOOOOOOOOOOOOOOOOOOOOOOOOOOOOOOO  @@  OOOOOO    ++++++",
"++  ....XXOOOOOOOOOOOOOOOOOOooooooOOOOOOOOOO    OOOOOO        ++",
"++  ....XXOOOOOOOOOOOOOOOOOOooooooOOOOOOOOOO    OOOOOO        ++",
"++    ..XXXXOOOOOOOOooooOOOOOOOOOOOOOOOOOOOOOOOOOOOO    OOoo    ",
"++    ..XXXXOOOOOOOOooooOOOOOOOOOOOOOOOOOOOOOOOOOOOO    OOoo    ",
"++++      XXXXOOOOOOOOOOOOOOOOooooooOOOOOOooOOOOOOOO  OOOOOOoo  ",
"++++      XXXXOOOOOOOOOOOOOOOOooooooOOOOOOooOOOOOOOO  OOOOOOoo  ",
"++++++++      ooooOOOOOOOOOOOOOOOOOOOOOOOOOOOOOOOO  oooooo      ",
"++++++++      ooooOOOOOOOOOOOOOOOOOOOOOOOOOOOOOOOO  oooooo      ",
"++++++++++++    ooooOOOOOOOOOOOOOOOOOOOOOOoooooo            ++++",
"++++++++++++    ooooOOOOOOOOOOOOOOOOOOOOOOoooooo            ++++",
"++++++++++++++++  ooooooooOOOOOOOOoooooooooo      ++++++++++++++",
"++++++++++++++++  ooooooooOOOOOOOOoooooooooo      ++++++++++++++",
"++++++++++++++++++      oooooooooooo          ++++++++++++++++++",
"++++++++++++++++++      oooooooooooo          ++++++++++++++++++",
"++++++++++++++++++++++++              ++++++++++++++++++++++++++",
"++++++++++++++++++++++++              ++++++++++++++++++++++++++",
"++++++++++++++++++++++++++++++++++++++++++++++++++++++++++++++++",
"++++++++++++++++++++++++++++++++++++++++++++++++++++++++++++++++",
"++++++++++++++++++++++++++++++++++++++++++++++++++++++++++++++++",
"++++++++++++++++++++++++++++++++++++++++++++++++++++++++++++++++",
"++++++++++++++++++++++++++++++++++++++++++++++++++++++++++++++++",
"++++++++++++++++++++++++++++++++++++++++++++++++++++++++++++++++",
"++++++++++++++++++++++++++++++++++++++++++++++++++++++++++++++++",
"++++++++++++++++++++++++++++++++++++++++++++++++++++++++++++++++",
"++++++++++++++++++++++++++++++++++++++++++++++++++++++++++++++++",
"++++++++++++++++++++++++++++++++++++++++++++++++++++++++++++++++",
"++++++++++++++++++++++++++++++++++++++++++++++++++++++++++++++++",
"++++++++++++++++++++++++++++++++++++++++++++++++++++++++++++++++"
};
