/* XPM */
static char *_f5814784d81489ea22a4d7dc5c36bbdifbsJJGxPcKXyeIe[] = {
/* columns rows colors chars-per-pixel */
"64 64 7 1 ",
"  c black",
". c #202020",
"X c #514F4F",
"o c #E7930C",
"O c #E5B80D",
"+ c #B2FF9A",
"@ c white",
/* pixels */
"++++++++++++++++++++++++++++        ++++++++++++++++++++++++++++",
"++++++++++++++++++++++++++++        ++++++++++++++++++++++++++++",
"++++++++++++++++++++++++++++        ++++++++++++++++++++++++++++",
"++++++++++++++++++++++++++++        ++++++++++++++++++++++++++++",
"++++++++++++++++++++++++++  oooooooo  ++++++++++++++++++++++++++",
"++++++++++++++++++++++++++  oooooooo  ++++++++++++++++++++++++++",
"++++++++++++++++++++++++++  oooooooo  ++++++++++++++++++++++++++",
"++++++++++++++++++++++++++  oooooooo  ++++++++++++++++++++++++++",
"++++++++++++++++++++++++    ooOOOOoo    ++++++++++++++++++++++++",
"++++++++++++++++++++++++    ooOOOOoo    ++++++++++++++++++++++++",
"++++++++++++++++++++++    OOOOOOOOOOOO    ++++++++++++++++++++++",
"++++++++++++++++++++++    OOOOOOOOOOOO    ++++++++++++++++++++++",
"++++++++++++++++++++++  OOOOOOOOOOOOOOOO  ++++++++++++++++++++++",
"++++++++++++++++++++++  OOOOOOOOOOOOOOOO  ++++++++++++++++++++++",
"++++++++++++++++++++++  OO@@  OOOO  @@OO  ++++++++++++++++++++++",
"++++++++++++++++++++++  OO@@  OOOO  @@OO  ++++++++++++++++++++++",
"++++++++++++++++++++++  OO    OOOO    OO  ++++++++++++++++++++++",
"++++++++++++++++++++++  OO    OOOO    OO  ++++++++++++++++++++++",
"++++++++++++++++        OOOOooOOOOOOOOOO        ++++++++++++++++",
"++++++++++++++++        OOOOooOOOOOOOOOO        ++++++++++++++++",
"++++++++++            OOOOOOOOOOOOOOOOOOOO            ++++++++++",
"++++++++++            OOOOOOOOOOOOOOOOOOOO            ++++++++++",
"++          OOOOOOOOOOOOOOOOOOOOOOooooOOOOOOOOOOOOOO          ++",
"++          OOOOOOOOOOOOOOOOOOOOOOooooOOOOOOOOOOOOOO          ++",
"++    OOOOOOOOOOOOOOOOooOOOOOOOOooooOOOOOOOOOOOOOOOOOOOOOO    ++",
"++    OOOOOOOOOOOOOOOOooOOOOOOOOooooOOOOOOOOOOOOOOOOOOOOOO    ++",
"++  OOOOOOOOOOooooOOOOOOOOooOOooooOOooOOOOOOOOOOOOooOOOOOOOO  ++",
"++  OOOOOOOOOOooooOOOOOOOOooOOooooOOooOOOOOOOOOOOOooOOOOOOOO  ++",
"    ooooooOOOOOOOOOOOOOOOOooOOooOOOOooOOOOOOOOOOOOOOOOoooooo    ",
"    ooooooOOOOOOOOOOOOOOOOooOOooOOOOooOOOOOOOOOOOOOOOOoooooo    ",
"        ooooooooooooooooOOooOOOOOOOOooOOoooooooooooooooo        ",
"        ooooooooooooooooOOooOOOOOOOOooOOoooooooooooooooo        ",
"++++++                ooOOOOOOOOOOOOOOOOoo                ++++++",
"++++++                ooOOOOOOOOOOOOOOOOoo                ++++++",
"++++++++++++++++++++    OOOOOOOOOOOOOOOO    ++++++++++++++++++++",
"++++++++++++++++++++    OOOOOOOOOOOOOOOO    ++++++++++++++++++++",
"++++++++++++++++++++++  OOOOOOOOOOOOOOOO  ++++++++++++++++++++++",
"++++++++++++++++++++++  OOOOOOOOOOOOOOOO  ++++++++++++++++++++++",
"++++++++++++++++++++++  OOOOOOooOOOOooOO  ++++++++++++++++++++++",
"++++++++++++++++++++++  OOOOOOooOOOOooOO  ++++++++++++++++++++++",
"++++++++++++++++++++++    OOOOooOOOOoo    ++++++++++++++++++++++",
"++++++++++++++++++++++    OOOOooOOOOoo    ++++++++++++++++++++++",
"++++++++++++++++++++++++  OOOOOOOOOOOO  ++++++++++++++++++++++++",
"++++++++++++++++++++++++  OOOOOOOOOOOO  ++++++++++++++++++++++++",
"++++++++++++++++++++++++  OOOOooOOOOOO  ++++++++++++++++++++++++",
"++++++++++++++++++++++++  OOOOooOOOOOO  ++++++++++++++++++++++++",
"++++++++++++++++++++++++  OOooooOOooOO  ++++++++++++++++++++++++",
"++++++++++++++++++++++++  OOooooOOooOO  ++++++++++++++++++++++++",
"++++++++++++++++++++++++  OOOOOOOOOOOO  ++++++++++++++++++++++++",
"++++++++++++++++++++++++  OOOOOOOOOOOO  ++++++++++++++++++++++++",
"++++++++++++++++++++++    XXOOOOOOOOXX    ++++++++++++++++++++++",
"++++++++++++++++++++++    XXOOOOOOOOXX    ++++++++++++++++++++++",
"++++++++++++++++++++++  XXXXOO    OOXXXX  ++++++++++++++++++++++",
"++++++++++++++++++++++  XXXXOO    OOXXXX  ++++++++++++++++++++++",
"++++++++++++++++++++++  ..XXoo    OOXX..  ++++++++++++++++++++++",
"++++++++++++++++++++++  ..XXoo    OOXX..  ++++++++++++++++++++++",
"++++++++++++++++++++++  ....        ....  ++++++++++++++++++++++",
"++++++++++++++++++++++  ....        ....  ++++++++++++++++++++++",
"++++++++++++++++++++++        ++++        ++++++++++++++++++++++",
"++++++++++++++++++++++        ++++        ++++++++++++++++++++++",
"++++++++++++++++++++++    ++++++++++++    ++++++++++++++++++++++",
"++++++++++++++++++++++    ++++++++++++    ++++++++++++++++++++++",
"++++++++++++++++++++++++++++++++++++++++++++++++++++++++++++++++",
"++++++++++++++++++++++++++++++++++++++++++++++++++++++++++++++++"
};
