/* XPM */
static char *_51638d5cee04088eefb066c4fc569f4q7w531FG5QALQ8hc[] = {
/* columns rows colors chars-per-pixel */
"64 64 7 1 ",
"  c None",
". c black",
"X c #202020",
"o c #514F4F",
"O c #E7930C",
"+ c #E5B80D",
"@ c white",
/* pixels */
"                            ........                            ",
"                            ........                            ",
"                            ........                            ",
"                            ........                            ",
"                          ..OOOOOOOO..                          ",
"                          ..OOOOOOOO..                          ",
"                          ..OOOOOOOO..                          ",
"                          ..OOOOOOOO..                          ",
"                        ....OO++++OO....                        ",
"                        ....OO++++OO....                        ",
"                      ....++++++++++++....                      ",
"                      ....++++++++++++....                      ",
"                      ..++++++++++++++++..                      ",
"                      ..++++++++++++++++..                      ",
"                      ..++@@..++++..@@++..                      ",
"                      ..++@@..++++..@@++..                      ",
"                      ..++....++++....++..                      ",
"                      ..++....++++....++..                      ",
"                ........++++OO++++++++++........                ",
"                ........++++OO++++++++++........                ",
"          ............++++++++++++++++++++............          ",
"          ............++++++++++++++++++++............          ",
"  ..........++++++++++++++++++++++OOOO++++++++++++++..........  ",
"  ..........++++++++++++++++++++++OOOO++++++++++++++..........  ",
"  ....++++++++++++++++OO++++++++OOOO++++++++++++++++++++++....  ",
"  ....++++++++++++++++OO++++++++OOOO++++++++++++++++++++++....  ",
"  ..++++++++++OOOO++++++++OO++OOOO++OO++++++++++++OO++++++++..  ",
"  ..++++++++++OOOO++++++++OO++OOOO++OO++++++++++++OO++++++++..  ",
"....OOOOOO++++++++++++++++OO++OO++++OO++++++++++++++++OOOOOO....",
"....OOOOOO++++++++++++++++OO++OO++++OO++++++++++++++++OOOOOO....",
"........OOOOOOOOOOOOOOOO++OO++++++++OO++OOOOOOOOOOOOOOOO........",
"........OOOOOOOOOOOOOOOO++OO++++++++OO++OOOOOOOOOOOOOOOO........",
"      ................OO++++++++++++++++OO................      ",
"      ................OO++++++++++++++++OO................      ",
"                    ....++++++++++++++++....                    ",
"                    ....++++++++++++++++....                    ",
"                      ..++++++++++++++++..                      ",
"                      ..++++++++++++++++..                      ",
"                      ..++++++OO++++OO++..                      ",
"                      ..++++++OO++++OO++..                      ",
"                      ....++++OO++++OO....                      ",
"                      ....++++OO++++OO....                      ",
"                        ..++++++++++++..                        ",
"                        ..++++++++++++..                        ",
"                        ..++++OO++++++..                        ",
"                        ..++++OO++++++..                        ",
"                        ..++OOOO++OO++..                        ",
"                        ..++OOOO++OO++..                        ",
"                        ..++++++++++++..                        ",
"                        ..++++++++++++..                        ",
"                      ....oo++++++++oo....                      ",
"                      ....oo++++++++oo....                      ",
"                      ..oooo++....++oooo..                      ",
"                      ..oooo++....++oooo..                      ",
"                      ..XXooOO....++ooXX..                      ",
"                      ..XXooOO....++ooXX..                      ",
"                      ..XXXX........XXXX..                      ",
"                      ..XXXX........XXXX..                      ",
"                      ........    ........                      ",
"                      ........    ........                      ",
"                      ....            ....                      ",
"                      ....            ....                      ",
"                                                                ",
"                                                                "
};
