/* XPM */
static char *c43faaadb3fc43dfcd8d5ab3fefbfbe82UOwzchR3B9VzLKE[] = {
/* columns rows colors chars-per-pixel */
"64 64 11 1 ",
"  c None",
". c black",
"X c #F93737",
"o c #54F937",
"O c #F99537",
"+ c #F9D137",
"@ c #1F5BBD",
"# c #8A1FBD",
"$ c #37CFF9",
"% c #FFFBFB",
"& c white",
/* pixels */
"                                                                ",
"                                                                ",
"                                                                ",
"                                                                ",
"                                                                ",
"                                                                ",
"                    ..........................                  ",
"                    ..........................                  ",
"                ......XXXXXXXXXXXXXXXXXXXXXX......              ",
"                ......XXXXXXXXXXXXXXXXXXXXXX......              ",
"              ....XXXXOOOOOOOOOOOOOOOOOOOOOOXX..........        ",
"              ....XXXXOOOOOOOOOOOOOOOOOOOOOOXX..........        ",
"            ....XXOOOOOOOOOOOOOOOOOOOOOOOOOOXXXXXXXXXX..        ",
"            ....XXOOOOOOOOOOOOOOOOOOOOOOOOOOXXXXXXXXXX..        ",
"          ....XXOOOOOO++++++++++++++++++++OOOOOOOOOOXX..        ",
"          ....XXOOOOOO++++++++++++++++++++OOOOOOOOOOXX..        ",
"          ..XXXXOOOO++++++oooooo++++++++++++++OOOOOOXX..        ",
"          ..XXXXOOOO++++++oooooo++++++++++++++OOOOOOXX..        ",
"        ....XXOOOO++++++oooooooooooooooooo++++++OOOOXX....      ",
"        ....XXOOOO++++++oooooooooooooooooo++++++OOOOXX....      ",
"        ..XXXXOOOO++++oooo$$$$$$$$$$$$$$oooo++++++OOOOXX..      ",
"        ..XXXXOOOO++++oooo$$$$$$$$$$$$$$oooo++++++OOOOXX..      ",
"      ....XXOOOO++++oooo$$$$$$$$$$$$$$$$$$oooo++++OOOOXX..      ",
"      ....XXOOOO++++oooo$$$$$$$$$$$$$$$$$$oooo++++OOOOXX..      ",
"      ....XXOO++++++oo$$$$@@@@@@@@@@@@$$$$oooooo++++OOXX..      ",
"      ....XXOO++++++oo$$$$@@@@@@@@@@@@$$$$oooooo++++OOXX..      ",
"      ....XXOO++++oooo$$@@@@########@@@@$$$$oooo++++OOXX....    ",
"      ....XXOO++++oooo$$@@@@########@@@@$$$$oooo++++OOXX....    ",
"      ....OOOO++oooo$$$$@@############@@$$$$oooo++++OOXXXX..    ",
"      ....OOOO++oooo$$$$@@############@@$$$$oooo++++OOXXXX..    ",
"      ..XXOOOO++oooo$$@@@@##........##@@@@$$$$oo++++OOOOXX..    ",
"      ..XXOOOO++oooo$$@@@@##........##@@@@$$$$oo++++OOOOXX..    ",
"    ....XXOOOO++oo$$$$@@####..    ..####@@$$$$oo++++OOOOXX..    ",
"    ....XXOOOO++oo$$$$@@####..    ..####@@$$$$oo++++OOOOXX..    ",
"    ....XXOOOO++oo$$@@@@##....    ....##@@$$$$oooo++OOOOXX..    ",
"    ....XXOOOO++oo$$@@@@##....    ....##@@$$$$oooo++OOOOXX..    ",
"    ....XXOO++++oo$$@@####..        ..##@@@@$$$$oo++OOOOXX..    ",
"    ....XXOO++++oo$$@@####..        ..##@@@@$$$$oo++OOOOXX..    ",
"    ..XXXXOO++++oo$$@@##....        ..####@@$$$$oo++OOOOXX..    ",
"    ..XXXXOO++++oo$$@@##....        ..####@@$$$$oo++OOOOXX..    ",
"    ..XXOO&&&&++oo$$@@##..          ....%%&&%%%%%%++OO%%%%....  ",
"    ..XXOO&&&&++oo$$@@##..          ....%%&&%%%%%%++OO%%%%....  ",
"    ..XX&&&&&&&&%%%%%%%%..        ......%%%%%%%%%%%%%%%%%%%%....",
"    ..XX&&&&&&&&%%%%%%%%..        ......%%%%%%%%%%%%%%%%%%%%....",
"......&&&&%%%%&&%%%%%%%%....      ..%%%%%%%%%%%%%%%%%%%%%%%%%%..",
"......&&&&%%%%&&%%%%%%%%....      ..%%%%%%%%%%%%%%%%%%%%%%%%%%..",
"..&&&&&&%%%%%%%%%%%%%%%%%%..    ....%%%%%%%%%%%%%%%%%%%%%%%%%%..",
"..&&&&&&%%%%%%%%%%%%%%%%%%..    ....%%%%%%%%%%%%%%%%%%%%%%%%%%..",
"..&&%%%%%%%%%%%%%%%%%%%%%%..    ....%%%%%%%%%%%%%%%%%%%%%%%%%%..",
"..&&%%%%%%%%%%%%%%%%%%%%%%..    ....%%%%%%%%%%%%%%%%%%%%%%%%%%..",
"..&&%%%%%%%%%%%%%%%%%%%%....      ..%%%%%%%%%%%%%%%%%%%%%%%%....",
"..&&%%%%%%%%%%%%%%%%%%%%....      ..%%%%%%%%%%%%%%%%%%%%%%%%....",
"....%%%%%%%%%%%%..........        ........%%%%%%%%%%%%%%%%%%..  ",
"....%%%%%%%%%%%%..........        ........%%%%%%%%%%%%%%%%%%..  ",
"  ................                      ....%%%%%%%%%%%%......  ",
"  ................                      ....%%%%%%%%%%%%......  ",
"                                          ................      ",
"                                          ................      ",
"                                                                ",
"                                                                ",
"                                                                ",
"                                                                ",
"                                                                ",
"                                                                "
};
