/* XPM */
static char *_dc6b868e392430fa46ae33213b7a556wwbkGLMy4ZM7w7P6[] = {
/* columns rows colors chars-per-pixel */
"64 64 5 1 ",
"  c None",
". c black",
"X c #AC43A0",
"o c #FFB2F6",
"O c white",
/* pixels */
"                                                                ",
"                                                                ",
"                                                                ",
"                                                                ",
"                                                                ",
"                                                                ",
"                                                                ",
"                                                                ",
"                  ............                                  ",
"                  ............                                  ",
"              ......oooooooo........                            ",
"              ......oooooooo........                            ",
"            ....ooooooOO..ooooXXXX....                          ",
"            ....ooooooOO..ooooXXXX....                          ",
"            ....oooooo....oooooooooo..                          ",
"            ....oooooo....oooooooooo..                          ",
"            ....ooooooooXXoooooooooo....                        ",
"            ....ooooooooXXoooooooooo....                        ",
"              ......ooooXXXXXXoooooooo....                      ",
"              ......ooooXXXXXXoooooooo....                      ",
"                  ........oooooooooooooo..                      ",
"                  ........oooooooooooooo..                      ",
"                      ........oooooooooo..                      ",
"                      ........oooooooooo..                      ",
"                          ......oooooooo..                      ",
"                          ......oooooooo..                      ",
"                            ....ooooooXX..                      ",
"                            ....ooooooXX..                      ",
"                              ..ooooXXXX..                      ",
"                              ..ooooXXXX..                      ",
"                              ..ooooXXoo..                      ",
"                              ..ooooXXoo..                      ",
"                              ..oooooooo..                      ",
"                              ..oooooooo..                      ",
"                              ..XXoooooo..                      ",
"                              ..XXoooooo..                      ",
"                              ..XXoooooo....                    ",
"                              ..XXoooooo....                    ",
"                              ..ooooooooXX..                    ",
"                              ..ooooooooXX..                    ",
"                              ..ooooooooXX..                    ",
"                              ..ooooooooXX..                    ",
"                              ....oooooooo....                  ",
"                              ....oooooooo....                  ",
"                              ....XXXXoooooo....                ",
"                              ....XXXXoooooo....                ",
"                                ..ooXXooooooXX......            ",
"                                ..ooXXooooooXX......            ",
"                                ..ooXXooooooXXXXXX......        ",
"                                ..ooXXooooooXXXXXX......        ",
"                                ....ooooooooooooooooXX..        ",
"                                ....ooooooooooooooooXX..        ",
"                                  ....oooooooooooooo....        ",
"                                  ....oooooooooooooo....        ",
"                                    ......ooooooXX....          ",
"                                    ......ooooooXX....          ",
"                                        ..........              ",
"                                        ..........              ",
"                                                                ",
"                                                                ",
"                                                                ",
"                                                                ",
"                                                                ",
"                                                                "
};
